<?xml version="1.0" encoding="UTF-8"?>
<svg version="1.1" xmlns="http://www.w3.org/2000/svg" width="512" height="512">
<path d="M0 0 C168.96 0 337.92 0 512 0 C512 168.96 512 337.92 512 512 C343.04 512 174.08 512 0 512 C0 343.04 0 174.08 0 0 Z " fill="#000000" transform="translate(0,0)"/>
<path d="M0 0 C3.21112458 -0.7208647 5.81054856 -0.89591333 9 0 C11.18629806 2.4091055 12.59953346 4.92957785 14.17578125 7.7734375 C16.11376544 11.2012211 18.30483876 14.24216973 20.6875 17.375 C21.41324219 18.33148438 22.13898438 19.28796875 22.88671875 20.2734375 C23.58410156 21.17320312 24.28148437 22.07296875 25 23 C25.96679688 24.27617187 25.96679688 24.27617187 26.953125 25.578125 C40.56842041 41.68782568 63.40399088 52.4889747 84 56 C101.14030755 57.10043421 117.67588587 56.70562402 134 51 C135.04462402 50.63914307 135.04462402 50.63914307 136.11035156 50.27099609 C153.151449 44.23003645 167.09783266 34.94187944 180.17578125 22.61328125 C183.041402 19.96169027 185.98165326 17.47442014 189 15 C187.57506007 19.22885399 185.49615034 22.10422086 182.625 25.5 C181.85414063 26.4178125 181.08328125 27.335625 180.2890625 28.28125 C179.53367187 29.1784375 178.77828125 30.075625 178 31 C176.98292969 32.30324219 176.98292969 32.30324219 175.9453125 33.6328125 C174.16250818 35.80224908 172.38708053 37.56466318 170.25 39.375 C167.19884324 41.96708299 167.19884324 41.96708299 164.23046875 44.65234375 C149.56176765 58.2344744 130.36919962 68.24770567 111 73 C109.84628906 73.29648437 108.69257813 73.59296875 107.50390625 73.8984375 C84.34781873 79.2402651 58.63821307 75.97758453 38.32421875 63.3046875 C32.63718698 59.51111647 27.79020171 54.84748365 23 50 C22.33355469 49.34386719 21.66710937 48.68773437 20.98046875 48.01171875 C10.45584388 36.91691104 0.51780949 17.42742785 -0.125 2 C-0.08375 1.34 -0.0425 0.68 0 0 Z " fill="#FC8805" transform="translate(150,289)"/>
<path d="M0 0 C15.8282957 13.14923245 30.95278966 33.35215912 33.16845703 54.4453125 C33.26675933 55.88186649 33.35604661 57.31925224 33.41845703 58.7578125 C31.11406157 56.45341704 30.26909188 54.4096419 28.91845703 51.4453125 C16.77550423 26.80486812 -7.16655943 9.60293815 -32.58154297 0.4453125 C-34.5712998 -0.15241152 -36.57228639 -0.71370451 -38.58154297 -1.2421875 C-39.70947266 -1.53996094 -40.83740234 -1.83773437 -41.99951172 -2.14453125 C-59.41772826 -6.06137373 -78.3216706 -5.7813692 -95.58154297 -1.2421875 C-96.22849121 -1.07589844 -96.87543945 -0.90960938 -97.54199219 -0.73828125 C-116.71952262 4.30720788 -133.37465682 14.17190843 -148.58154297 26.7578125 C-149.43361328 27.42167969 -150.28568359 28.08554688 -151.16357422 28.76953125 C-157.95095676 34.35075534 -163.16601998 41.89346128 -168.58154297 48.7578125 C-168.91154297 48.0978125 -169.24154297 47.4378125 -169.58154297 46.7578125 C-168.43431396 44.56849137 -167.24572201 42.56788488 -165.89404297 40.5078125 C-165.48976074 39.8880957 -165.08547852 39.26837891 -164.66894531 38.62988281 C-150.4095739 17.31881923 -129.98066476 -0.57244879 -105.58154297 -9.2421875 C-103.26904297 -8.8671875 -103.26904297 -8.8671875 -101.58154297 -8.2421875 C-102.57154297 -7.2521875 -103.56154297 -6.2621875 -104.58154297 -5.2421875 C-103.05400391 -5.93054688 -103.05400391 -5.93054688 -101.49560547 -6.6328125 C-70.2450972 -20.35537421 -28.34335689 -22.26165481 0 0 Z " fill="#BD236A" transform="translate(327.58154296875,166.2421875)"/>
<path d="M0 0 C1.32 0 2.64 0 4 0 C0.92376519 27.40324109 -19.72988194 52.25259677 -40.54296875 68.921875 C-66.91911828 88.97999903 -99.66410387 97.68831127 -132.55859375 93.49609375 C-152.31810543 90.40675833 -170.14878259 82.12459766 -186.01171875 70.19921875 C-188.903535 67.97295566 -188.903535 67.97295566 -191.89453125 66.39453125 C-192.58933594 65.93433594 -193.28414062 65.47414063 -194 65 C-194 64.01 -194 63.02 -194 62 C-193.34 62 -192.68 62 -192 62 C-192 62.66 -192 63.32 -192 64 C-191.43925781 64.26425781 -190.87851563 64.52851563 -190.30078125 64.80078125 C-187.79750299 66.10554598 -185.53122318 67.61421731 -183.1875 69.1875 C-178.80397582 71.98549416 -174.37347765 74.44963154 -169.6875 76.6875 C-167.99173828 77.49767578 -167.99173828 77.49767578 -166.26171875 78.32421875 C-155.13511297 82.94230708 -144.75728975 84.62663922 -132.75 84.4375 C-131.46609375 84.44458984 -130.1821875 84.45167969 -128.859375 84.45898438 C-122.13551044 84.41420454 -116.41014326 83.84618682 -110.05224609 81.64819336 C-107.41854919 80.81635119 -105.17693592 80.83247103 -102.4375 81.0625 C-78.51934138 81.67736269 -56.85502746 68.49343209 -40.03564453 52.69458008 C-36.19464102 49.09732051 -36.19464102 49.09732051 -34 48 C-40.89158308 62.50364984 -58.98081537 73.25871744 -73 80 C-72.09636719 79.6390625 -71.19273437 79.278125 -70.26171875 78.90625 C-68.49248047 78.21015625 -68.49248047 78.21015625 -66.6875 77.5 C-64.92986328 76.80390625 -64.92986328 76.80390625 -63.13671875 76.09375 C-60 75 -60 75 -57 75 C-56.67 74.01 -56.34 73.02 -56 72 C-53.91796875 70.5625 -53.91796875 70.5625 -51.1875 69 C-29.33259531 55.47480704 -14.0005025 32.87335436 -4.4375 9.453125 C-3.0911326 6.21891635 -1.60420518 3.11292196 0 0 Z " fill="#DA6330" transform="translate(368,290)"/>
<path d="M0 0 C4.18245846 2.34739317 6.94158525 5.60789678 8.75390625 9.984375 C9.125 12.4296875 9.125 12.4296875 9.19140625 15.109375 C9.25134766 16.41261719 9.25134766 16.41261719 9.3125 17.7421875 C7.63464058 27.4808121 1.47097058 33.98584242 -5.43359375 40.609375 C-6.66239258 41.82947266 -6.66239258 41.82947266 -7.91601562 43.07421875 C-13.95033482 48.984375 -13.95033482 48.984375 -16.24609375 48.984375 C-16.24609375 49.644375 -16.24609375 50.304375 -16.24609375 50.984375 C-7.66609375 50.984375 0.91390625 50.984375 9.75390625 50.984375 C9.75390625 54.614375 9.75390625 58.244375 9.75390625 61.984375 C-4.10609375 61.984375 -17.96609375 61.984375 -32.24609375 61.984375 C-32.24609375 50.984375 -32.24609375 50.984375 -30.41357422 47.95068359 C-29.57197754 47.18578613 -28.73038086 46.42088867 -27.86328125 45.6328125 C-26.94289062 44.76140625 -26.0225 43.89 -25.07421875 42.9921875 C-24.0996875 42.12335938 -23.12515625 41.25453125 -22.12109375 40.359375 C-10.20389618 30.39871913 -10.20389618 30.39871913 -4.68359375 16.609375 C-5.00499318 13.13932748 -5.00499318 13.13932748 -6.37109375 10.984375 C-9.08338312 9.53782067 -11.21976775 9.73218117 -14.24609375 9.984375 C-15.23609375 10.314375 -16.22609375 10.644375 -17.24609375 10.984375 C-17.57609375 12.964375 -17.90609375 14.944375 -18.24609375 16.984375 C-22.53609375 16.984375 -26.82609375 16.984375 -31.24609375 16.984375 C-30.80912838 11.52230793 -29.74930959 8.22510996 -26.24609375 3.984375 C-18.40447956 -2.6425928 -9.60495165 -4.11363586 0 0 Z " fill="#F8F8F8" transform="translate(259.24609375,224.015625)"/>
<path d="M0 0 C0.33 0.66 0.66 1.32 1 2 C-0.24136719 1.72285156 -1.48273438 1.44570312 -2.76171875 1.16015625 C-4.40363951 0.79424248 -6.04556695 0.42835864 -7.6875 0.0625 C-8.91243164 -0.21110352 -8.91243164 -0.21110352 -10.16210938 -0.49023438 C-10.95810547 -0.66748047 -11.75410156 -0.84472656 -12.57421875 -1.02734375 C-13.30213623 -1.18968506 -14.03005371 -1.35202637 -14.7800293 -1.51928711 C-15.51261963 -1.67792236 -16.24520996 -1.83655762 -17 -2 C-17.77851318 -2.17942139 -18.55702637 -2.35884277 -19.35913086 -2.54370117 C-51.55224204 -8.10614222 -87.76682903 1.19338002 -114.32250977 19.59716797 C-123.44939699 26.06745481 -132.0916017 33.1346863 -140.34375 40.6875 C-142 42 -142 42 -145 43 C-144.59250527 37.25078091 -142.26686635 33.98332186 -138.875 29.5625 C-138.12186523 28.56355713 -138.12186523 28.56355713 -137.35351562 27.54443359 C-133.87395931 22.99123039 -130.3409407 18.76030532 -126 15 C-125.23816406 14.3090625 -124.47632813 13.618125 -123.69140625 12.90625 C-112.20111187 2.93547449 -98.44009281 -4.29545331 -84 -9 C-83.35466309 -9.21027832 -82.70932617 -9.42055664 -82.04443359 -9.63720703 C-54.0321315 -18.26846772 -25.66869639 -12.66657894 0 0 Z " fill="#FA9405" transform="translate(312,144)"/>
<path d="M0 0 C-1.175625 0.37125 -2.35125 0.7425 -3.5625 1.125 C-18.80270851 6.24513314 -33.75498559 12.41634037 -45.1328125 24.2109375 C-47 26 -47 26 -49 26 C-49.2475 26.57105469 -49.495 27.14210937 -49.75 27.73046875 C-51.19565697 30.35523969 -52.91674416 32.15856226 -55 34.3125 C-70.35918098 51.12624226 -82.22483436 73.95753175 -87.4921875 96.09375 C-88 98 -88 98 -89 99 C-91.01964199 99.07244053 -93.04167124 99.08377188 -95.0625 99.0625 C-96.16722656 99.05347656 -97.27195313 99.04445313 -98.41015625 99.03515625 C-99.26480469 99.02355469 -100.11945313 99.01195312 -101 99 C-100.14250395 71.98887432 -81.30484546 46.50083291 -62.5625 28.625 C-49.99105423 17.64684411 -18.03816101 -6.01272034 0 0 Z " fill="#F99107" transform="translate(236,127)"/>
<path d="M0 0 C2.97 0 5.94 0 9 0 C9.27714844 1.35996094 9.55429687 2.71992188 9.83984375 4.12109375 C10.20553093 5.89327008 10.57142713 7.6654033 10.9375 9.4375 C11.11990234 10.33533203 11.30230469 11.23316406 11.49023438 12.15820312 C11.66748047 13.01220703 11.84472656 13.86621094 12.02734375 14.74609375 C12.18968506 15.53685303 12.35202637 16.3276123 12.51928711 17.14233398 C12.83290893 19.00204668 12.83290893 19.00204668 14 20 C14.14622803 19.42967041 14.29245605 18.85934082 14.44311523 18.27172852 C15.10434115 15.70105211 15.77084771 13.13177426 16.4375 10.5625 C16.66759766 9.66466797 16.89769531 8.76683594 17.13476562 7.84179688 C17.46831055 6.56079102 17.46831055 6.56079102 17.80859375 5.25390625 C18.11494751 4.06776733 18.11494751 4.06776733 18.42749023 2.85766602 C19 1 19 1 20 0 C22.67058851 -0.14115161 25.32432238 -0.04247107 28 0 C30.31993846 7.28640866 32.47536437 14.50387484 34 22 C34.19335938 20.99839844 34.38671875 19.99679687 34.5859375 18.96484375 C34.84880049 17.62236492 35.11183026 16.27991873 35.375 14.9375 C35.50132812 14.28072266 35.62765625 13.62394531 35.7578125 12.94726562 C36.62384507 8.55215035 37.71626553 4.29213829 39 0 C41.64 0 44.28 0 47 0 C45.06021923 10.84745823 42.04243733 21.4193809 39 32 C35.7 32 32.4 32 29 32 C27.35 26.06 25.7 20.12 24 14 C21.4771577 20.7134761 21.4771577 20.7134761 19.3125 27.5 C19.06113281 28.3559375 18.80976563 29.211875 18.55078125 30.09375 C18.36902344 30.7228125 18.18726563 31.351875 18 32 C15.03 32 12.06 32 9 32 C4.83020739 22.73379421 0 10.32222069 0 0 Z " fill="#F3F3F3" transform="translate(271,247)"/>
<path d="M0 0 C2.64 0 5.28 0 8 0 C8.65104151 2.35283375 9.29592122 4.70708449 9.9375 7.0625 C10.11990234 7.71927734 10.30230469 8.37605469 10.49023438 9.05273438 C11.65689649 13.3587782 12.45292805 17.57159654 13 22 C13.14622803 21.40461426 13.29245605 20.80922852 13.44311523 20.19580078 C14.10545685 17.50492304 14.77143268 14.81495783 15.4375 12.125 C15.66759766 11.18785156 15.89769531 10.25070312 16.13476562 9.28515625 C16.35712891 8.38925781 16.57949219 7.49335938 16.80859375 6.5703125 C17.11494751 5.32918701 17.11494751 5.32918701 17.42749023 4.06298828 C18 2 18 2 19 0 C21.97 0 24.94 0 28 0 C29.65 7.26 31.3 14.52 33 22 C34.65 14.74 36.3 7.48 38 0 C40.64 0 43.28 0 46 0 C45.29304559 6.8604449 43.33617314 13.32410188 41.4375 19.9375 C41.10814453 21.09830078 40.77878906 22.25910156 40.43945312 23.45507812 C39.6303404 26.30456206 38.81708013 29.15279247 38 32 C35.03 32 32.06 32 29 32 C23.67990654 16.28154206 23.67990654 16.28154206 24 11 C23.34 11 22.68 11 22 11 C21.96261719 11.59425781 21.92523438 12.18851562 21.88671875 12.80078125 C21.3576382 19.47134587 19.93377584 25.60272899 18 32 C14.7 32 11.4 32 8 32 C5.62088648 25.99988965 3.8508171 20.01480799 2.3125 13.75 C2.08755859 12.86570312 1.86261719 11.98140625 1.63085938 11.0703125 C1.41880859 10.21695312 1.20675781 9.36359375 0.98828125 8.484375 C0.79790283 7.71834961 0.60752441 6.95232422 0.41137695 6.16308594 C0 4 0 4 0 0 Z " fill="#F4F4F4" transform="translate(92,247)"/>
<path d="M0 0 C2.97 0 5.94 0 9 0 C9.33 4.95 9.66 9.9 10 15 C10.99 14.34 11.98 13.68 13 13 C17.97455239 12.5393933 21.06753613 12.83218188 25 16 C27.72778192 19.76799251 28.36407129 22.33536621 28.29296875 26.95703125 C28.28330078 28.06884766 28.27363281 29.18066406 28.26367188 30.32617188 C28.23853516 31.47666016 28.21339844 32.62714844 28.1875 33.8125 C28.16719727 35.56723633 28.16719727 35.56723633 28.14648438 37.35742188 C28.11120278 40.238752 28.0619028 43.11913904 28 46 C25.03 46 22.06 46 19 46 C18.97494385 45.27820557 18.9498877 44.55641113 18.92407227 43.81274414 C18.80848698 40.562465 18.68559226 37.31250312 18.5625 34.0625 C18.52318359 32.92619141 18.48386719 31.78988281 18.44335938 30.61914062 C18.40146484 29.53955078 18.35957031 28.45996094 18.31640625 27.34765625 C18.27974854 26.34742432 18.24309082 25.34719238 18.20532227 24.31665039 C18.25328159 22.03930812 18.25328159 22.03930812 17 21 C14.54190002 20.7499227 14.54190002 20.7499227 12 21 C9.39911378 23.60088622 9.70037775 24.82137113 9.5859375 28.4453125 C9.52792969 30.05986328 9.52792969 30.05986328 9.46875 31.70703125 C9.4378125 32.83496094 9.406875 33.96289062 9.375 35.125 C9.31699219 36.82849609 9.31699219 36.82849609 9.2578125 38.56640625 C9.16332399 41.37743956 9.07776459 44.18846233 9 47 C6.03 47 3.06 47 0 47 C0 31.49 0 15.98 0 0 Z " fill="#E9E9E9" transform="translate(142,233)"/>
<path d="M0 0 C-1.32 1.98 -2.64 3.96 -4 6 C-3.33991943 5.9592334 -2.67983887 5.9184668 -1.99975586 5.87646484 C1.02040668 5.69695488 4.04128792 5.53583888 7.0625 5.375 C8.62000977 5.27832031 8.62000977 5.27832031 10.20898438 5.1796875 C15.96634078 4.88725035 20.57644249 4.98443678 26 7 C26 7.33 26 7.66 26 8 C25.14470703 8.01458252 24.28941406 8.02916504 23.40820312 8.04418945 C0.99822697 8.21429742 0.99822697 8.21429742 -21 12 C-21.95737061 12.2472583 -21.95737061 12.2472583 -22.93408203 12.49951172 C-42.12363124 17.54546226 -58.78319634 27.40588775 -74 40 C-74.85207031 40.66386719 -75.70414063 41.32773438 -76.58203125 42.01171875 C-83.36941379 47.59294284 -88.58447701 55.13564878 -94 62 C-94.33 61.34 -94.66 60.68 -95 60 C-93.85277099 57.81067887 -92.66417904 55.81007238 -91.3125 53.75 C-90.90821777 53.1302832 -90.50393555 52.51056641 -90.08740234 51.87207031 C-75.82803093 30.56100673 -55.39912179 12.66973871 -31 4 C-28.6875 4.375 -28.6875 4.375 -27 5 C-27.99 5.99 -28.98 6.98 -30 8 C-28.865625 7.51789063 -27.73125 7.03578125 -26.5625 6.5390625 C-25.04179285 5.90074098 -23.52095234 5.26273709 -22 4.625 C-21.25621094 4.30789062 -20.51242188 3.99078125 -19.74609375 3.6640625 C-6.27187267 -1.95996021 -6.27187267 -1.95996021 0 0 Z " fill="#D1612A" transform="translate(253,153)"/>
<path d="M0 0 C2.64 0 5.28 0 8 0 C8.33 5.28 8.66 10.56 9 16 C10.32 15.01 11.64 14.02 13 13 C17.99584223 12.45499903 21.01507393 12.90061306 25 16 C28.10324909 19.30826434 28.35878481 21.60263304 28.29296875 26.078125 C28.28330078 27.23828125 28.27363281 28.3984375 28.26367188 29.59375 C28.23853516 30.8003125 28.21339844 32.006875 28.1875 33.25 C28.16719727 35.08304687 28.16719727 35.08304687 28.14648438 36.953125 C28.1111398 39.96919498 28.0617956 42.98437487 28 46 C25.03 46 22.06 46 19 46 C18.97494385 45.27820557 18.9498877 44.55641113 18.92407227 43.81274414 C18.80848698 40.562465 18.68559226 37.31250312 18.5625 34.0625 C18.52318359 32.92619141 18.48386719 31.78988281 18.44335938 30.61914062 C18.40146484 29.53955078 18.35957031 28.45996094 18.31640625 27.34765625 C18.27974854 26.34742432 18.24309082 25.34719238 18.20532227 24.31665039 C18.25328159 22.03930812 18.25328159 22.03930812 17 21 C13.44734265 20.62235869 13.44734265 20.62235869 10.36791992 22.1965332 C8.5620269 24.57742411 8.57412716 26.13520019 8.48828125 29.10546875 C8.45283203 30.08837891 8.41738281 31.07128906 8.38085938 32.08398438 C8.34702148 33.62022461 8.34702148 33.62022461 8.3125 35.1875 C8.27833984 36.22326172 8.24417969 37.25902344 8.20898438 38.32617188 C8.12647358 40.8840066 8.05733428 43.44149723 8 46 C5.36 46 2.72 46 0 46 C0 30.82 0 15.64 0 0 Z " fill="#F2F1F2" transform="translate(399,233)"/>
<path d="M0 0 C2.81655681 1.46130981 4.70307668 2.72265639 6.17529297 5.56713867 C7.06783496 8.53258677 7.22057454 10.92706165 7.1875 14.01953125 C7.18105469 15.08623047 7.17460937 16.15292969 7.16796875 17.25195312 C7.15121094 18.35474609 7.13445312 19.45753906 7.1171875 20.59375 C7.10816406 21.71587891 7.09914063 22.83800781 7.08984375 23.99414062 C7.06633236 26.75672909 7.03346905 29.51887932 6.9921875 32.28125 C4.6821875 32.28125 2.3721875 32.28125 -0.0078125 32.28125 C-0.0078125 31.29125 -0.0078125 30.30125 -0.0078125 29.28125 C-0.6678125 29.28125 -1.3278125 29.28125 -2.0078125 29.28125 C-2.0078125 29.94125 -2.0078125 30.60125 -2.0078125 31.28125 C-6.01035866 33.94961411 -9.30094549 34.1152738 -14.0078125 33.28125 C-16.76350697 31.09965855 -18.44369997 29.40947506 -20.0078125 26.28125 C-20.29685279 23.02954672 -20.1483579 20.68414683 -19.0703125 17.59375 C-15.62619384 13.73216241 -10.94705523 12.52752535 -5.86328125 12.1015625 C-4.24369719 12.09496542 -2.62412073 12.17808139 -1.0078125 12.28125 C-1.3378125 10.63125 -1.6678125 8.98125 -2.0078125 7.28125 C-6.92908284 7.11442728 -10.51125146 7.03296948 -15.0078125 9.28125 C-15.9978125 7.63125 -16.9878125 5.98125 -18.0078125 4.28125 C-12.54308041 -0.29730932 -7.02792409 -2.51583275 0 0 Z " fill="#EEEEEF" transform="translate(339.0078125,246.71875)"/>
<path d="M0 0 C3.11476949 1.70181962 5.38869747 3.77739495 7 7 C7.08510205 8.9593604 7.10717656 10.92162794 7.09765625 12.8828125 C7.09443359 14.04941406 7.09121094 15.21601563 7.08789062 16.41796875 C7.07951172 17.64128906 7.07113281 18.86460937 7.0625 20.125 C7.05798828 21.35605469 7.05347656 22.58710938 7.04882812 23.85546875 C7.0370133 26.90369392 7.02054028 29.95182314 7 33 C3.66666667 33 0.33333333 33 -3 33 C-3.495 33.495 -3.495 33.495 -4 34 C-8.61544489 34.58169863 -12.00133167 34.6241677 -16 32.125 C-18.5948069 29.36801767 -18.96110169 28.51540257 -19.25 24.6875 C-18.98368917 20.75941531 -18.43481646 19.04352057 -16 16 C-12.72013188 13.88419222 -10.10380412 13.78324276 -6.25 13.875 C-5.26515625 13.89304687 -4.2803125 13.91109375 -3.265625 13.9296875 C-2.14414063 13.96449219 -2.14414063 13.96449219 -1 14 C-1.66 12.02 -2.32 10.04 -3 8 C-8.7974423 7.75571657 -8.7974423 7.75571657 -14 10 C-15.5 8.6875 -15.5 8.6875 -17 7 C-17 6.01 -17 5.02 -17 4 C-11.46236094 0.14772935 -6.75777414 -1.32265645 0 0 Z " fill="#F4F4F4" transform="translate(193,246)"/>
<path d="M0 0 C1.9375 1.375 1.9375 1.375 3 3 C3 3.66 3 4.32 3 5 C1.39850114 5.67305018 -0.20631029 6.33822227 -1.8125 7 C-2.70582031 7.37125 -3.59914063 7.7425 -4.51953125 8.125 C-7 9 -7 9 -10 9 C-10 9.66 -10 10.32 -10 11 C-27.32985558 14.79090591 -45.82971314 14.24207087 -63 10 C-63.33 8.68 -63.66 7.36 -64 6 C-62.69180298 5.97812622 -62.69180298 5.97812622 -61.35717773 5.95581055 C-58.09340004 5.89442628 -54.83042043 5.82021612 -51.56713867 5.73754883 C-50.1600222 5.70448006 -48.75277884 5.67639296 -47.34545898 5.65356445 C-45.31179176 5.61968201 -43.27926865 5.56735782 -41.24609375 5.51171875 C-40.02591553 5.48553467 -38.8057373 5.45935059 -37.54858398 5.43237305 C-33.58329172 4.94922667 -30.62417519 3.6371633 -27 2 C-24.69238281 1.58349609 -24.69238281 1.58349609 -22.703125 1.5234375 C-21.97222656 1.4925 -21.24132812 1.4615625 -20.48828125 1.4296875 C-19.38033203 1.40261719 -19.38033203 1.40261719 -18.25 1.375 C-12.02861618 1.16230312 -6.19126759 -0.4422334 0 0 Z " fill="#F66516" transform="translate(287,371)"/>
<path d="M0 0 C2.64 0 5.28 0 8 0 C8 2.97 8 5.94 8 9 C9.98 9 11.96 9 14 9 C14 10.98 14 12.96 14 15 C12.02 15 10.04 15 8 15 C8.33 21.27 8.66 27.54 9 34 C10.98 34.33 12.96 34.66 15 35 C15.04254356 36.99954746 15.04080783 39.00041636 15 41 C13.44049449 42.55950551 11.91122869 42.28196698 9.75 42.375 C5.93524381 42.34462774 5.18033551 42.13900862 2 39.6875 C-0.53271109 36.28416947 -1.12694213 33.89883965 -1.09765625 29.76953125 C-1.09443359 28.96708984 -1.09121094 28.16464844 -1.08789062 27.33789062 C-1.07951172 26.50451172 -1.07113281 25.67113281 -1.0625 24.8125 C-1.05798828 23.96751953 -1.05347656 23.12253906 -1.04882812 22.25195312 C-1.03705403 20.16793845 -1.0191189 18.08396023 -1 16 C-2.32 16 -3.64 16 -5 16 C-5 13.69 -5 11.38 -5 9 C-3.35 9 -1.7 9 0 9 C0 6.03 0 3.06 0 0 Z " fill="#EFEFEF" transform="translate(209,238)"/>
<path d="M0 0 C2.31049784 1.11156304 3.97849628 2.38279702 6 4 C5.6875 5.875 5.6875 5.875 5 8 C4.01 8.66 3.02 9.32 2 10 C1.01 9.34 0.02 8.68 -1 8 C-3.5 7.5 -3.5 7.5 -6 8 C-8.7871033 10.92045753 -9.41152724 13.00635556 -9.375 17 C-9.38273437 17.845625 -9.39046875 18.69125 -9.3984375 19.5625 C-8.9291142 22.43365432 -7.89489101 23.83441027 -6 26 C-4.39125 25.7525 -4.39125 25.7525 -2.75 25.5 C1 25 1 25 5 25 C7 27 7 27 7 30 C2.35377401 33.16338791 -1.10819437 34.73614193 -6.7890625 34.4453125 C-10.68104884 33.66141419 -13.30461926 31.87069006 -16 29 C-19.50522732 23.34640755 -19.89126461 17.55574635 -19 11 C-15.10080379 3.0571929 -8.8792191 -1.26611087 0 0 Z " fill="#F0F0F0" transform="translate(389,246)"/>
<path d="M0 0 C2.97 0 5.94 0 9 0 C9 2.97 9 5.94 9 9 C10.98 9 12.96 9 15 9 C15 10.98 15 12.96 15 15 C13.02 15.33 11.04 15.66 9 16 C9 21.61 9 27.22 9 33 C10.98 33.66 12.96 34.32 15 35 C15.38133299 36.9914056 15.71325582 38.99279077 16 41 C14.44049449 42.55950551 12.91122869 42.28196698 10.75 42.375 C6.89523915 42.35044738 6.18839823 42.1491486 3 39.625 C0.38710175 36.19557104 -0.12438966 34.65356564 -0.09765625 30.4296875 C-0.09282227 29.08583984 -0.09282227 29.08583984 -0.08789062 27.71484375 C-0.07951172 26.77769531 -0.07113281 25.84054687 -0.0625 24.875 C-0.05798828 23.93011719 -0.05347656 22.98523438 -0.04882812 22.01171875 C-0.03702357 19.67441613 -0.02055759 17.33723939 0 15 C-1.32 15 -2.64 15 -4 15 C-4 13.02 -4 11.04 -4 9 C-2.68 9 -1.36 9 0 9 C0 6.03 0 3.06 0 0 Z " fill="#F3F2F3" transform="translate(353,238)"/>
<path d="M0 0 C20.27492362 7.87197938 32.89502095 27.98299522 41.3515625 47.046875 C43.6855245 52.99092211 44.72353786 58.62754767 45 65 C42.69560454 62.69560454 41.85063485 60.6518294 40.5 57.6875 C30.50690975 37.40955043 11.76485785 20.77532076 -9 12 C-6.04893565 10.74651393 -5.02593537 10.98955194 -1.984375 12.21484375 C-0.91703125 12.78332031 0.1503125 13.35179687 1.25 13.9375 C2.32765625 14.50339844 3.4053125 15.06929687 4.515625 15.65234375 C5.33546875 16.09707031 6.1553125 16.54179687 7 17 C7 17.66 7 18.32 7 19 C8.65 18.67 10.3 18.34 12 18 C12.33 19.65 12.66 21.3 13 23 C13.66 23 14.32 23 15 23 C16.37310707 24.29233607 17.71034824 25.62437146 19 27 C21.7839183 25.60804085 21.97898997 23.84424221 23 21 C20.25449776 17.13595981 18.33322337 15.71048291 14 14 C13.70609375 13.37480469 13.4121875 12.74960938 13.109375 12.10546875 C11.74422347 9.51456497 10.41047432 8.78359685 7.875 7.375 C5.6796875 6.1484375 5.6796875 6.1484375 4 5 C4 4.34 4 3.68 4 3 C2.68 2.67 1.36 2.34 0 2 C0 1.34 0 0.68 0 0 Z " fill="#8C2189" transform="translate(316,160)"/>
<path d="M0 0 C1.32 0 2.64 0 4 0 C0.9706797 26.98532451 -18.32828181 48.00681052 -37 66 C-37.33 65.01 -37.66 64.02 -38 63 C-38.99 62.67 -39.98 62.34 -41 62 C-40.38253906 61.40574219 -39.76507813 60.81148438 -39.12890625 60.19921875 C-23.74388936 45.14204088 -12.61871677 28.63267116 -4 9 C-3.54367187 7.98550781 -3.08734375 6.97101563 -2.6171875 5.92578125 C-1.73274455 3.9558856 -0.86361411 1.97911568 0 0 Z " fill="#973270" transform="translate(368,290)"/>
<path d="M0 0 C1.22589844 0.01353516 1.22589844 0.01353516 2.4765625 0.02734375 C3.10304688 0.03894531 3.72953125 0.05054688 4.375 0.0625 C1.06567447 2.26871702 -2.28520496 3.43889587 -6 4.75 C-26.31452321 12.19789509 -43.12881888 25.25243592 -58.96875 39.75 C-60.625 41.0625 -60.625 41.0625 -63.625 42.0625 C-63.21750527 36.31328091 -60.89186635 33.04582186 -57.5 28.625 C-56.74686523 27.62605713 -56.74686523 27.62605713 -55.97851562 26.60693359 C-48.68334117 17.06077063 -39.41671519 7.58726887 -28.625 2.0625 C-27.965 2.3925 -27.305 2.7225 -26.625 3.0625 C-32.59083144 10.72992597 -32.59083144 10.72992597 -37.625 12.0625 C-37.625 12.7225 -37.625 13.3825 -37.625 14.0625 C-38.95833333 15.39583333 -40.29166667 16.72916667 -41.625 18.0625 C-41.625 18.7225 -41.625 19.3825 -41.625 20.0625 C-40.965 20.0625 -40.305 20.0625 -39.625 20.0625 C-39.625 19.0725 -39.625 18.0825 -39.625 17.0625 C-38.305 17.3925 -36.985 17.7225 -35.625 18.0625 C-35.625 17.4025 -35.625 16.7425 -35.625 16.0625 C-34.635 16.0625 -33.645 16.0625 -32.625 16.0625 C-32.625 15.4025 -32.625 14.7425 -32.625 14.0625 C-31.820625 13.77375 -31.01625 13.485 -30.1875 13.1875 C-27.4923532 12.32987432 -27.4923532 12.32987432 -26.625 10.0625 C-23.72240189 8.6875851 -21.86361295 8.0625 -18.625 8.0625 C-18.625 7.4025 -18.625 6.7425 -18.625 6.0625 C-17.305 6.0625 -15.985 6.0625 -14.625 6.0625 C-14.625 5.4025 -14.625 4.7425 -14.625 4.0625 C-11.985 3.7325 -9.345 3.4025 -6.625 3.0625 C-6.625 2.4025 -6.625 1.7425 -6.625 1.0625 C-4.21954362 -0.14022819 -2.67503047 -0.03821472 0 0 Z " fill="#F06E10" transform="translate(230.625,144.9375)"/>
<path d="M0 0 C-1.175625 0.37125 -2.35125 0.7425 -3.5625 1.125 C-18.80270851 6.24513314 -33.75498559 12.41634037 -45.1328125 24.2109375 C-47 26 -47 26 -49 26 C-49.24621094 26.56847656 -49.49242187 27.13695312 -49.74609375 27.72265625 C-51.20951181 30.38051522 -52.96573476 32.24458679 -55.0625 34.4375 C-60.37222265 40.20406567 -64.68007218 46.48436419 -69 53 C-69.33 52.34 -69.66 51.68 -70 51 C-68.79149247 47.92379901 -67.47778215 44.9555643 -66 42 C-65.34 42 -64.68 42 -64 42 C-63.71125 41.4225 -63.4225 40.845 -63.125 40.25 C-62.08333333 38.16666667 -61.04166667 36.08333333 -60 34 C-63.09490025 33.67001367 -63.09490025 33.67001367 -65.12109375 35.86328125 C-66.26771484 37.07564453 -66.26771484 37.07564453 -67.4375 38.3125 C-70.15290978 41.16574783 -72.77516778 43.73012948 -76 46 C-76.66 45.67 -77.32 45.34 -78 45 C-59.41727337 23.93957649 -38.43786253 8.7635347 -11.1875 1 C-10.41615723 0.77981201 -9.64481445 0.55962402 -8.85009766 0.33276367 C-3.38237308 -1.12745769 -3.38237308 -1.12745769 0 0 Z " fill="#FAC00C" transform="translate(236,127)"/>
<path d="M0 0 C2.31 0 4.62 0 7 0 C7.5878125 1.794375 7.5878125 1.794375 8.1875 3.625 C8.46980469 4.45773437 8.75210938 5.29046875 9.04296875 6.1484375 C9.69254509 8.08390986 10.31945499 10.02710844 10.92578125 11.9765625 C17.15086602 30.94609356 26.80708494 47.00466613 41 61 C40.505 61.99 40.505 61.99 40 63 C32.12659625 57.03975978 25.92970747 50.91757131 20 43 C19.39542969 42.20980469 18.79085937 41.41960937 18.16796875 40.60546875 C10.31621212 29.91786322 0 13.86273342 0 0 Z " fill="#E2A428" transform="translate(133,289)"/>
<path d="M0 0 C0 7.32380855 -8.9572699 15.77988743 -14 21 C-16.59989712 23.4149672 -19.29475421 25.70463994 -22 28 C-22.9590625 28.86625 -22.9590625 28.86625 -23.9375 29.75 C-37.5 42 -37.5 42 -42 42 C-42 41.01 -42 40.02 -42 39 C-40.68 39 -39.36 39 -38 39 C-38 38.34 -38 37.68 -38 37 C-37.34 37 -36.68 37 -36 37 C-36 36.34 -36 35.68 -36 35 C-35.34 35 -34.68 35 -34 35 C-33.67 33.68 -33.34 32.36 -33 31 C-33.969375 31.4125 -34.93875 31.825 -35.9375 32.25 C-36.58847656 32.52457031 -37.23945313 32.79914063 -37.91015625 33.08203125 C-39.24657129 33.66905468 -40.5693627 34.28884162 -41.87109375 34.94921875 C-48.40214729 38.17018667 -55.23647815 39.61174652 -62.3046875 41.16796875 C-65.91526647 41.91613483 -65.91526647 41.91613483 -69 43 C-71.06498892 43.08315752 -73.1325789 43.10735878 -75.19921875 43.09765625 C-76.40771484 43.09443359 -77.61621094 43.09121094 -78.86132812 43.08789062 C-80.7552832 43.07532227 -80.7552832 43.07532227 -82.6875 43.0625 C-84.59885742 43.05573242 -84.59885742 43.05573242 -86.54882812 43.04882812 C-89.69926564 43.03702873 -92.84960949 43.02056597 -96 43 C-96 42.67 -96 42.34 -96 42 C-95.43829102 41.99589111 -94.87658203 41.99178223 -94.29785156 41.98754883 C-56.22579868 41.50489096 -26.60959055 26.85149592 0 0 Z " fill="#F2601A" transform="translate(338,304)"/>
<path d="M0 0 C6.02734599 3.88428964 8.95586512 6.51658807 12.0625 13 C13.58762428 16.16667026 15.04832928 19.07249392 17 22 C17.52734375 23.91015625 17.52734375 23.91015625 17.9375 26.0625 C18.98203878 31.14313664 20.45090072 36.05320964 22 41 C20.02 41 18.04 41 16 41 C15.67 38.03 15.34 35.06 15 32 C14.01 32 13.02 32 12 32 C12 34.97 12 37.94 12 41 C11.34 40.67 10.68 40.34 10 40 C9.76171875 38.171875 9.76171875 38.171875 9.6875 35.75 C8.63068787 23.31484393 1.64615616 11.91403386 -4 1 C-3.01 1.33 -2.02 1.66 -1 2 C-0.67 1.34 -0.34 0.68 0 0 Z " fill="#170116" transform="translate(350,185)"/>
<path d="M0 0 C-1.98 2.97 -1.98 2.97 -4 6 C-3.33991943 5.9592334 -2.67983887 5.9184668 -1.99975586 5.87646484 C1.02040668 5.69695488 4.04128792 5.53583888 7.0625 5.375 C8.62000977 5.27832031 8.62000977 5.27832031 10.20898438 5.1796875 C15.96634078 4.88725035 20.57644249 4.98443678 26 7 C26 7.33 26 7.66 26 8 C25.14470703 8.01458252 24.28941406 8.02916504 23.40820312 8.04418945 C1.01253278 8.27651043 1.01253278 8.27651043 -21 12 C-21.6909375 12.17499023 -22.381875 12.34998047 -23.09375 12.53027344 C-27.41316116 13.627481 -31.71163218 14.78619474 -36 16 C-36 15.34 -36 14.68 -36 14 C-33.5 12.375 -33.5 12.375 -31 11 C-31.66 10.67 -32.32 10.34 -33 10 C-33 9.34 -33 8.68 -33 8 C-35.31 8.33 -37.62 8.66 -40 9 C-37.14978125 6.67759954 -34.53644909 5.06093473 -31 4 C-28.6875 4.375 -28.6875 4.375 -27 5 C-27.99 5.99 -28.98 6.98 -30 8 C-28.865625 7.51789063 -27.73125 7.03578125 -26.5625 6.5390625 C-25.04179285 5.90074098 -23.52095234 5.26273709 -22 4.625 C-21.25621094 4.30789062 -20.51242188 3.99078125 -19.74609375 3.6640625 C-6.27187267 -1.95996021 -6.27187267 -1.95996021 0 0 Z " fill="#EA303C" transform="translate(253,153)"/>
<path d="M0 0 C3.9374352 -0.05893685 7.87475427 -0.09390669 11.8125 -0.125 C13.46282227 -0.15013672 13.46282227 -0.15013672 15.14648438 -0.17578125 C22.32536862 -0.21813455 28.99126695 0.43741455 36 2 C36 3.32 36 4.64 36 6 C36.52319824 6.18062988 37.04639648 6.36125977 37.58544922 6.54736328 C52.36448569 11.69482527 63.56107992 17.04784247 75 28 C71.55482629 28 71.21945547 27.61089858 68.6875 25.5 C65.00758498 22.64010288 61.15848802 20.19891931 57.125 17.875 C56.01382813 17.23304688 54.90265625 16.59109375 53.7578125 15.9296875 C44.42120818 10.98781754 35.28782627 8.89249938 24.875 7.25 C23.52326584 7.02838828 22.17170141 6.80573869 20.8203125 6.58203125 C17.5483904 6.04450119 14.27514995 5.51743153 11 5 C11 4.01 11 3.02 11 2 C7.37 1.67 3.74 1.34 0 1 C0 0.67 0 0.34 0 0 Z " fill="#290309" transform="translate(248,161)"/>
<path d="M0 0 C0 0.66 0 1.32 0 2 C1.32 2.33 2.64 2.66 4 3 C0.375 6 0.375 6 -3 6 C-3.33 6.99 -3.66 7.98 -4 9 C-6.56812539 10.45409839 -9.08480671 11.75186371 -11.75 13 C-13.1831754 13.68565586 -14.61548788 14.3731187 -16.046875 15.0625 C-16.72919189 15.38822998 -17.41150879 15.71395996 -18.11450195 16.04956055 C-20.19930388 17.06491315 -20.19930388 17.06491315 -22.83984375 18.76953125 C-25 20 -25 20 -27.8125 19.6875 C-28.534375 19.460625 -29.25625 19.23375 -30 19 C-29.8984375 17.296875 -29.8984375 17.296875 -29 15 C-26.89770275 13.25098135 -24.89089448 11.74920174 -22.625 10.25 C-21.73941406 9.63318359 -21.73941406 9.63318359 -20.8359375 9.00390625 C-16.40492629 6 -16.40492629 6 -13 6 C-13 5.01 -13 4.02 -13 3 C-8.86395936 0.24263957 -4.91089275 0 0 0 Z " fill="#F65717" transform="translate(220,161)"/>
<path d="M0 0 C6.35998855 0.50879908 11.4785933 2.08831344 17.3125 4.625 C18.14845703 4.98400391 18.98441406 5.34300781 19.84570312 5.71289062 C26.32965612 8.56502511 32.24423661 11.8554923 38 16 C39.02480469 16.73089844 40.04960937 17.46179688 41.10546875 18.21484375 C43.75225846 20.12361859 46.38276434 22.05099472 49 24 C46 25 46 25 44.125 24.375 C42 23 42 23 39.5 20.4375 C37.13972998 18.13623673 36.18403225 17.35378136 33 17 C32.67 17.66 32.34 18.32 32 19 C33.32 19.66 34.64 20.32 36 21 C36 21.99 36 22.98 36 24 C35.28457031 23.34773438 34.56914062 22.69546875 33.83203125 22.0234375 C22.92293013 12.34684611 10.66291776 7.62941441 -3 3 C-2.01 2.67 -1.02 2.34 0 2 C0 1.34 0 0.68 0 0 Z " fill="#20020E" transform="translate(285,164)"/>
<path d="M0 0 C0.495 0.99 0.495 0.99 1 2 C-0.25 5.5625 -0.25 5.5625 -2 9 C-2.99 9.33 -3.98 9.66 -5 10 C-4.74992187 11.05445313 -4.49984375 12.10890625 -4.2421875 13.1953125 C-4 17 -4 17 -5.6328125 19.5546875 C-11.51046938 25.02698874 -17.50725027 29.68473766 -24.21484375 34.08984375 C-26.89966551 35.79009566 -26.89966551 35.79009566 -28.44580078 37.5168457 C-31.1236558 40.0722917 -34.51112972 40.98620004 -37.9375 42.25 C-38.65357422 42.53101563 -39.36964844 42.81203125 -40.10742188 43.1015625 C-43.85657408 44.50532292 -46.18411833 45.23198616 -50 44 C-49.24976563 43.72027344 -48.49953125 43.44054687 -47.7265625 43.15234375 C-37.48796616 39.14201194 -29.51273168 33.33775599 -21.0078125 26.48046875 C-19 25 -19 25 -16.80078125 23.9140625 C-14.41334949 22.70222078 -14.15895585 21.38608557 -13 19 C-12.175 18.195625 -11.35 17.39125 -10.5 16.5625 C-7.93904754 13.93752373 -7.31196757 12.33417321 -6 9 C-4.99958424 7.36978883 -3.95760047 5.76433112 -2.875 4.1875 C-2.33617187 3.39730469 -1.79734375 2.60710937 -1.2421875 1.79296875 C-0.83226562 1.20128906 -0.42234375 0.60960937 0 0 Z " fill="#350304" transform="translate(341,326)"/>
<path d="M0 0 C0.66 0 1.32 0 2 0 C2 0.66 2 1.32 2 2 C2.84111328 2.39638672 2.84111328 2.39638672 3.69921875 2.80078125 C6.20249701 4.10554598 8.46877682 5.61421731 10.8125 7.1875 C25.07536038 16.29145343 40.28097851 21.40684565 57 24 C57 24.33 57 24.66 57 25 C54.36 25 51.72 25 49 25 C49.495 26.485 49.495 26.485 50 28 C44.52133992 27.43496848 39.94235215 26.0659742 34.875 23.9375 C34.13507813 23.62876953 33.39515625 23.32003906 32.6328125 23.00195312 C22.86091223 18.7983512 14.11023466 13.21957947 5.90234375 6.4453125 C4.01251217 5.00950617 2.15260121 3.98760768 0 3 C0 2.01 0 1.02 0 0 Z " fill="#D67D2E" transform="translate(174,352)"/>
<path d="M0 0 C3.2146021 -0.72164537 5.81047121 -0.91202181 9 0 C11.96470289 3.30403636 13.86810248 7.12705284 16 11 C17.11428894 12.58514997 18.2569171 14.1510872 19.4375 15.6875 C19.93121094 16.33074219 20.42492187 16.97398437 20.93359375 17.63671875 C21.28550781 18.08660156 21.63742188 18.53648437 22 19 C21.67 19.66 21.34 20.32 21 21 C20.236875 20.21625 19.47375 19.4325 18.6875 18.625 C16.09108195 15.92742283 16.09108195 15.92742283 13 14 C12.0078125 11.90625 12.0078125 11.90625 11.125 9.5 C9.60300916 5.72464671 9.60300916 5.72464671 6.25 3.4375 C5.5075 3.293125 4.765 3.14875 4 3 C3.50565686 8.10821244 5.28648278 12.28278789 7 17 C7.8757908 19.43721598 8.75074831 21.87473151 9.625 24.3125 C10.05039063 25.48425781 10.47578125 26.65601563 10.9140625 27.86328125 C11.73812715 30.2435831 12.45462412 32.54580854 13 35 C13.66 35 14.32 35 15 35 C16.6875 37.3125 16.6875 37.3125 18 40 C17.67 40.99 17.34 41.98 17 43 C8.77193792 30.85265391 -0.73878079 15.2302501 0 0 Z " fill="#ED6617" transform="translate(150,289)"/>
<path d="M0 0 C-1.19882813 0.52787109 -1.19882813 0.52787109 -2.421875 1.06640625 C-13.49572817 6.04444119 -23.6452613 11.49137168 -32.94140625 19.3984375 C-35 21 -35 21 -38 22 C-38 21.01 -38 20.02 -38 19 C-38.78375 19.515625 -39.5675 20.03125 -40.375 20.5625 C-41.24125 21.036875 -42.1075 21.51125 -43 22 C-43.66 21.67 -44.32 21.34 -45 21 C-37.84929737 14.22764142 -30.06917707 8.60136331 -22 3 C-21.34 3.33 -20.68 3.66 -20 4 C-20.99 5.32 -21.98 6.64 -23 8 C-20.06898293 6.96552339 -17.76033766 5.83489928 -15.1875 4.0625 C-10.35204536 0.93367641 -5.75081217 -1.87859864 0 0 Z " fill="#210500" transform="translate(222,158)"/>
<path d="M0 0 C0 0.99 0 1.98 0 3 C-2.71175337 5.42583539 -5.5927451 7.55467733 -8.49609375 9.74609375 C-11.11593881 11.67868815 -11.11593881 11.67868815 -11.4765625 13.953125 C-12.34960052 17.36709458 -15.33052795 19.12417116 -17.9375 21.3125 C-23.02078532 25.77193079 -27.09021635 30.41421083 -30.8125 36.0625 C-31.23845459 36.70550049 -31.66440918 37.34850098 -32.10327148 38.01098633 C-34.460512 41.71020727 -34.460512 41.71020727 -35 46 C-34.34 46.33 -33.68 46.66 -33 47 C-34.28716647 48.00578589 -35.57988658 49.00446798 -36.875 50 C-37.59429687 50.556875 -38.31359375 51.11375 -39.0546875 51.6875 C-41 53 -41 53 -43 53 C-34.68827556 31.53439973 -18.4192652 13.37356223 0 0 Z " fill="#270A00" transform="translate(203,140)"/>
<path d="M0 0 C0.33 1.32 0.66 2.64 1 4 C0.34 4 -0.32 4 -1 4 C-1.2475 4.804375 -1.495 5.60875 -1.75 6.4375 C-2.7114858 9.17773452 -3.74431978 11.73720311 -4.9375 14.375 C-5.28296875 15.15101563 -5.6284375 15.92703125 -5.984375 16.7265625 C-6.60799709 18.12251656 -7.24126235 19.51426974 -7.890625 20.8984375 C-10.53724431 27.04793531 -10.70712194 33.37489621 -11 40 C-9.02 40 -7.04 40 -5 40 C-4.70996094 39.02160156 -4.70996094 39.02160156 -4.4140625 38.0234375 C-3.01359552 33.3228602 -1.58791274 28.64159109 0 24 C0.66 24 1.32 24 2 24 C0.75738593 30.18383236 -0.92029041 36.044468 -3 42 C-6.96 42 -10.92 42 -15 42 C-14.51459106 26.70961826 -7.47062126 13.02618478 0 0 Z " fill="#D1822E" transform="translate(150,184)"/>
<path d="M0 0 C1.32 0 2.64 0 4 0 C3.42258722 5.34976416 2.13642882 9.93385013 0.1875 14.9375 C-0.07949707 15.63681641 -0.34649414 16.33613281 -0.62158203 17.05664062 C-2.48257276 21.85963053 -4.54461029 26.46697285 -7 31 C-8.09658936 27.71023192 -7.79953138 26.28696233 -7 23 C-7.66 23 -8.32 23 -9 23 C-8.29385121 18.09618898 -6.40371082 13.783737 -4.5 9.25 C-4.17902344 8.47011719 -3.85804688 7.69023437 -3.52734375 6.88671875 C-1.13778832 1.13778832 -1.13778832 1.13778832 0 0 Z " fill="#801E82" transform="translate(368,290)"/>
<path d="M0 0 C3.60378502 3.20962103 5.79972421 6.82799689 8 11.0625 C8.34812744 11.72789795 8.69625488 12.3932959 9.05493164 13.07885742 C13.57643094 21.8836595 16.56765815 30.03452036 17 40 C14.69560454 37.69560454 13.85063485 35.6518294 12.5 32.6875 C8.92764171 25.35616768 4.12800975 19.28333211 -1 13 C-0.01 13 0.98 13 2 13 C6 17.34285714 6 17.34285714 6 20 C6.66 20 7.32 20 8 20 C7.03223902 16.20452079 7.03223902 16.20452079 5 13 C4.95936168 11.33382885 4.957279 9.66611905 5 8 C4.34 8 3.68 8 3 8 C0 2.25 0 2.25 0 0 Z " fill="#76277A" transform="translate(344,185)"/>
<path d="M0 0 C0.721875 0.144375 1.44375 0.28875 2.1875 0.4375 C3.5796875 0.7159375 3.5796875 0.7159375 5 1 C6.66666667 1.33333333 8.33333333 1.66666667 10 2 C10 2.66 10 3.32 10 4 C14.46455529 4.91943317 18.94834497 5.71215524 23.4375 6.5 C24.54448242 6.69529297 24.54448242 6.69529297 25.67382812 6.89453125 C27.78213549 7.26559335 29.89044997 7.63606272 32 8 C32.94576904 8.17781006 33.89153809 8.35562012 34.8659668 8.53881836 C38.05423176 9.00798035 41.0526839 9.11360057 44.2734375 9.09765625 C45.42714844 9.09443359 46.58085937 9.09121094 47.76953125 9.08789062 C49.55423828 9.07532227 49.55423828 9.07532227 51.375 9.0625 C52.58800781 9.05798828 53.80101562 9.05347656 55.05078125 9.04882812 C58.03390507 9.03708354 61.01692679 9.0206584 64 9 C64 9.33 64 9.66 64 10 C47.95758144 14.51444944 30.32234905 12.37470467 14.625 7.625 C13.97063965 7.42817627 13.3162793 7.23135254 12.64208984 7.02856445 C8.00762934 5.54182763 4.13359073 3.51006155 0 1 C0 0.67 0 0.34 0 0 Z " fill="#E09E27" transform="translate(192,353)"/>
<path d="M0 0 C0 0.66 0 1.32 0 2 C-2.72770166 2.98341615 -5.45702105 3.96185053 -8.1875 4.9375 C-8.95642578 5.21529297 -9.72535156 5.49308594 -10.51757812 5.77929688 C-14.32335366 7.13500232 -17.9932364 8.36566268 -22 9 C-22.33 9.99 -22.66 10.98 -23 12 C-21.96875 11.67 -20.9375 11.34 -19.875 11 C-16.51573291 10.0284808 -13.50893798 9.82883229 -10 10 C-12.80670093 11.50398914 -15.46544207 12.49788378 -18.546875 13.2890625 C-19.39121094 13.50820312 -20.23554688 13.72734375 -21.10546875 13.953125 C-21.97816406 14.17484375 -22.85085937 14.3965625 -23.75 14.625 C-24.63816406 14.85445312 -25.52632812 15.08390625 -26.44140625 15.3203125 C-28.62660301 15.88423424 -30.81278147 16.44398135 -33 17 C-33 16.34 -33 15.68 -33 15 C-30.5 13.375 -30.5 13.375 -28 12 C-28.66 11.67 -29.32 11.34 -30 11 C-30 10.34 -30 9.68 -30 9 C-32.31 9.33 -34.62 9.66 -37 10 C-34.14978125 7.67759954 -31.53644909 6.06093473 -28 5 C-25.6875 5.375 -25.6875 5.375 -24 6 C-24.99 6.99 -25.98 7.98 -27 9 C-25.865625 8.51789063 -24.73125 8.03578125 -23.5625 7.5390625 C-22.04179285 6.90074098 -20.52095234 6.26273709 -19 5.625 C-18.25621094 5.30789062 -17.51242188 4.99078125 -16.74609375 4.6640625 C-5.57177734 0 -5.57177734 0 0 0 Z " fill="#CF4734" transform="translate(250,152)"/>
<path d="M0 0 C0 4.21613508 -1.7913819 5.58570919 -4.5625 8.625 C-14.58227882 18.38786142 -27.29910725 28.55334237 -41 32 C-41.99 31.01 -42.98 30.02 -44 29 C-43.17757813 28.70867187 -42.35515625 28.41734375 -41.5078125 28.1171875 C-25.07380157 22.0825276 -12.27954668 12.27954668 0 0 Z " fill="#C8433B" transform="translate(333,338)"/>
<path d="M0 0 C4.34298544 3.90638902 6.91230398 7.9471371 9.5625 13.125 C9.95236084 13.87402588 10.34222168 14.62305176 10.74389648 15.39477539 C18 29.58540338 18 29.58540338 18 35 C16.02 35 14.04 35 12 35 C11.79246094 34.1028125 11.58492188 33.205625 11.37109375 32.28125 C9.20662681 23.51470608 6.27473594 15.55562166 2.48828125 7.36328125 C1.37405241 4.84529953 0.50932427 2.68244116 0 0 Z " fill="#793179" transform="translate(354,191)"/>
<path d="M0 0 C-1.175625 0.37125 -2.35125 0.7425 -3.5625 1.125 C-14.3383712 4.74528481 -24.41020384 8.83760391 -34 15 C-36.32055482 16.35714758 -38.65962674 17.67718033 -41 19 C-41 18.01 -41 17.02 -41 16 C-42.32 16.33 -43.64 16.66 -45 17 C-41.72949679 13.25514899 -38.00404186 11.19644945 -33.5625 9.125 C-32.83401855 8.783479 -32.10553711 8.44195801 -31.35498047 8.09008789 C-25.2612445 5.34873761 -19.04088701 3.28677529 -12.625 1.4375 C-11.71564697 1.17404785 -10.80629395 0.9105957 -9.86938477 0.63916016 C-3.39423644 -1.13141215 -3.39423644 -1.13141215 0 0 Z " fill="#E4C434" transform="translate(236,127)"/>
<path d="M0 0 C0.99 0.495 0.99 0.495 2 1 C-0.12700046 4.1905007 -1.03015935 4.73750222 -4.375 6.3125 C-7.20525956 7.65293677 -9.99168894 8.99538671 -12.73046875 10.515625 C-20.08815904 14.53444618 -27.2751983 16.52917734 -35.41015625 18.23828125 C-38.93532656 18.91598313 -38.93532656 18.91598313 -42 20 C-44.06498892 20.08315752 -46.1325789 20.10735878 -48.19921875 20.09765625 C-49.40771484 20.09443359 -50.61621094 20.09121094 -51.86132812 20.08789062 C-53.7552832 20.07532227 -53.7552832 20.07532227 -55.6875 20.0625 C-57.59885742 20.05573242 -57.59885742 20.05573242 -59.54882812 20.04882812 C-62.69926564 20.03702873 -65.84960949 20.02056597 -69 20 C-69 19.67 -69 19.34 -69 19 C-68.43829102 18.99589111 -67.87658203 18.99178223 -67.29785156 18.98754883 C-46.85721075 18.72841292 -15.50786812 15.50786812 0 0 Z " fill="#CA6E24" transform="translate(311,327)"/>
<path d="M0 0 C12.46083639 0.76290835 24.16915601 6.13077169 35 12 C32.09450361 13.45274819 30.24690449 12.21877127 27.28393555 11.30932617 C9.9770938 6.20848516 -8.15266301 7.55115805 -26 8 C-22.19358759 5.46239173 -19.03139645 5.65022525 -14.61328125 5.5859375 C-13.38776802 5.55688828 -13.38776802 5.55688828 -12.13749695 5.5272522 C-9.52927066 5.46749648 -6.92100014 5.42108742 -4.3125 5.375 C-2.5436006 5.3368165 -0.77471972 5.29776454 0.99414062 5.2578125 C5.32927659 5.16179832 9.6644996 5.07775265 14 5 C9.38 3.68 4.76 2.36 0 1 C0 0.67 0 0.34 0 0 Z " fill="#D6AD37" transform="translate(278,133)"/>
<path d="M0 0 C21.05621451 -0.83852182 42.86821105 6.86653715 58.625 20.875 C60.09102989 22.24179094 61.55225236 23.61385864 63 25 C59.55482629 25 59.21945547 24.61089858 56.6875 22.5 C39.57928348 9.2870969 21.03048884 4.23948625 0 1 C0 0.67 0 0.34 0 0 Z " fill="#7B3E53" transform="translate(260,164)"/>
<path d="M0 0 C1.22589844 0.01353516 1.22589844 0.01353516 2.4765625 0.02734375 C3.10304687 0.03894531 3.72953125 0.05054688 4.375 0.0625 C1.06567447 2.26871702 -2.28520496 3.43889587 -6 4.75 C-17.37034967 8.91870092 -27.34654958 14.55236341 -37.04541016 21.77441406 C-39.57528865 23.6540043 -41.61049513 25.05766504 -44.625 26.0625 C-44.625 25.4025 -44.625 24.7425 -44.625 24.0625 C-43.965 24.0625 -43.305 24.0625 -42.625 24.0625 C-42.625 23.4025 -42.625 22.7425 -42.625 22.0625 C-41.985625 21.77375 -41.34625 21.485 -40.6875 21.1875 C-38.47293921 20.23426549 -38.47293921 20.23426549 -37.625 18.0625 C-36.965 18.0625 -36.305 18.0625 -35.625 18.0625 C-35.625 17.4025 -35.625 16.7425 -35.625 16.0625 C-34.635 16.0625 -33.645 16.0625 -32.625 16.0625 C-32.625 15.4025 -32.625 14.7425 -32.625 14.0625 C-31.820625 13.77375 -31.01625 13.485 -30.1875 13.1875 C-27.4923532 12.32987432 -27.4923532 12.32987432 -26.625 10.0625 C-23.72240189 8.6875851 -21.86361295 8.0625 -18.625 8.0625 C-18.625 7.4025 -18.625 6.7425 -18.625 6.0625 C-17.305 6.0625 -15.985 6.0625 -14.625 6.0625 C-14.625 5.4025 -14.625 4.7425 -14.625 4.0625 C-11.985 3.7325 -9.345 3.4025 -6.625 3.0625 C-6.625 2.4025 -6.625 1.7425 -6.625 1.0625 C-4.21954362 -0.14022819 -2.67503047 -0.03821472 0 0 Z " fill="#E78722" transform="translate(230.625,144.9375)"/>
<path d="M0 0 C2.13884096 2.74547129 3.91800161 5.53282741 5.625 8.5625 C10.37144024 16.56398031 16.36677631 23.50666855 23 30 C22.67 30.66 22.34 31.32 22 32 C12.26183854 24.62812076 4.47234176 16.41202805 -2 6 C-1.34 6 -0.68 6 0 6 C0 4.02 0 2.04 0 0 Z " fill="#E49D24" transform="translate(151,320)"/>
<path d="M0 0 C0.928125 0.825 1.85625 1.65 2.8125 2.5 C17.87465459 15.3757128 34.47658507 24.9236826 54 29 C50.13471694 30.28842769 47.37488564 29.3685308 43.5625 28.375 C42.84674805 28.18969727 42.13099609 28.00439453 41.39355469 27.81347656 C24.85024468 23.37286499 11.15633364 15.0450043 0 2 C0 1.34 0 0.68 0 0 Z " fill="#A3513C" transform="translate(183,306)"/>
<path d="M0 0 C-0.66 1.65 -1.32 3.3 -2 5 C-0.02 4.67 1.96 4.34 4 4 C0.70317866 6.19788089 -2.74174212 7.98624264 -6.25 9.8125 C-10.44788909 12.00812624 -14.47954249 14.16964898 -18.25 17.0625 C-19.1575 17.701875 -20.065 18.34125 -21 19 C-21.99 18.67 -22.98 18.34 -24 18 C-23.33613281 17.40832031 -22.67226562 16.81664062 -21.98828125 16.20703125 C-16.51804866 11.33547439 -16.51804866 11.33547439 -11.3125 6.1875 C-8.28451641 3.3231912 -4.33016466 0 0 0 Z " fill="#180900" transform="translate(214,135)"/>
<path d="M0 0 C0 0.33 0 0.66 0 1 C-0.98097656 1.21914062 -1.96195313 1.43828125 -2.97265625 1.6640625 C-16.64817567 4.82744496 -29.02509973 9.10546387 -40.60986328 17.19213867 C-42.03860831 18.18015432 -43.51572799 19.09754563 -45 20 C-45.66 19.67 -46.32 19.34 -47 19 C-34.84971743 7.1534745 -17.16935671 -1.42418627 0 0 Z " fill="#A64855" transform="translate(242,174)"/>
<path d="M0 0 C-1.21393433 -0.0314209 -1.21393433 -0.0314209 -2.45239258 -0.06347656 C-21.83303297 -0.66461615 -21.83303297 -0.66461615 -41 1.75 C-41.73839111 1.90694336 -42.47678223 2.06388672 -43.23754883 2.22558594 C-47.8654064 3.36036123 -51.08245289 5.38126231 -55 8 C-58.2109375 8.828125 -58.2109375 8.828125 -61.375 9.25 C-62.43460938 9.39953125 -63.49421875 9.5490625 -64.5859375 9.703125 C-65.38257813 9.80109375 -66.17921875 9.8990625 -67 10 C-53.17175699 -1.30508018 -15.47541599 -9.28154623 0 0 Z " fill="#D59E34" transform="translate(278,133)"/>
<path d="M0 0 C2.625 -0.1875 2.625 -0.1875 5 0 C4.69029106 5.38493928 1.64569893 7.82467404 -2.0625 11.3125 C-2.63033203 11.86228516 -3.19816406 12.41207031 -3.78320312 12.97851562 C-5.17990925 14.32827365 -6.58878837 15.66541525 -8 17 C-8.33 16.01 -8.66 15.02 -9 14 C-9.99 13.67 -10.98 13.34 -12 13 C-11.30132812 12.31292969 -10.60265625 11.62585938 -9.8828125 10.91796875 C-8.97273438 10.01691406 -8.06265625 9.11585938 -7.125 8.1875 C-6.22007812 7.29417969 -5.31515625 6.40085937 -4.3828125 5.48046875 C-1.90168486 3.04361667 -1.90168486 3.04361667 0 0 Z " fill="#BD365D" transform="translate(339,339)"/>
<path d="M0 0 C1.32 0 2.64 0 4 0 C4.21914062 0.78761719 4.43828125 1.57523437 4.6640625 2.38671875 C6.79918422 9.72077507 9.44528332 16.47089544 12.828125 23.3203125 C14 26 14 26 14 29 C13.01 28.67 12.02 28.34 11 28 C11 26.68 11 25.36 11 24 C10.01 23.67 9.02 23.34 8 23 C6.92504883 21.20581055 6.92504883 21.20581055 5.95703125 18.88671875 C5.43012695 17.6327832 5.43012695 17.6327832 4.89257812 16.35351562 C4.35793945 15.03383789 4.35793945 15.03383789 3.8125 13.6875 C3.44447266 12.81931641 3.07644531 11.95113281 2.69726562 11.05664062 C1.03160643 7.03000994 0 4.43583218 0 0 Z " fill="#FBA70A" transform="translate(135,291)"/>
<path d="M0 0 C8.25 0 16.5 0 25 0 C25 0.33 25 0.66 25 1 C24.08476562 1.19335938 23.16953125 1.38671875 22.2265625 1.5859375 C21.03804687 1.84632813 19.84953125 2.10671875 18.625 2.375 C17.44164062 2.63023437 16.25828125 2.88546875 15.0390625 3.1484375 C11.91803033 3.75523965 11.91803033 3.75523965 10 6 C6.9609375 6.4140625 6.9609375 6.4140625 3.375 6.625 C2.18648437 6.69976562 0.99796875 6.77453125 -0.2265625 6.8515625 C-1.59941406 6.92503906 -1.59941406 6.92503906 -3 7 C-0.14415227 5.09610151 1.9311762 4.30537823 5.1875 3.375 C6.08855469 3.11460937 6.98960937 2.85421875 7.91796875 2.5859375 C8.60503906 2.39257812 9.29210937 2.19921875 10 2 C3.7788571 2.47854945 -1.58619852 4.0705339 -7.4609375 6.16015625 C-10 7 -10 7 -12 7 C-12 6.34 -12 5.68 -12 5 C-10.02 4.67 -8.04 4.34 -6 4 C-6 3.34 -6 2.68 -6 2 C-4.02 2 -2.04 2 0 2 C0 1.34 0 0.68 0 0 Z " fill="#2B080A" transform="translate(226,173)"/>
<path d="M0 0 C0 7.39461794 -9.06834971 15.71608898 -14 21 C-14.66 21 -15.32 21 -16 21 C-16 20.34 -16 19.68 -16 19 C-17.3921875 20.0209375 -17.3921875 20.0209375 -18.8125 21.0625 C-19.864375 21.701875 -20.91625 22.34125 -22 23 C-22.99 22.67 -23.98 22.34 -25 22 C-24.46632813 21.59910156 -23.93265625 21.19820313 -23.3828125 20.78515625 C-15.05440074 14.43077981 -7.3094825 7.5018373 0 0 Z " fill="#D35E2E" transform="translate(338,304)"/>
<path d="M0 0 C0.99 0.99 1.98 1.98 3 3 C1.73706046 6.0999425 0.0275166 8.08364486 -2.375 10.37890625 C-5.32652124 13.32333248 -8.04715894 16.48285295 -10.81640625 19.59765625 C-12.81844535 21.80025741 -14.8765091 23.91503048 -17 26 C-15.59515358 20.85151257 -13.31393631 17.21769611 -10.1875 13 C-9.54844727 12.11441406 -9.54844727 12.11441406 -8.89648438 11.2109375 C-6.07883054 7.34039336 -3.09839017 3.64909148 0 0 Z " fill="#BF5828" transform="translate(175,189)"/>
<path d="M0 0 C0.33 0.66 0.66 1.32 1 2 C-0.25 5.5625 -0.25 5.5625 -2 9 C-2.99 9.33 -3.98 9.66 -5 10 C-4.649375 10.969375 -4.29875 11.93875 -3.9375 12.9375 C-3.63671875 14.84375 -3.63671875 14.84375 -4 17 C-6.58245528 20.47998238 -9.53348905 23.40011679 -13 26 C-13.99 26 -14.98 26 -16 26 C-14.84805914 21.1618484 -13.09510516 18.7445282 -9.4375 15.58984375 C-7.61383703 13.57291215 -6.97428177 11.53011158 -6 9 C-4.99958424 7.36978883 -3.95760047 5.76433112 -2.875 4.1875 C-2.33617187 3.39730469 -1.79734375 2.60710937 -1.2421875 1.79296875 C-0.83226562 1.20128906 -0.42234375 0.60960937 0 0 Z " fill="#210205" transform="translate(341,326)"/>
<path d="M0 0 C1.32 0 2.64 0 4 0 C4 1.32 4 2.64 4 4 C3.34 4 2.68 4 2 4 C1.773125 5.03125 1.54625 6.0625 1.3125 7.125 C0.13528144 11.34408258 -2.04838971 13.81536784 -5 17 C-5.33 16.01 -5.66 15.02 -6 14 C-8.01508358 13.26676204 -8.01508358 13.26676204 -10 13 C-9.36191406 12.22914063 -8.72382813 11.45828125 -8.06640625 10.6640625 C-6.82697266 9.15972656 -6.82697266 9.15972656 -5.5625 7.625 C-4.73878906 6.62726563 -3.91507812 5.62953125 -3.06640625 4.6015625 C-1.01584166 2.20344705 -1.01584166 2.20344705 0 0 Z " fill="#A6326E" transform="translate(350,325)"/>
<path d="M0 0 C-1.47515555 0.63440928 -2.95543332 1.25690827 -4.4375 1.875 C-5.26121094 2.22304688 -6.08492188 2.57109375 -6.93359375 2.9296875 C-15.94651162 6.07559769 -24.44751653 6.28314863 -33.87573242 6.20581055 C-36.1926569 6.18745915 -38.50918194 6.18530208 -40.82617188 6.18554688 C-42.31510759 6.18063342 -43.80404063 6.17480586 -45.29296875 6.16796875 C-45.97747604 6.16685593 -46.66198334 6.1657431 -47.36723328 6.16459656 C-51.34177395 6.12565789 -55.09894941 5.75827498 -59 5 C-59 4.67 -59 4.34 -59 4 C-58.15518066 4.01571045 -57.31036133 4.0314209 -56.43994141 4.04760742 C-31.25016944 4.9293959 -31.25016944 4.9293959 -6.78515625 -0.1640625 C-3.94221201 -1.0173445 -2.72280245 -1.04723171 0 0 Z " fill="#3A0A01" transform="translate(292,379)"/>
<path d="M0 0 C-2.52956528 3.0916909 -5.22454612 3.90931332 -9 5 C-9 5.66 -9 6.32 -9 7 C-11.39287704 7.8427743 -13.78871019 8.67437002 -16.1875 9.5 C-16.86103516 9.73847656 -17.53457031 9.97695313 -18.22851562 10.22265625 C-21.93204467 11.48727592 -25.07940536 12.30451221 -29 12 C-26.54278328 10.36185552 -24.65432189 9.38047801 -21.9375 8.375 C-21.24527344 8.11460937 -20.55304688 7.85421875 -19.83984375 7.5859375 C-18 7 -18 7 -16 7 C-16.66 5.68 -17.32 4.36 -18 3 C-13.545 2.505 -13.545 2.505 -9 2 C-9 1.67 -9 1.34 -9 1 C-2.25 -1.125 -2.25 -1.125 0 0 Z " fill="#F3561E" transform="translate(306,369)"/>
<path d="M0 0 C0.77734375 1.58984375 0.77734375 1.58984375 1 4 C-0.40037881 6.34176081 -1.79209435 8.408206 -3.4375 10.5625 C-6.90593705 14.80330602 -6.90593705 14.80330602 -8 20 C-7.34 20.33 -6.68 20.66 -6 21 C-7.28716647 22.00578589 -8.57988658 23.00446798 -9.875 24 C-10.59429687 24.556875 -11.31359375 25.11375 -12.0546875 25.6875 C-14 27 -14 27 -16 27 C-12.17368605 17.02297577 -6.4497044 8.46319079 0 0 Z " fill="#3F0E00" transform="translate(176,166)"/>
<path d="M0 0 C3.97996889 2.24954764 7.91190895 4.55277846 11.8125 6.9375 C23.14515578 13.69971439 34.93459636 18.67501521 48 21 C48 21.33 48 21.66 48 22 C40.60592786 21.618852 34.28974722 20.02412766 27.375 17.4375 C26.46621094 17.10814453 25.55742187 16.77878906 24.62109375 16.43945312 C22.41008785 15.63650888 20.203475 14.82333629 18 14 C18 13.34 18 12.68 18 12 C15.03 11.505 15.03 11.505 12 11 C12 10.34 12 9.68 12 9 C11.05125 8.87625 10.1025 8.7525 9.125 8.625 C6 8 6 8 4 6 C3.30251417 4.68252676 2.63040043 3.35085807 2 2 C1.34 2 0.68 2 0 2 C0 1.34 0 0.68 0 0 Z " fill="#DC8829" transform="translate(186,324)"/>
<path d="M0 0 C0.495 1.485 0.495 1.485 1 3 C-6 10 -6 10 -8.0625 10.5 C-8.701875 10.665 -9.34125 10.83 -10 11 C-10.33 11.66 -10.66 12.32 -11 13 C-11.99 13 -12.98 13 -14 13 C-14.33 13.99 -14.66 14.98 -15 16 C-17.31952745 17.45538977 -19.5789258 18.74481194 -22 20 C-23.5778125 20.8971875 -23.5778125 20.8971875 -25.1875 21.8125 C-28.26317754 23.11111941 -28.96467285 22.95544559 -32 22 C-31.2471875 21.63390625 -30.494375 21.2678125 -29.71875 20.890625 C-19.0235469 15.43918653 -8.39815901 8.66804313 0 0 Z " fill="#2A0400" transform="translate(317,330)"/>
<path d="M0 0 C0 0.66 0 1.32 0 2 C1.32 2.33 2.64 2.66 4 3 C0.375 6 0.375 6 -3 6 C-3.33 6.99 -3.66 7.98 -4 9 C-5.65 9.33 -7.3 9.66 -9 10 C-9 8.35 -9 6.7 -9 5 C-10.32 4.34 -11.64 3.68 -13 3 C-8.86395936 0.24263957 -4.91089275 0 0 0 Z " fill="#EC4E21" transform="translate(220,161)"/>
<path d="M0 0 C-2.68560205 3.64547502 -6.35085884 4.01091065 -10.5625 4.6875 C-11.33029785 4.81342529 -12.0980957 4.93935059 -12.88916016 5.0690918 C-20.20409454 6.12521673 -27.49267961 6.29043258 -34.875 6.3125 C-36.0101001 6.31789795 -37.1452002 6.3232959 -38.31469727 6.32885742 C-47.1909204 6.25194041 -47.1909204 6.25194041 -51 4 C-50.2972998 4.02618408 -49.59459961 4.05236816 -48.87060547 4.0793457 C-33.12199477 4.58501155 -18.98852018 3.75094326 -3.81811523 -0.65454102 C-2 -1 -2 -1 0 0 Z " fill="#220900" transform="translate(270,360)"/>
<path d="M0 0 C2.01822917 0.06510417 4.03645833 0.13020833 6.0546875 0.1953125 C5.4546875 5.5953125 5.4546875 5.5953125 3.8046875 8.0703125 C1.41572051 9.60607699 -0.16018691 9.55237988 -2.9453125 9.1953125 C-3.6053125 8.5353125 -4.2653125 7.8753125 -4.9453125 7.1953125 C-4.58410177 3.58320518 -4.17111606 0.41878675 0 0 Z " fill="#151515" transform="translate(186.9453125,264.8046875)"/>
<path d="M0 0 C6.02770138 0.47587116 10.76678289 3.19722957 16 6 C16 6.66 16 7.32 16 8 C17.65 7.67 19.3 7.34 21 7 C21.33 8.65 21.66 10.3 22 12 C22.66 12 23.32 12 24 12 C25.33333333 13.33333333 26.66666667 14.66666667 28 16 C28.99 16.33 29.98 16.66 31 17 C31.33 18.65 31.66 20.3 32 22 C30.96875 21.21625 29.9375 20.4325 28.875 19.625 C27.2522283 18.41367574 25.62683782 17.20585785 24 16 C23.47470703 15.60893066 22.94941406 15.21786133 22.40820312 14.81494141 C15.23345283 9.49551743 8.22847689 4.60232859 0 1 C0 0.67 0 0.34 0 0 Z " fill="#842972" transform="translate(307,171)"/>
<path d="M0 0 C-0.3125 3.375 -0.3125 3.375 -1 7 C-4.22213757 9.14809171 -5.27775401 9.29386153 -9 9 C-10 8 -10 8 -10.25 5.0625 C-10.1675 4.051875 -10.085 3.04125 -10 2 C-6.3558226 -0.4294516 -4.28758728 -0.16179575 0 0 Z " fill="#111112" transform="translate(338,265)"/>
<path d="M0 0 C1 2 1 2 0.4375 3.875 C-1 6 -1 6 -3.9375 7.9375 C-7.2224881 10.14983893 -8.0353483 11.6571598 -10 15 C-11.35951623 16.63505872 -12.75594118 18.24013212 -14.1875 19.8125 C-14.90292969 20.60269531 -15.61835938 21.39289063 -16.35546875 22.20703125 C-16.89816406 22.79871094 -17.44085938 23.39039063 -18 24 C-18.99 23.67 -19.98 23.34 -21 23 C-7.42885016 5.79812695 -7.42885016 5.79812695 0 0 Z " fill="#1F0301" transform="translate(180,191)"/>
<path d="M0 0 C11.62186936 4.51232851 20.29909828 13.44860434 28 23 C27.67 23.66 27.34 24.32 27 25 C25.85111717 23.87811441 24.70598863 22.75238316 23.5625 21.625 C22.92441406 20.99851563 22.28632813 20.37203125 21.62890625 19.7265625 C20 18 20 18 19 16 C18.195625 15.71125 17.39125 15.4225 16.5625 15.125 C14 14 14 14 13.09765625 12.09375 C11.74180731 9.50750433 10.40316679 8.7795371 7.875 7.375 C5.6796875 6.1484375 5.6796875 6.1484375 4 5 C4 4.34 4 3.68 4 3 C2.68 2.67 1.36 2.34 0 2 C0 1.34 0 0.68 0 0 Z " fill="#8B297D" transform="translate(316,160)"/>
<path d="M0 0 C0 0.33 0 0.66 0 1 C-12.87 1.33 -25.74 1.66 -39 2 C-39 1.67 -39 1.34 -39 1 C-32.88734906 -1.08891713 -27.05525208 -1.4924576 -20.625 -1.75 C-19.635 -1.80542969 -18.645 -1.86085937 -17.625 -1.91796875 C-11.35565561 -2.19090855 -6.06249507 -1.63172745 0 0 Z " fill="#CC324C" transform="translate(279,160)"/>
<path d="M0 0 C-0.41317222 4.82034262 -2.38019915 6.90992611 -6 10 C-6.66 10 -7.32 10 -8 10 C-8.268125 10.61875 -8.53625 11.2375 -8.8125 11.875 C-10 14 -10 14 -13 16 C-13 14.68 -13 13.36 -13 12 C-12.01 12 -11.02 12 -10 12 C-9.67 10.35 -9.34 8.7 -9 7 C-7.68 6.67 -6.36 6.34 -5 6 C-5 5.34 -5 4.68 -5 4 C-6.11375 4.680625 -7.2275 5.36125 -8.375 6.0625 C-10.2734375 7.22265625 -10.2734375 7.22265625 -12 8 C-12.66 7.67 -13.32 7.34 -14 7 C-12.75627811 6.01287122 -11.50472782 5.03560095 -10.25 4.0625 C-9.55390625 3.51722656 -8.8578125 2.97195312 -8.140625 2.41015625 C-5.41758568 0.61632926 -3.23891977 0 0 0 Z " fill="#E5B925" transform="translate(195,143)"/>
<path d="M0 0 C1.64767247 0.28109113 3.29313145 0.57518526 4.9375 0.875 C5.85402344 1.03742188 6.77054687 1.19984375 7.71484375 1.3671875 C8.46894531 1.57601562 9.22304688 1.78484375 10 2 C10.33 2.66 10.66 3.32 11 4 C0.44 4 -10.12 4 -21 4 C-17.89914429 1.93276286 -17.27068319 1.75502577 -13.76953125 1.8046875 C-12.56586914 1.81435547 -12.56586914 1.81435547 -11.33789062 1.82421875 C-10.50451172 1.84097656 -9.67113281 1.85773438 -8.8125 1.875 C-7.5450293 1.88853516 -7.5450293 1.88853516 -6.25195312 1.90234375 C-4.16784757 1.92589297 -2.08388783 1.96176353 0 2 C0 1.34 0 0.68 0 0 Z " fill="#F8B916" transform="translate(282,135)"/>
<path d="M0 0 C0.66 0.33 1.32 0.66 2 1 C1.195625 1.763125 0.39125 2.52625 -0.4375 3.3125 C-3.16799024 5.79430898 -3.16799024 5.79430898 -4 9 C-5.6015625 10.61328125 -5.6015625 10.61328125 -7.625 12.3125 C-8.33914062 12.91835937 -9.05328125 13.52421875 -9.7890625 14.1484375 C-10.51867187 14.75945312 -11.24828125 15.37046875 -12 16 C-13.33445216 17.14453013 -14.66788527 18.29025017 -16 19.4375 C-16.99 20.283125 -17.98 21.12875 -19 22 C-19.66 21.67 -20.32 21.34 -21 21 C-14.32497556 13.59083582 -7.66925098 6.41040928 0 0 Z " fill="#E4B028" transform="translate(179,151)"/>
<path d="M0 0 C0.99 0.495 0.99 0.495 2 1 C2.70071918 3.14337633 3.31053505 5.31678018 3.875 7.5 C5.27934083 12.67916675 6.87865448 17.42898575 9.265625 22.23046875 C10 24 10 24 10 27 C10.66 27 11.32 27 12 27 C13.6875 29.3125 13.6875 29.3125 15 32 C14.67 32.99 14.34 33.98 14 35 C6.59911179 24.07383664 0.05420482 13.52410216 0 0 Z " fill="#E76E20" transform="translate(153,297)"/>
<path d="M0 0 C2.31 0 4.62 0 7 0 C7.5878125 1.794375 7.5878125 1.794375 8.1875 3.625 C12.64439304 16.9847322 12.64439304 16.9847322 18 30 C17.34 30 16.68 30 16 30 C5.61982059 10.17385733 5.61982059 10.17385733 6 2 C4.68 2 3.36 2 2 2 C1.67 3.32 1.34 4.64 1 6 C0.67 4.02 0.34 2.04 0 0 Z " fill="#D49D30" transform="translate(133,289)"/>
<path d="M0 0 C1.32 0 2.64 0 4 0 C3.45144652 4.571279 2.58255197 8.67435795 1 13 C0.06576355 9.98968256 -0.04449911 9.13349732 1 6 C-1.28322227 6.84914167 -1.28322227 6.84914167 -1.875 9.5625 C-2.24625 10.696875 -2.6175 11.83125 -3 13 C-4.26226876 15.70416808 -5.61739666 18.35560333 -7 21 C-7.66 20.67 -8.32 20.34 -9 20 C-8.0648143 17.79066161 -7.12692414 15.58253569 -6.1875 13.375 C-5.92646484 12.75753906 -5.66542969 12.14007813 -5.39648438 11.50390625 C-3.73016509 7.59525607 -1.93721671 3.78135394 0 0 Z " fill="#6F2A71" transform="translate(368,290)"/>
<path d="M0 0 C0.99 0.33 1.98 0.66 3 1 C-5.6224514 8.87267302 -18.01055772 18.05346508 -30 19 C-27.61666905 16.25484323 -25.31090681 15.10919982 -21.9375 13.8125 C-21.05964844 13.46832031 -20.18179687 13.12414062 -19.27734375 12.76953125 C-17 12 -17 12 -15 12 C-15 11.34 -15 10.68 -15 10 C-13.865625 9.54625 -12.73125 9.0925 -11.5625 8.625 C-7.95278308 7.42904194 -7.95278308 7.42904194 -7 5 C-5.68 5 -4.36 5 -3 5 C-2.690625 4.360625 -2.38125 3.72125 -2.0625 3.0625 C-1 1 -1 1 0 0 Z " fill="#2B0303" transform="translate(319,348)"/>
<path d="M0 0 C0.66 0 1.32 0 2 0 C0.76123355 5.69305433 -0.56276003 11.35370013 -2 17 C-5.63 17 -9.26 17 -13 17 C-13.25 9.375 -13.25 9.375 -11 6 C-11 9.3 -11 12.6 -11 16 C-9.02 16 -7.04 16 -5 16 C-4.80664062 15.34773437 -4.61328125 14.69546875 -4.4140625 14.0234375 C-3.01359552 9.3228602 -1.58791274 4.64159109 0 0 Z " fill="#EB710E" transform="translate(150,208)"/>
<path d="M0 0 C-2.7269181 1.46256659 -5.4569188 2.91928541 -8.1875 4.375 C-8.95642578 4.7875 -9.72535156 5.2 -10.51757812 5.625 C-20.61737651 11 -20.61737651 11 -25 11 C-25 10.01 -25 9.02 -25 8 C-23.54293274 7.49632243 -22.08429904 6.99717444 -20.625 6.5 C-19.81289063 6.2215625 -19.00078125 5.943125 -18.1640625 5.65625 C-16 5 -16 5 -14 5 C-14 4.34 -14 3.68 -14 3 C-12.04486839 2.303447 -10.08577524 1.61800435 -8.125 0.9375 C-7.03445313 0.55464844 -5.94390625 0.17179687 -4.8203125 -0.22265625 C-2 -1 -2 -1 0 0 Z " fill="#E26E21" transform="translate(296,347)"/>
<path d="M0 0 C0.66 0 1.32 0 2 0 C2 0.66 2 1.32 2 2 C2.55300781 2.26167969 3.10601562 2.52335937 3.67578125 2.79296875 C6.2932415 4.15228844 8.71553339 5.70375982 11.1875 7.3125 C16.02139464 10.41814737 20.93665026 13.28704471 26 16 C26 16.66 26 17.32 26 18 C18.27519127 16.92633525 11.73978512 11.66868352 6 6.625 C3.23364737 3.8630343 3.23364737 3.8630343 0 3 C0 2.01 0 1.02 0 0 Z " fill="#CC904B" transform="translate(174,352)"/>
<path d="M0 0 C1.2065625 0.0309375 1.2065625 0.0309375 2.4375 0.0625 C2.06079917 2.24736483 1.56033891 3.86740291 0.375 5.75 C-2.16731033 7.47221022 -4.55961551 7.48826712 -7.5625 7.7421875 C-10.31399304 8.18285631 -12.25011645 9.56625182 -14.5625 11.0625 C-15.2225 10.7325 -15.8825 10.4025 -16.5625 10.0625 C-15.63566406 9.42441406 -14.70882813 8.78632813 -13.75390625 8.12890625 C-12.54423309 7.29432554 -11.33459973 6.45968714 -10.125 5.625 C-9.20750977 4.99368164 -9.20750977 4.99368164 -8.27148438 4.34960938 C-2.04549075 0.04989002 -2.04549075 0.04989002 0 0 Z " fill="#D14839" transform="translate(327.5625,352.9375)"/>
<path d="M0 0 C0.66 0.33 1.32 0.66 2 1 C-0.12700046 4.1905007 -1.03015935 4.73750222 -4.375 6.3125 C-7.35228459 7.72963546 -10.30244545 9.15873803 -13.22265625 10.69140625 C-14.81400391 11.52478516 -14.81400391 11.52478516 -16.4375 12.375 C-17.92056641 13.16003906 -17.92056641 13.16003906 -19.43359375 13.9609375 C-22 15 -22 15 -25 14 C-22.51604551 11.07819591 -19.99079296 10.03562028 -16.4375 8.6875 C-11.22286801 6.61558668 -6.64462374 4.11604731 -1.9609375 1.0390625 C-1.31382812 0.69617188 -0.66671875 0.35328125 0 0 Z " fill="#D46223" transform="translate(311,327)"/>
<path d="M0 0 C0.5625 2.5625 0.5625 2.5625 0 6 C-2.75648176 8.69200266 -5.8049334 10.85727677 -9 13 C-9.99 12.01 -10.98 11.02 -12 10 C-2.28571429 0 -2.28571429 0 0 0 Z " fill="#EA6418" transform="translate(188,180)"/>
<path d="M0 0 C0.33 0.66 0.66 1.32 1 2 C0.67 2.99 0.34 3.98 0 5 C1.32 5.33 2.64 5.66 4 6 C2.73427767 7.15147661 1.46222094 8.29599314 0.1875 9.4375 C-0.87404297 10.39462891 -0.87404297 10.39462891 -1.95703125 11.37109375 C-4 13 -4 13 -7 14 C-6.69723124 7.94462479 -3.72245962 4.48516542 0 0 Z " fill="#DD671A" transform="translate(174,173)"/>
<path d="M0 0 C0 4.21425478 -1.82963372 5.61069382 -4.578125 8.66015625 C-9.32708069 13.24826021 -14.68388787 17.09885306 -20 21 C-20.66 20.34 -21.32 19.68 -22 19 C-21.48953125 18.62230469 -20.9790625 18.24460937 -20.453125 17.85546875 C-13.24008476 12.39453226 -6.40063351 6.40063351 0 0 Z " fill="#9E4B58" transform="translate(333,338)"/>
<path d="M0 0 C0.66 0.33 1.32 0.66 2 1 C0.98679688 2.30324219 0.98679688 2.30324219 -0.046875 3.6328125 C-0.94802172 4.79679368 -1.84905747 5.96086077 -2.75 7.125 C-3.1934375 7.69476563 -3.636875 8.26453125 -4.09375 8.8515625 C-6.89318159 12.47435632 -9.50346654 16.16187146 -12 20 C-12.33 19.34 -12.66 18.68 -13 18 C-11.79149247 14.92379901 -10.47778215 11.9555643 -9 9 C-8.34 9 -7.68 9 -7 9 C-6.773125 8.443125 -6.54625 7.88625 -6.3125 7.3125 C-4.64103234 4.36753316 -2.44723648 2.31843456 0 0 Z " fill="#E9AA2B" transform="translate(179,160)"/>
<path d="M0 0 C0 0.33 0 0.66 0 1 C-1.21816406 0.98839844 -2.43632812 0.97679687 -3.69140625 0.96484375 C-5.31510262 0.95545822 -6.93880067 0.94635884 -8.5625 0.9375 C-9.36236328 0.92912109 -10.16222656 0.92074219 -10.98632812 0.91210938 C-15.77163104 0.89257753 -20.28145051 1.19562982 -25 2 C-25.33 1.34 -25.66 0.68 -26 0 C-23.79496964 -0.53464435 -21.58577828 -1.05214435 -19.375 -1.5625 C-18.14523437 -1.85253906 -16.91546875 -2.14257812 -15.6484375 -2.44140625 C-9.83480096 -3.33150264 -5.46976421 -1.82325474 0 0 Z " fill="#D6502C" transform="translate(298,371)"/>
<path d="M0 0 C0.66 0.33 1.32 0.66 2 1 C0.1875 3 0.1875 3 -2 5 C-2.99 5 -3.98 5 -5 5 C-5 5.66 -5 6.32 -5 7 C-6.66020495 8.0106915 -8.32852385 9.00805986 -10 10 C-11.97190627 11.68982521 -13.90868704 13.42131207 -15.8125 15.1875 C-16.31458984 15.65091797 -16.81667969 16.11433594 -17.33398438 16.59179688 C-18.55956829 17.72400297 -19.78029342 18.86146479 -21 20 C-21.66 19.67 -22.32 19.34 -23 19 C-16.31424642 11.90351753 -8.73823339 4.47349832 0 0 Z " fill="#CD7730" transform="translate(202,147)"/>
<path d="M0 0 C6.02734599 3.88428964 8.95586512 6.51658807 12.0625 13 C13.58762428 16.16667026 15.04832928 19.07249392 17 22 C16.625 24.1875 16.625 24.1875 16 26 C15.48050781 24.97519531 14.96101563 23.95039063 14.42578125 22.89453125 C13.72185004 21.53359757 13.01739502 20.17293473 12.3125 18.8125 C11.97283203 18.13896484 11.63316406 17.46542969 11.28320312 16.77148438 C9.03360256 12.46150199 6.62536021 9.32324686 3 6 C0 2.37931034 0 2.37931034 0 0 Z " fill="#1D021C" transform="translate(350,185)"/>
<path d="M0 0 C6.93 0 13.86 0 21 0 C21 0.33 21 0.66 21 1 C16.545 1.495 16.545 1.495 12 2 C12 2.66 12 3.32 12 4 C8.37 3.67 4.74 3.34 1 3 C0.67 2.01 0.34 1.02 0 0 Z " fill="#FC780D" transform="translate(223,377)"/>
<path d="M0 0 C0.99 0.66 1.98 1.32 3 2 C-0.17517218 5.48909302 -3.59181132 6.64711394 -7.9375 8.25 C-8.65357422 8.53101563 -9.36964844 8.81203125 -10.10742188 9.1015625 C-13.85657408 10.50532292 -16.18411833 11.23198616 -20 10 C-19.2265625 9.69707031 -18.453125 9.39414062 -17.65625 9.08203125 C-11.33054745 6.53765832 -5.65676698 3.80743931 0 0 Z " fill="#5B0602" transform="translate(311,360)"/>
<path d="M0 0 C5.75054379 4.18221366 11.03982764 9.46720582 14 16 C8.47258132 12.98504436 2.10840226 8.63397909 -1 3 C-0.67 2.01 -0.34 1.02 0 0 Z " fill="#CF9941" transform="translate(160,336)"/>
<path d="M0 0 C0.66 0.33 1.32 0.66 2 1 C2.375 3.1875 2.375 3.1875 2 6 C0.16038352 7.99022836 -1.79186148 9.38989899 -4 11 C-4 10.01 -4 9.02 -4 8 C-4.99 7.67 -5.98 7.34 -7 7 C-4.69 4.69 -2.38 2.38 0 0 Z " fill="#C43D51" transform="translate(334,345)"/>
<path d="M0 0 C0 3.98712183 -1.48918443 5.48509206 -3.8125 8.6875 C-4.87404297 10.17830078 -4.87404297 10.17830078 -5.95703125 11.69921875 C-6.63121094 12.45847656 -7.30539062 13.21773438 -8 14 C-11 14 -11 14 -13 13 C-8.71 8.71 -4.42 4.42 0 0 Z " fill="#CC6642" transform="translate(338,304)"/>
<path d="M0 0 C4.14862774 4.33720173 4.88845452 10.26713577 5.125 16.0625 C5.08375 16.701875 5.0425 17.34125 5 18 C2.63456284 15.63456284 1.72458677 13.42932795 0.375 10.375 C-0.07101562 9.37210938 -0.51703125 8.36921875 -0.9765625 7.3359375 C-1.31429688 6.56507813 -1.65203125 5.79421875 -2 5 C-1.34 5 -0.68 5 0 5 C0 3.35 0 1.7 0 0 Z " fill="#732B75" transform="translate(356,207)"/>
<path d="M0 0 C0 0.66 0 1.32 0 2 C-2.70440515 3.01189324 -5.41270901 4.00965691 -8.125 5 C-8.88554687 5.28617188 -9.64609375 5.57234375 -10.4296875 5.8671875 C-14.77716157 7.44127294 -18.30189258 8.36023827 -23 8 C-19.75060437 5.83373625 -16.74326193 4.73136699 -13.0625 3.4375 C-11.83660156 3.00308594 -10.61070312 2.56867188 -9.34765625 2.12109375 C-3.01393728 0 -3.01393728 0 0 0 Z " fill="#C73D42" transform="translate(250,152)"/>
<path d="M0 0 C-1.216875 0.391875 -2.43375 0.78375 -3.6875 1.1875 C-8.93433599 2.92254274 -14.05112267 4.95665554 -19.1796875 7.01171875 C-22 8 -22 8 -25 8 C-24.67 7.01 -24.34 6.02 -24 5 C-22.00634766 4.09277344 -22.00634766 4.09277344 -19.4140625 3.359375 C-18.48335937 3.09382812 -17.55265625 2.82828125 -16.59375 2.5546875 C-15.12421875 2.15636719 -15.12421875 2.15636719 -13.625 1.75 C-12.65304688 1.46898437 -11.68109375 1.18796875 -10.6796875 0.8984375 C-3.39886043 -1.13295348 -3.39886043 -1.13295348 0 0 Z " fill="#B4AB59" transform="translate(236,127)"/>
<path d="M0 0 C1.75471386 0.90761062 3.50359264 1.82650711 5.25 2.75 C6.22453125 3.26046875 7.1990625 3.7709375 8.203125 4.296875 C10.92104156 5.95191916 12.78435176 7.74615093 15 10 C17.64184541 10.79681318 17.64184541 10.79681318 20 11 C19.67 11.99 19.34 12.98 19 14 C14.63007446 12.63439827 11.50238634 10.23951393 7.96484375 7.4375 C6.04709409 6.03445453 4.15200239 4.9969187 2 4 C2 3.34 2 2.68 2 2 C1.34 2 0.68 2 0 2 C0 1.34 0 0.68 0 0 Z " fill="#2F0D1C" transform="translate(306,179)"/>
<path d="M0 0 C6.5705166 -0.24794402 12.56971459 0.67611771 19 2 C19 2.33 19 2.66 19 3 C12.18491136 3.82810601 6.48129797 4.50413785 0 2 C0 1.34 0 0.68 0 0 Z " fill="#ED8120" transform="translate(212,374)"/>
<path d="M0 0 C4.87108766 -0.19484351 8.45025124 0.29384421 13 2 C15.32550102 2.69670881 17.66214565 3.34540078 20 4 C20 4.66 20 5.32 20 6 C12.91296261 5.45484328 6.67203894 3.39081395 0 1 C0 0.67 0 0.34 0 0 Z " fill="#2E1001" transform="translate(213,339)"/>
<path d="M0 0 C1.46726798 3.81489674 0.43336419 6.29011622 -1 10 C-1.99 10 -2.98 10 -4 10 C-4 10.66 -4 11.32 -4 12 C-4.99 11.67 -5.98 11.34 -7 11 C-6.21572648 9.35063087 -5.42234741 7.70558873 -4.625 6.0625 C-4.18414062 5.14597656 -3.74328125 4.22945313 -3.2890625 3.28515625 C-2 1 -2 1 0 0 Z " fill="#9E237E" transform="translate(361,312)"/>
<path d="M0 0 C2.97 0 5.94 0 9 0 C9 0.99 9 1.98 9 3 C6.69 2.67 4.38 2.34 2 2 C2.66 6.29 3.32 10.58 4 15 C0.59141414 11.59141414 0.06991606 6.67798535 -0.125 2 C-0.08375 1.34 -0.0425 0.68 0 0 Z " fill="#CE6831" transform="translate(150,289)"/>
<path d="M0 0 C1.32 0.33 2.64 0.66 4 1 C2.33857487 2.33985898 0.66998649 3.67082708 -1 5 C-1.74765625 5.60199219 -2.4953125 6.20398438 -3.265625 6.82421875 C-4.06484375 7.45972656 -4.8640625 8.09523437 -5.6875 8.75 C-6.45449219 9.36359375 -7.22148437 9.9771875 -8.01171875 10.609375 C-10 12 -10 12 -12 12 C-12 11.34 -12 10.68 -12 10 C-11.34 10 -10.68 10 -10 10 C-10 9.34 -10 8.68 -10 8 C-9.360625 7.71125 -8.72125 7.4225 -8.0625 7.125 C-5.84793921 6.17176549 -5.84793921 6.17176549 -5 4 C-4.34 4 -3.68 4 -3 4 C-3 3.34 -3 2.68 -3 2 C-2.01 2 -1.02 2 0 2 C0 1.34 0 0.68 0 0 Z " fill="#D97124" transform="translate(198,159)"/>
<path d="M0 0 C-0.845625 0.38671875 -1.69125 0.7734375 -2.5625 1.171875 C-8.76155072 4.01780283 -14.92291969 6.90188063 -21 10 C-19.48647049 5.45941146 -16.08970156 4.18965023 -12 2 C-7.82025024 0.02685687 -4.56258003 -1.47375373 0 0 Z " fill="#350802" transform="translate(222,158)"/>
<path d="M0 0 C0.66 0.33 1.32 0.66 2 1 C0.989375 1.825 -0.02125 2.65 -1.0625 3.5 C-4.61070956 6.50842109 -7.51715957 9.83682993 -10.421875 13.4609375 C-12 15 -12 15 -15 15 C-14.50628906 14.54109375 -14.01257813 14.0821875 -13.50390625 13.609375 C-12.54291016 12.68898437 -12.54291016 12.68898437 -11.5625 11.75 C-10.92441406 11.14671875 -10.28632813 10.5434375 -9.62890625 9.921875 C-7.85941214 8.12329403 -7.85941214 8.12329403 -7.46484375 5.828125 C-7.31144531 5.22484375 -7.15804687 4.6215625 -7 4 C-6.01 3.67 -5.02 3.34 -4 3 C-3.67 2.34 -3.34 1.68 -3 1 C-2.01 0.67 -1.02 0.34 0 0 Z " fill="#3D191A" transform="translate(201,186)"/>
<path d="M0 0 C-0.30618405 3.67420866 -0.75771784 4.78135513 -3.5625 7.3125 C-4.366875 7.869375 -5.17125 8.42625 -6 9 C-6.12375 8.360625 -6.2475 7.72125 -6.375 7.0625 C-6.684375 6.0415625 -6.684375 6.0415625 -7 5 C-7.66 4.67 -8.32 4.34 -9 4 C-3.375 0 -3.375 0 0 0 Z " fill="#160100" transform="translate(184,177)"/>
<path d="M0 0 C0.33 0.66 0.66 1.32 1 2 C-1.78996944 6.72148675 -4.24945141 9.06881044 -9 12 C-10.79394446 13.62351109 -10.79394446 13.62351109 -12 15 C-12.66 14.67 -13.32 14.34 -14 14 C-9.38 9.38 -4.76 4.76 0 0 Z " fill="#2E040B" transform="translate(345,341)"/>
<path d="M0 0 C0.721875 0.144375 1.44375 0.28875 2.1875 0.4375 C3.5796875 0.7159375 3.5796875 0.7159375 5 1 C6.66666667 1.33333333 8.33333333 1.66666667 10 2 C10 2.66 10 3.32 10 4 C11.65 4.33 13.3 4.66 15 5 C14.67 5.66 14.34 6.32 14 7 C4.22210581 3.99633316 4.22210581 3.99633316 0 1 C0 0.67 0 0.34 0 0 Z " fill="#E1A428" transform="translate(192,353)"/>
<path d="M0 0 C0.99 0.9590625 0.99 0.9590625 2 1.9375 C-4.74609618 1.27394956 -11.34448534 0.21884207 -18 -1.0625 C-18 -1.3925 -18 -1.7225 -18 -2.0625 C-11.53608573 -3.27448393 -5.68461967 -3.90817603 0 0 Z " fill="#AC2C59" transform="translate(291,163.0625)"/>
<path d="M0 0 C5.1976194 4.23062044 10.11523844 8.47954937 14 14 C12.35 14 10.7 14 9 14 C9 12.68 9 11.36 9 10 C8.401875 9.938125 7.80375 9.87625 7.1875 9.8125 C4.08213967 8.65908045 3.48084246 6.89437389 2 4 C1.608125 3.236875 1.21625 2.47375 0.8125 1.6875 C0.544375 1.130625 0.27625 0.57375 0 0 Z " fill="#DC7A2B" transform="translate(172,310)"/>
<path d="M0 0 C-1.95519384 1.17192047 -3.9142539 2.3373929 -5.875 3.5 C-6.96554688 4.1496875 -8.05609375 4.799375 -9.1796875 5.46875 C-12 7 -12 7 -14 7 C-14 6.01 -14 5.02 -14 4 C-12.35 3.67 -10.7 3.34 -9 3 C-9 2.01 -9 1.02 -9 0 C-5.5657338 -0.85856655 -3.38317487 -0.97591583 0 0 Z " fill="#E05C2B" transform="translate(207,174)"/>
<path d="M0 0 C-1 3 -1 3 -2.70703125 4.203125 C-3.40183594 4.54859375 -4.09664063 4.8940625 -4.8125 5.25 C-5.49957031 5.60578125 -6.18664062 5.9615625 -6.89453125 6.328125 C-9.35077442 7.11193544 -10.60042386 6.84119973 -13 6 C-11.40089132 4.99193149 -9.79551738 3.99379615 -8.1875 3 C-7.29417969 2.443125 -6.40085937 1.88625 -5.48046875 1.3125 C-3 0 -3 0 0 0 Z " fill="#C34C46" transform="translate(312,358)"/>
<path d="M0 0 C-0.98828125 1.45703125 -0.98828125 1.45703125 -3 3 C-5.79251583 3.37674518 -8.38779201 3.60191941 -11.1875 3.6875 C-11.93708984 3.72166016 -12.68667969 3.75582031 -13.45898438 3.79101562 C-15.30546838 3.87334294 -17.15270994 3.93835281 -19 4 C-19 3.67 -19 3.34 -19 3 C-16.21019334 2.30404181 -13.41859396 1.61793326 -10.625 0.9375 C-9.43390625 0.63875977 -9.43390625 0.63875977 -8.21875 0.33398438 C-2.2265625 -1.11328125 -2.2265625 -1.11328125 0 0 Z " fill="#381303" transform="translate(270,360)"/>
<path d="M0 0 C-1.55500981 3.81684226 -4.03595495 6.19195732 -7 9 C-7.33 7.02 -7.66 5.04 -8 3 C-3.375 0 -3.375 0 0 0 Z " fill="#170004" transform="translate(344,333)"/>
<path d="M0 0 C0.99 0.99 1.98 1.98 3 3 C1.9024777 5.99324263 1.32317108 6.84610901 -1.625 8.25 C-2.40875 8.4975 -3.1925 8.745 -4 9 C-3.46930939 5.17902761 -2.50298434 2.93828597 0 0 Z " fill="#D8642F" transform="translate(175,189)"/>
<path d="M0 0 C0.66 0 1.32 0 2 0 C5 5.625 5 5.625 5 9 C5.66 9 6.32 9 7 9 C8.6875 11.3125 8.6875 11.3125 10 14 C9.67 14.99 9.34 15.98 9 17 C7.86676537 15.29711802 6.74377765 13.58741477 5.625 11.875 C4.99851563 10.92367188 4.37203125 9.97234375 3.7265625 8.9921875 C2.02318931 6.04018781 0.95806591 3.26129506 0 0 Z " fill="#DB7A29" transform="translate(158,315)"/>
<path d="M0 0 C0.33 0.66 0.66 1.32 1 2 C0.23883449 3.15227823 -0.53432693 4.2966386 -1.3125 5.4375 C-1.74175781 6.07558594 -2.17101562 6.71367187 -2.61328125 7.37109375 C-4 9 -4 9 -7 10 C-7 8.68 -7 7.36 -7 6 C-6.34 6 -5.68 6 -5 6 C-4.9175 5.38125 -4.835 4.7625 -4.75 4.125 C-4 2 -4 2 -1.9375 0.75 C-1.298125 0.5025 -0.65875 0.255 0 0 Z " fill="#4D2620" transform="translate(344,295)"/>
<path d="M0 0 C-4.29 0.66 -8.58 1.32 -13 2 C-12.67 0.68 -12.34 -0.64 -12 -2 C-6.87296272 -3.24711718 -4.79265093 -2.39632547 0 0 Z " fill="#EC3E34" transform="translate(240,162)"/>
<path d="M0 0 C0.33 0 0.66 0 1 0 C0.74213573 6.52396607 0.17832479 10.87818251 -4 16 C-5 14 -5 14 -4.00390625 10.7421875 C-3.53110016 9.4502948 -3.05028031 8.16131362 -2.5625 6.875 C-2.31951172 6.21628906 -2.07652344 5.55757812 -1.82617188 4.87890625 C-1.22421679 3.25008662 -0.61297588 1.62470425 0 0 Z " fill="#330E01" transform="translate(153,206)"/>
<path d="M0 0 C4.32046898 1.41680244 7.00461199 3.53763785 10.3125 6.625 C11.19550781 7.44226563 12.07851563 8.25953125 12.98828125 9.1015625 C13.65214844 9.72804687 14.31601562 10.35453125 15 11 C11.460253 11 10.77193248 10.3248834 8.0625 8.1875 C7.05896484 7.40439453 7.05896484 7.40439453 6.03515625 6.60546875 C5.02775391 5.81076172 5.02775391 5.81076172 4 5 C3.25621094 4.48050781 2.51242187 3.96101562 1.74609375 3.42578125 C1.16988281 2.95527344 0.59367187 2.48476562 0 2 C0 1.34 0 0.68 0 0 Z " fill="#934767" transform="translate(308,178)"/>
<path d="M0 0 C1.60294922 0.04060547 1.60294922 0.04060547 3.23828125 0.08203125 C4.04652344 0.11683594 4.85476562 0.15164062 5.6875 0.1875 C5.6875 0.5175 5.6875 0.8475 5.6875 1.1875 C3.60702703 1.7196441 1.52297707 2.23781786 -0.5625 2.75 C-1.72265625 3.04003906 -2.8828125 3.33007812 -4.078125 3.62890625 C-7.03340983 4.13929964 -8.55684101 4.21746165 -11.3125 3.1875 C-7.38423635 0.41074962 -4.78125108 -0.15762366 0 0 Z " fill="#EB9A25" transform="translate(246.3125,140.8125)"/>
<path d="M0 0 C-2.39287704 0.8427743 -4.78871019 1.67437002 -7.1875 2.5 C-7.86103516 2.73847656 -8.53457031 2.97695313 -9.22851562 3.22265625 C-12.93204467 4.48727592 -16.07940536 5.30451221 -20 5 C-16.22396941 2.48264627 -12.92859924 0.82106798 -8.5 -0.1875 C-7.7471875 -0.36667969 -6.994375 -0.54585938 -6.21875 -0.73046875 C-3.85166621 -1.01801942 -2.25455985 -0.72248395 0 0 Z " fill="#E06433" transform="translate(297,376)"/>
<path d="M0 0 C0.66 0 1.32 0 2 0 C0.9318153 5.11365014 -0.23107476 10.07227969 -2 15 C-2.33 15 -2.66 15 -3 15 C-3.36263859 9.1977825 -2.25684543 5.36000789 0 0 Z " fill="#E47D20" transform="translate(150,208)"/>
<path d="M0 0 C-3.7602471 2.54636399 -6.83055518 3.54722217 -11.3125 4.1875 C-12.91544922 4.42533203 -12.91544922 4.42533203 -14.55078125 4.66796875 C-15.76314453 4.83232422 -15.76314453 4.83232422 -17 5 C-12.54352765 1.55892641 -5.64515571 -2.82257785 0 0 Z " fill="#E08F28" transform="translate(228,138)"/>
<path d="M0 0 C0.66 0 1.32 0 2 0 C2.33 1.65 2.66 3.3 3 5 C-1.75 9 -1.75 9 -4 9 C-2.80100302 5.9168649 -1.52299523 2.93720508 0 0 Z " fill="#230D00" transform="translate(164,184)"/>
<path d="M0 0 C2.61527381 2.36620011 4.26440562 4.942048 6 8 C5.01 8.66 4.02 9.32 3 10 C1.68 8.35 0.36 6.7 -1 5 C-0.34 4.67 0.32 4.34 1 4 C0.67 2.68 0.34 1.36 0 0 Z " fill="#DB992E" transform="translate(155,328)"/>
<path d="M0 0 C1.32 0 2.64 0 4 0 C4 0.99 4 1.98 4 3 C4.515625 3.226875 5.03125 3.45375 5.5625 3.6875 C8.92403127 5.4975553 11.92911144 7.73996404 15 10 C14.01 10.495 14.01 10.495 13 11 C11.01712504 9.54648985 9.03870613 8.08752713 7.0625 6.625 C6.49853516 6.2125 5.93457031 5.8 5.35351562 5.375 C1.11328125 2.2265625 1.11328125 2.2265625 0 0 Z " fill="#420B04" transform="translate(188,310)"/>
<path d="M0 0 C0.66 0 1.32 0 2 0 C0.1668733 5.99932374 -2.07321751 11.44920563 -5 17 C-6 14 -6 14 -5.22265625 12.09765625 C-4.83980469 11.42605469 -4.45695312 10.75445312 -4.0625 10.0625 C-2.24192408 6.85952067 -2 5.92163967 -2 2 C-1.34 2 -0.68 2 0 2 C0 1.34 0 0.68 0 0 Z " fill="#772C6A" transform="translate(366,304)"/>
<path d="M0 0 C1.98 0 3.96 0 6 0 C6 2.31 6 4.62 6 7 C5.01 7.495 5.01 7.495 4 8 C4.33 6.02 4.66 4.04 5 2 C3.04105639 2.11306697 3.04105639 2.11306697 1 3 C-0.29660434 5.49034386 -0.29660434 5.49034386 -1 8 C-1.93065133 5.39417629 -2.14917407 4.35801776 -1.0625 1.75 C-0.711875 1.1725 -0.36125 0.595 0 0 Z " fill="#19061D" transform="translate(367,288)"/>
<path d="M0 0 C0.99 0 1.98 0 3 0 C2.64950425 3.24208567 2.43778819 4.61527704 -0.0625 6.8125 C-0.701875 7.204375 -1.34125 7.59625 -2 8 C-2.125 5.125 -2.125 5.125 -2 2 C-1.34 1.34 -0.68 0.68 0 0 Z " fill="#BF3474" transform="translate(346,334)"/>
<path d="M0 0 C0.33 0.66 0.66 1.32 1 2 C2.98 1.34 4.96 0.68 7 0 C4.19195732 2.96404505 1.81684226 5.44499019 -2 7 C-1.125 1.125 -1.125 1.125 0 0 Z " fill="#C76D35" transform="translate(169,180)"/>
<path d="M0 0 C3.3 0.33 6.6 0.66 10 1 C10 1.99 10 2.98 10 4 C7.03 3.67 4.06 3.34 1 3 C0.67 2.01 0.34 1.02 0 0 Z " fill="#140003" transform="translate(288,166)"/>
<path d="M0 0 C0.66 0.99 1.32 1.98 2 3 C-3.29230769 6.07692308 -3.29230769 6.07692308 -6.875 5.6875 C-7.57625 5.460625 -8.2775 5.23375 -9 5 C-6.14693203 2.67527795 -3.45925163 1.2491742 0 0 Z " fill="#DEC74B" transform="translate(210,133)"/>
<path d="M0 0 C2.0625 0.4375 2.0625 0.4375 4 1 C2.06532058 1.83986084 0.12714871 2.67168027 -1.8125 3.5 C-3.43091797 4.19609375 -3.43091797 4.19609375 -5.08203125 4.90625 C-8 6 -8 6 -11 6 C-11 5.34 -11 4.68 -11 4 C-10.28972656 3.79503906 -9.57945312 3.59007812 -8.84765625 3.37890625 C-7.92855469 3.10949219 -7.00945312 2.84007812 -6.0625 2.5625 C-4.68771484 2.16224609 -4.68771484 2.16224609 -3.28515625 1.75390625 C-1.0597507 1.20973949 -1.0597507 1.20973949 0 0 Z " fill="#270400" transform="translate(295,334)"/>
<path d="M0 0 C2.12161334 2.12161334 2.92986249 3.7733159 4.125 6.5 C4.47820312 7.2940625 4.83140625 8.088125 5.1953125 8.90625 C6 11 6 11 6 13 C5.01 13 4.02 13 3 13 C2.49242138 11.58603098 1.99425075 10.16868271 1.5 8.75 C1.08234375 7.56664062 1.08234375 7.56664062 0.65625 6.359375 C0 4 0 4 0 0 Z " fill="#330D02" transform="translate(154,308)"/>
<path d="M0 0 C0.99 0.33 1.98 0.66 3 1 C0.36 4.3 -2.28 7.6 -5 11 C-5.33 10.34 -5.66 9.68 -6 9 C-4.02 6.03 -2.04 3.06 0 0 Z " fill="#BC6E49" transform="translate(164,204)"/>
<path d="M0 0 C0.66 0.33 1.32 0.66 2 1 C-1.79692186 3.82561627 -4.18569279 5.56638908 -9 5 C-9 5.66 -9 6.32 -9 7 C-10.32 6.67 -11.64 6.34 -13 6 C-11.3970947 5.18501438 -9.79262722 4.37310073 -8.1875 3.5625 C-7.29417969 3.11003906 -6.40085938 2.65757812 -5.48046875 2.19140625 C-3 1 -3 1 0 0 Z " fill="#320305" transform="translate(221,180)"/>
<path d="M0 0 C0 0.66 0 1.32 0 2 C-2.97 3.32 -5.94 4.64 -9 6 C-9.66 5.34 -10.32 4.68 -11 4 C-4.5 0 -4.5 0 0 0 Z " fill="#B94858" transform="translate(218,180)"/>
<path d="M0 0 C-3.74525799 3.74525799 -7.98270909 3.68909949 -13 4 C-8.93522219 0.68795882 -5.26054188 -1.94834884 0 0 Z " fill="#CB5534" transform="translate(226,158)"/>
<path d="M0 0 C4.18423892 3.50897269 8.19588166 7.08060535 12 11 C9 11 9 11 6.73828125 9.1015625 C5.93777344 8.28429687 5.13726562 7.46703125 4.3125 6.625 C3.50425781 5.81289063 2.69601563 5.00078125 1.86328125 4.1640625 C0 2 0 2 0 0 Z " fill="#B9674C" transform="translate(183,306)"/>
<path d="M0 0 C1 2 1 2 0.25 5 C-1 8 -1 8 -4 10 C-4.8125 7.8125 -4.8125 7.8125 -5 5 C-2.5625 2.1875 -2.5625 2.1875 0 0 Z " fill="#CF3A5F" transform="translate(340,340)"/>
<path d="M0 0 C-1.74635165 0.53293835 -3.49727652 1.05090663 -5.25 1.5625 C-6.22453125 1.85253906 -7.1990625 2.14257812 -8.203125 2.44140625 C-10.96243932 2.99249836 -12.3912824 2.93789609 -15 2 C-10.29550075 -1.13633283 -5.33847333 -1.58840482 0 0 Z " fill="#250400" transform="translate(284,341)"/>
<path d="M0 0 C1 2 1 2 -0.125 5.4375 C-1.68880731 8.92879075 -3.479691 10.38256073 -7 12 C-5.61735163 9.13132769 -4.07851447 6.43975968 -2.375 3.75 C-1.92898438 3.04359375 -1.48296875 2.3371875 -1.0234375 1.609375 C-0.68570312 1.07828125 -0.34796875 0.5471875 0 0 Z " fill="#512D38" transform="translate(341,326)"/>
<path d="M0 0 C1.98 0 3.96 0 6 0 C3.42215154 2.64752004 1.08351902 4.94432065 -2 7 C-2 5.68 -2 4.36 -2 3 C-1.34 2.67 -0.68 2.34 0 2 C0 1.34 0 0.68 0 0 Z " fill="#DF5C22" transform="translate(309,332)"/>
<path d="M0 0 C1.32 0.33 2.64 0.66 4 1 C2.71283353 2.00578589 1.42011342 3.00446798 0.125 4 C-0.95394531 4.8353125 -0.95394531 4.8353125 -2.0546875 5.6875 C-4 7 -4 7 -6 7 C-6 6.01 -6 5.02 -6 4 C-4.68 4 -3.36 4 -2 4 C-2 3.34 -2 2.68 -2 2 C-1.34 2 -0.68 2 0 2 C0 1.34 0 0.68 0 0 Z " fill="#DF6826" transform="translate(302,339)"/>
<path d="M0 0 C-1.97589366 5.20917419 -6.28600732 6.65303343 -11 9 C-10.06725891 7.87105124 -9.12859878 6.74699124 -8.1875 5.625 C-7.66542969 4.99851563 -7.14335937 4.37203125 -6.60546875 3.7265625 C-4.60437547 1.57453518 -3.0502442 0 0 0 Z " fill="#1D0102" transform="translate(200,192)"/>
<path d="M0 0 C0.66 0.99 1.32 1.98 2 3 C1.01 4.485 1.01 4.485 0 6 C0 6.99 0 7.98 0 9 C0.66 9.33 1.32 9.66 2 10 C0.68 10.33 -0.64 10.66 -2 11 C-2.94693195 7.2983569 -3.30443767 5.60887535 -1.5625 2.125 C-1.046875 1.42375 -0.53125 0.7225 0 0 Z " fill="#4B1806" transform="translate(168,177)"/>
<path d="M0 0 C-0.33 0.99 -0.66 1.98 -1 3 C-2.65 3.33 -4.3 3.66 -6 4 C-6 3.34 -6 2.68 -6 2 C-6.66 1.67 -7.32 1.34 -8 1 C-5.29120665 -0.35439668 -2.99066732 -0.06501451 0 0 Z " fill="#EB613C" transform="translate(314,365)"/>
<path d="M0 0 C-1.4638611 4.39158329 -3.97831338 4.87947433 -8 7 C-8 6.01 -8 5.02 -8 4 C-2.74285714 0 -2.74285714 0 0 0 Z " fill="#B35357" transform="translate(320,352)"/>
<path d="M0 0 C2.97 1.65 5.94 3.3 9 5 C9 5.99 9 6.98 9 8 C5.535 6.02 5.535 6.02 2 4 C2 3.34 2 2.68 2 2 C1.34 2 0.68 2 0 2 C0 1.34 0 0.68 0 0 Z " fill="#21010E" transform="translate(306,179)"/>
<path d="M0 0 C-3.63 1.98 -7.26 3.96 -11 6 C-10.67 4.68 -10.34 3.36 -10 2 C-9.01 2 -8.02 2 -7 2 C-7 1.34 -7 0.68 -7 0 C-3.98968256 -0.93423645 -3.13349732 -1.04449911 0 0 Z " fill="#2F0205" transform="translate(214,181)"/>
<path d="M0 0 C3.57410797 2.68058098 6.31941902 5.42589203 9 9 C8.67 9.66 8.34 10.32 8 11 C6.84501103 9.92643323 5.70132133 8.84070212 4.5625 7.75 C3.92441406 7.14671875 3.28632813 6.5434375 2.62890625 5.921875 C0.91483694 3.89951984 0.40641122 2.58729395 0 0 Z " fill="#7C2C76" transform="translate(335,174)"/>
<path d="M0 0 C4.12751449 0.60698743 7.3321148 2.03810791 11 4 C11 4.33 11 4.66 11 5 C8.3125 5.3125 8.3125 5.3125 5 5 C2.125 2.5 2.125 2.5 0 0 Z " fill="#25020B" transform="translate(295,174)"/>
<path d="M0 0 C4.455 1.98 4.455 1.98 9 4 C8.01 5.485 8.01 5.485 7 7 C3.535 5.02 3.535 5.02 0 3 C0 2.01 0 1.02 0 0 Z " fill="#973E62" transform="translate(300,173)"/>
<path d="M0 0 C1.65 0 3.3 0 5 0 C5 0.66 5 1.32 5 2 C6.65 2.33 8.3 2.66 10 3 C10.33 3.99 10.66 4.98 11 6 C7.2089881 4.55049545 3.6125362 2.84827434 0 1 C0 0.67 0 0.34 0 0 Z " fill="#270A00" transform="translate(197,331)"/>
<path d="M0 0 C2.93200474 2.85276137 5.64315404 5.65079784 8 9 C7.67 9.66 7.34 10.32 7 11 C3.17330957 7.57611908 1.27721526 4.99275057 0 0 Z " fill="#D26D2B" transform="translate(164,299)"/>
<path d="M0 0 C0.33 3.3 0.66 6.6 1 10 C-1.6465335 7.3534665 -2.59941997 4.43778736 -4 1 C-1 0 -1 0 0 0 Z " fill="#66346D" transform="translate(360,215)"/>
<path d="M0 0 C4.455 2.97 4.455 2.97 9 6 C6 7 6 7 3.9375 6.375 C2 5 2 5 0 0 Z " fill="#291002" transform="translate(178,357)"/>
<path d="M0 0 C0.66 0 1.32 0 2 0 C0.44499019 3.81684226 -2.03595495 6.19195732 -5 9 C-4.1875 6.0625 -4.1875 6.0625 -3 3 C-2.01 2.67 -1.02 2.34 0 2 C0 1.34 0 0.68 0 0 Z " fill="#1C030A" transform="translate(335,332)"/>
<path d="M0 0 C3.72114571 2.31537955 6.61229661 4.28579473 9 8 C4.75153925 7.52794881 2.73180712 5.11122478 0 2 C0 1.34 0 0.68 0 0 Z " fill="#2A162B" transform="translate(350,185)"/>
<path d="M0 0 C1.32 0.66 2.64 1.32 4 2 C2.35 3.32 0.7 4.64 -1 6 C-1.66 4.68 -2.32 3.36 -3 2 C-2.01 1.34 -1.02 0.68 0 0 Z " fill="#E86922" transform="translate(179,187)"/>
<path d="M0 0 C1.31823302 0.59155331 2.62947051 1.19871463 3.9375 1.8125 C5.03384766 2.31716797 5.03384766 2.31716797 6.15234375 2.83203125 C8 4 8 4 9 7 C6.525 6.01 6.525 6.01 4 5 C4 4.34 4 3.68 4 3 C2.68 2.67 1.36 2.34 0 2 C0 1.34 0 0.68 0 0 Z " fill="#922D73" transform="translate(316,160)"/>
<path d="M0 0 C2.375 0.25 2.375 0.25 5 1 C6.1875 3 6.1875 3 7 5 C7.66 5.33 8.32 5.66 9 6 C8.67 6.66 8.34 7.32 8 8 C6.66372225 6.85760183 5.33104612 5.71098945 4 4.5625 C3.2575 3.92441406 2.515 3.28632813 1.75 2.62890625 C1.1725 2.09136719 0.595 1.55382812 0 1 C0 0.67 0 0.34 0 0 Z " fill="#E49A2A" transform="translate(175,340)"/>
<path d="M0 0 C4.455 1.98 4.455 1.98 9 4 C4.70600835 5.07349791 3.80504787 4.79682816 0 3 C0 2.01 0 1.02 0 0 Z " fill="#B2593F" transform="translate(210,326)"/>
<path d="M0 0 C0.99 0 1.98 0 3 0 C3 1.32 3 2.64 3 4 C2.34 4 1.68 4 1 4 C0.67 4.99 0.34 5.98 0 7 C-0.66 6.67 -1.32 6.34 -2 6 C-1.34 4.02 -0.68 2.04 0 0 Z " fill="#B5267D" transform="translate(351,325)"/>
<path d="M0 0 C0.66 0.33 1.32 0.66 2 1 C1.34 2.98 0.68 4.96 0 7 C-1.32 6.67 -2.64 6.34 -4 6 C-4 4 -4 4 -2 1.875 C-1.34 1.25625 -0.68 0.6375 0 0 Z " fill="#8A287F" transform="translate(363,307)"/>
<path d="M0 0 C1.32129824 0.734389 2.63183171 1.48816894 3.9375 2.25 C4.66839844 2.66765625 5.39929688 3.0853125 6.15234375 3.515625 C8.31857318 5.25593617 8.63594751 6.29561004 9 9 C7.68103535 8.07161713 6.37001311 7.13194268 5.0625 6.1875 C4.33160156 5.66542969 3.60070312 5.14335937 2.84765625 4.60546875 C1 3 1 3 0 0 Z " fill="#411C18" transform="translate(179,301)"/>
<path d="M0 0 C0 0.99 0 1.98 0 3 C-2.8125 5.75 -2.8125 5.75 -6 8 C-6.99 7.67 -7.98 7.34 -9 7 C-6.03 4.69 -3.06 2.38 0 0 Z " fill="#2D2102" transform="translate(203,140)"/>
<path d="M0 0 C-4.625 4 -4.625 4 -8 4 C-8 3.01 -8 2.02 -8 1 C-3.375 -1.125 -3.375 -1.125 0 0 Z " fill="#EE7C20" transform="translate(279,354)"/>
<path d="M0 0 C1.32 0.33 2.64 0.66 4 1 C-2.75 5 -2.75 5 -5 5 C-4.67 4.01 -4.34 3.02 -4 2 C-2.68 2 -1.36 2 0 2 C0 1.34 0 0.68 0 0 Z " fill="#2F0600" transform="translate(304,329)"/>
<path d="M0 0 C0.66 0.33 1.32 0.66 2 1 C0.02 3.31 -1.96 5.62 -4 8 C-4.33 7.01 -4.66 6.02 -5 5 C-4.360625 4.731875 -3.72125 4.46375 -3.0625 4.1875 C-0.66868314 3.11332248 -0.66868314 3.11332248 0 0 Z " fill="#270200" transform="translate(174,188)"/>
<path d="M0 0 C1.32 0 2.64 0 4 0 C3.67 1.32 3.34 2.64 3 4 C3 3.34 3 2.68 3 2 C2.34 2 1.68 2 1 2 C1 2.66 1 3.32 1 4 C0.01 4.33 -0.98 4.66 -2 5 C-1.34 3.35 -0.68 1.7 0 0 Z " fill="#632C69" transform="translate(368,290)"/>
</svg>
