<?xml version="1.0" encoding="UTF-8"?>
<svg version="1.1" xmlns="http://www.w3.org/2000/svg" width="512" height="512">
<path d="M0 0 C168.96 0 337.92 0 512 0 C512 168.96 512 337.92 512 512 C343.04 512 174.08 512 0 512 C0 343.04 0 174.08 0 0 Z " fill="#FEFEFE" transform="translate(0,0)"/>
<path d="M0 0 C1.53498663 -0.00514444 3.06996734 -0.01242967 4.60493469 -0.02168274 C8.75591635 -0.04013849 12.90625261 -0.02729545 17.05720711 -0.00759244 C21.41098859 0.00884382 25.76473078 -0.00002574 30.11853027 -0.00511169 C37.42857114 -0.00962711 44.73835567 0.00620282 52.04833984 0.03417969 C60.48725184 0.06622915 68.92570163 0.06621408 77.36464643 0.04896492 C85.49867489 0.03307467 93.63253466 0.03984943 101.76655579 0.05690193 C105.22093727 0.06375595 108.67518288 0.06275699 112.12956238 0.05535698 C116.20094545 0.0476686 120.27180556 0.05990279 124.34309959 0.08720589 C125.83295833 0.09406418 127.32286615 0.09421521 128.81272316 0.08699036 C136.6974819 0.05317386 143.05681139 0.15159821 149.80664062 4.63110352 C154.09119515 9.14116091 156.07112626 12.82739626 156.00195312 19.05297852 C155.99550781 20.0777832 155.9890625 21.10258789 155.98242188 22.15844727 C155.96566406 23.22192383 155.94890625 24.28540039 155.93164062 25.38110352 C155.92261719 26.46004883 155.91359375 27.53899414 155.90429688 28.65063477 C155.88075368 31.31101629 155.84786861 33.97094688 155.80664062 36.63110352 C158.11664063 36.63110352 160.42664063 36.63110352 162.80664062 36.63110352 C162.80664062 33.99110352 162.80664062 31.35110352 162.80664062 28.63110352 C164.12664062 28.63110352 165.44664062 28.63110352 166.80664062 28.63110352 C166.80664062 31.93110352 166.80664062 35.23110352 166.80664062 38.63110352 C165.15664063 38.96110352 163.50664062 39.29110352 161.80664062 39.63110352 C161.47664063 41.61110352 161.14664062 43.59110352 160.80664062 45.63110352 C162.78664063 45.63110352 164.76664062 45.63110352 166.80664062 45.63110352 C166.81598633 46.31213135 166.82533203 46.99315918 166.83496094 47.69482422 C166.88862193 50.77848998 166.97227613 53.86063145 167.05664062 56.94360352 C167.07082031 58.01545898 167.085 59.08731445 167.09960938 60.19165039 C167.13183594 61.21967773 167.1640625 62.24770508 167.19726562 63.30688477 C167.21821289 64.25474854 167.23916016 65.2026123 167.26074219 66.17919922 C167.59945597 68.76171548 167.59945597 68.76171548 169.66992188 70.43188477 C172.36330687 71.94352863 174.48507071 72.13577197 177.55664062 72.31860352 C178.54148437 72.3843457 179.52632813 72.45008789 180.54101562 72.51782227 C181.6625 72.57389648 181.6625 72.57389648 182.80664062 72.63110352 C182.47664063 70.32110352 182.14664062 68.01110352 181.80664062 65.63110352 C180.15664063 65.30110352 178.50664062 64.97110352 176.80664062 64.63110352 C176.80664062 58.36110352 176.80664062 52.09110352 176.80664062 45.63110352 C178.78664063 45.63110352 180.76664062 45.63110352 182.80664062 45.63110352 C182.80664062 43.32110352 182.80664062 41.01110352 182.80664062 38.63110352 C181.15664063 38.63110352 179.50664062 38.63110352 177.80664062 38.63110352 C177.80664062 38.30110352 177.80664062 37.97110352 177.80664062 37.63110352 C179.78664063 37.63110352 181.76664062 37.63110352 183.80664062 37.63110352 C184.13664062 39.28110352 184.46664063 40.93110352 184.80664062 42.63110352 C185.49371094 42.28176758 186.18078125 41.93243164 186.88867188 41.57250977 C187.78972656 41.1174707 188.69078125 40.66243164 189.61914062 40.19360352 C190.95912109 39.51491211 190.95912109 39.51491211 192.32617188 38.82250977 C197.80491022 36.19098977 202.78354765 35.64634065 208.55273438 37.52563477 C210.99892989 38.50758275 213.4112229 39.53156751 215.80664062 40.63110352 C215.80664062 41.29110352 215.80664062 41.95110352 215.80664062 42.63110352 C216.46664063 42.63110352 217.12664062 42.63110352 217.80664062 42.63110352 C217.79503906 41.41551758 217.7834375 40.19993164 217.77148438 38.94750977 C217.76210784 37.36287588 217.7530075 35.77824034 217.74414062 34.19360352 C217.73576172 33.39116211 217.72738281 32.5887207 217.71875 31.76196289 C217.71012632 29.71815131 217.75435913 27.6742645 217.80664062 25.63110352 C218.80664062 24.63110352 218.80664062 24.63110352 222.18554688 24.53344727 C223.5801114 24.54011982 224.97465805 24.5520782 226.36914062 24.56860352 C227.43551758 24.57537109 227.43551758 24.57537109 228.5234375 24.58227539 C230.28454076 24.59409488 232.04560098 24.61203088 233.80664062 24.63110352 C233.80664062 29.25110352 233.80664062 33.87110352 233.80664062 38.63110352 C235.45664062 38.30110352 237.10664063 37.97110352 238.80664062 37.63110352 C237.16120282 39.31873203 235.49375486 40.98513841 233.80664062 42.63110352 C233.47664063 42.63110352 233.14664062 42.63110352 232.80664062 42.63110352 C232.80664062 37.02110352 232.80664062 31.41110352 232.80664062 25.63110352 C229.50664062 25.63110352 226.20664062 25.63110352 222.80664062 25.63110352 C222.80664062 41.14110352 222.80664062 56.65110352 222.80664062 72.63110352 C226.10664063 72.63110352 229.40664063 72.63110352 232.80664062 72.63110352 C232.76023437 71.01719727 232.71382813 69.40329102 232.66601562 67.74047852 C232.62849752 65.62070534 232.5920974 63.50091217 232.55664062 61.38110352 C232.523125 60.31762695 232.48960937 59.25415039 232.45507812 58.15844727 C232.4421875 57.13364258 232.42929687 56.10883789 232.41601562 55.05297852 C232.39506836 54.11035156 232.37412109 53.16772461 232.35253906 52.1965332 C232.94453471 48.85207607 234.15311536 47.68540715 236.80664062 45.63110352 C239.95186785 45.31658079 241.96580421 45.21068531 244.80664062 46.63110352 C245.82637192 49.6902974 245.92197665 51.75528376 245.90429688 54.95532227 C245.90107422 55.98334961 245.89785156 57.01137695 245.89453125 58.07055664 C245.88615234 59.14241211 245.87777344 60.21426758 245.86914062 61.31860352 C245.86462891 62.40206055 245.86011719 63.48551758 245.85546875 64.60180664 C245.84367806 67.27829436 245.82722126 69.95467128 245.80664062 72.63110352 C248.77664063 72.63110352 251.74664062 72.63110352 254.80664062 72.63110352 C254.78382931 68.06749801 254.70649891 63.50639398 254.61914062 58.94360352 C254.61333984 57.6500293 254.60753906 56.35645508 254.6015625 55.02368164 C254.57255859 53.77651367 254.54355469 52.5293457 254.51367188 51.24438477 C254.49796143 50.09752197 254.48225098 48.95065918 254.46606445 47.76904297 C253.61567642 43.72237974 251.95831908 42.22133027 248.80664062 39.63110352 C246.40915352 38.63594705 246.40915352 38.63594705 243.99414062 38.31860352 C243.20394531 38.1780957 242.41375 38.03758789 241.59960938 37.89282227 C241.00792969 37.80645508 240.41625 37.72008789 239.80664062 37.63110352 C239.80664062 37.30110352 239.80664062 36.97110352 239.80664062 36.63110352 C245.04673704 36.31669773 248.39893286 36.69263168 252.80664062 39.63110352 C257.6164032 44.57132982 257.22738416 49.43560205 257.15820312 56.11157227 C257.10792969 58.03936523 257.10792969 58.03936523 257.05664062 60.00610352 C257.03859375 61.31450195 257.02054687 62.62290039 257.00195312 63.97094727 C256.9549341 67.1917504 256.88922243 70.41104826 256.80664062 73.63110352 C253.88991178 73.65811026 250.97343385 73.67794588 248.05664062 73.69360352 C247.23164063 73.70198242 246.40664063 73.71036133 245.55664062 73.71899414 C244.3578125 73.72382813 244.3578125 73.72382813 243.13476562 73.72875977 C242.40161133 73.73399658 241.66845703 73.7392334 240.91308594 73.74462891 C238.80664063 73.63110352 238.80664063 73.63110352 236.59863281 73.0625 C236.00727539 72.92013916 235.41591797 72.77777832 234.80664062 72.63110352 C234.47664063 72.96110352 234.14664062 73.29110352 233.80664062 73.63110352 C231.11009209 73.70429973 228.43972605 73.72352889 225.74414062 73.69360352 C224.98552734 73.6890918 224.22691406 73.68458008 223.4453125 73.67993164 C221.56572191 73.66811032 219.68617164 73.65017429 217.80664062 73.63110352 C217.47664063 71.98110352 217.14664062 70.33110352 216.80664062 68.63110352 C215.89914062 69.43547852 214.99164063 70.23985352 214.05664062 71.06860352 C209.3096264 75.2761843 204.04545705 74.95437523 197.93554688 74.93188477 C193.37812308 74.49378036 189.75820441 72.86633152 185.80664062 70.63110352 C185.47664063 71.62110352 185.14664062 72.61110352 184.80664062 73.63110352 C178.61051309 75.69647936 171.7681082 75.26524035 165.80664062 72.63110352 C164.11457061 71.67471612 162.43847169 70.68699421 160.80664062 69.63110352 C160.80664062 71.28110352 160.80664062 72.93110352 160.80664062 74.63110352 C159.15664063 74.63110352 157.50664062 74.63110352 155.80664062 74.63110352 C155.84144531 75.71649414 155.87625 76.80188477 155.91210938 77.92016602 C155.94026451 79.36546294 155.96756281 80.81077673 155.99414062 82.25610352 C156.0318457 83.32538086 156.0318457 83.32538086 156.0703125 84.41625977 C156.14868597 90.11139868 155.08691249 94.20863207 151.05273438 98.49438477 C150.45589844 98.97262695 149.8590625 99.45086914 149.24414062 99.94360352 C148.64472656 100.43473633 148.0453125 100.92586914 147.42773438 101.43188477 C144.08442812 103.90512578 141.66807615 103.76747487 137.54574585 103.79173279 C136.89631315 103.79682061 136.24688045 103.80190843 135.57776797 103.80715042 C133.39152847 103.82290425 131.2053221 103.83140774 129.01904297 103.83984375 C127.45539132 103.84938005 125.89174181 103.85927111 124.32809448 103.86949158 C119.18294793 103.90090931 114.03778507 103.92115029 108.89257812 103.93969727 C108.01725575 103.94299459 107.14193337 103.94629191 106.24008608 103.94968915 C97.98428778 103.9804768 89.72848586 104.0071848 81.47264671 104.02410793 C70.91359491 104.04600557 60.35505223 104.08795014 49.79620397 104.15754551 C42.37189909 104.20481709 34.94773139 104.22904589 27.52328074 104.23630482 C23.08950744 104.24125733 18.65630759 104.25629885 14.22269821 104.29604912 C10.04792545 104.33298394 5.87405195 104.34130319 1.69914627 104.32804298 C0.17053882 104.32809682 -1.35810915 104.33834935 -2.88656616 104.35979462 C-16.81226861 104.54466417 -16.81226861 104.54466417 -22.74638939 99.2486887 C-29.89528035 91.25685736 -28.19335938 85.42310571 -28.19335938 73.63110352 C-42.38335937 73.63110352 -56.57335937 73.63110352 -71.19335938 73.63110352 C-71.68835938 64.72110352 -71.68835938 64.72110352 -72.19335938 55.63110352 C-74.12608372 61.17968938 -74.12608372 61.17968938 -76.05249023 66.73046875 C-76.29362549 67.41826416 -76.53476074 68.10605957 -76.78320312 68.81469727 C-77.0293335 69.52166748 -77.27546387 70.2286377 -77.52905273 70.95703125 C-78.19335938 72.63110352 -78.19335938 72.63110352 -79.19335938 73.63110352 C-82.05603504 73.7043552 -84.89407837 73.72348557 -87.75585938 73.69360352 C-88.56216797 73.6890918 -89.36847656 73.68458008 -90.19921875 73.67993164 C-92.19729694 73.66810869 -94.1953372 73.65017266 -96.19335938 73.63110352 C-96.19335938 72.31110352 -96.19335938 70.99110352 -96.19335938 69.63110352 C-96.8971875 70.61336914 -96.8971875 70.61336914 -97.61523438 71.61547852 C-101.4211439 74.59100778 -104.75977242 74.07137424 -109.44335938 73.88110352 C-110.28382812 73.86305664 -111.12429687 73.84500977 -111.99023438 73.82641602 C-114.05843332 73.77941149 -116.12604378 73.70767076 -118.19335938 73.63110352 C-119.53904956 69.73942834 -120.86771937 65.84214954 -122.19335938 61.94360352 C-122.76570313 60.28941406 -122.76570313 60.28941406 -123.34960938 58.60180664 C-123.71054688 57.53510742 -124.07148437 56.4684082 -124.44335938 55.36938477 C-124.77851562 54.3901001 -125.11367187 53.41081543 -125.45898438 52.40185547 C-126.18149675 49.67586047 -126.33658676 47.43522712 -126.19335938 44.63110352 C-123.90228156 46.92218134 -123.44471959 48.4352476 -122.46679688 51.49829102 C-122.15742187 52.46637695 -121.84804687 53.43446289 -121.52929688 54.43188477 C-121.2121875 55.44637695 -120.89507812 56.46086914 -120.56835938 57.50610352 C-120.24351563 58.51286133 -119.91867188 59.51961914 -119.58398438 60.55688477 C-118.23948028 64.81071496 -117.19335938 68.13060909 -117.19335938 72.63110352 C-113.56335938 72.63110352 -109.93335937 72.63110352 -106.19335938 72.63110352 C-106 71.62950195 -105.80664062 70.62790039 -105.60742188 69.59594727 C-105.34455889 68.25346843 -105.08152912 66.91102225 -104.81835938 65.56860352 C-104.69203125 64.91182617 -104.56570312 64.25504883 -104.43554688 63.57836914 C-103.56951431 59.18325387 -102.47709384 54.92324181 -101.19335938 50.63110352 C-100.53335938 50.63110352 -99.87335938 50.63110352 -99.19335938 50.63110352 C-98.5445449 53.17204207 -97.89923038 55.71378624 -97.25585938 58.25610352 C-97.07345703 58.96895508 -96.89105469 59.68180664 -96.703125 60.41625977 C-95.68019138 64.47079665 -94.81378571 68.49057411 -94.19335938 72.63110352 C-90.56335938 72.63110352 -86.93335938 72.63110352 -83.19335938 72.63110352 C-82.82210937 70.89860352 -82.45085937 69.16610352 -82.06835938 67.38110352 C-79.91692292 57.99585175 -77.02690158 48.82865312 -74.19335938 39.63110352 C-77.16335937 39.30110352 -80.13335937 38.97110352 -83.19335938 38.63110352 C-83.19335938 38.30110352 -83.19335938 37.97110352 -83.19335938 37.63110352 C-79.23335937 37.63110352 -75.27335937 37.63110352 -71.19335938 37.63110352 C-71.19335938 33.34110352 -71.19335938 29.05110352 -71.19335938 24.63110352 C-68.38079656 24.60426039 -65.56848696 24.58434164 -62.75585938 24.56860352 C-61.95341797 24.56022461 -61.15097656 24.5518457 -60.32421875 24.54321289 C-58.28040717 24.53458921 -56.23652036 24.57882202 -54.19335938 24.63110352 C-53.19335938 25.63110352 -53.19335938 25.63110352 -53.09570312 28.13500977 C-53.10730469 29.1443457 -53.11890625 30.15368164 -53.13085938 31.19360352 C-53.13988281 32.20551758 -53.14890625 33.21743164 -53.15820312 34.26000977 C-53.16980469 35.0424707 -53.18140625 35.82493164 -53.19335938 36.63110352 C-52.56429687 36.58469727 -51.93523437 36.53829102 -51.28710938 36.49047852 C-45.03702474 36.22692073 -40.28346429 36.7959323 -35.19335938 40.63110352 C-31.19335938 45.53110352 -31.19335938 45.53110352 -31.19335938 49.63110352 C-27.89335937 49.63110352 -24.59335938 49.63110352 -21.19335938 49.63110352 C-20.53335938 48.31110352 -19.87335938 46.99110352 -19.19335938 45.63110352 C-18.19335938 44.63110352 -18.19335938 44.63110352 -15.25585938 44.44360352 C-12.19335938 44.63110352 -12.19335938 44.63110352 -10.19335938 46.63110352 C-10.06835938 49.25610352 -10.06835938 49.25610352 -10.19335938 51.63110352 C-11.134375 51.72907227 -12.07539063 51.82704102 -13.04492188 51.92797852 C-23.1162885 53.04742281 -23.1162885 53.04742281 -31.19335938 58.63110352 C-31.43182841 60.89333931 -31.43182841 60.89333931 -31.44335938 63.50610352 C-31.46914062 64.39040039 -31.49492187 65.27469727 -31.52148438 66.18579102 C-31.13328292 69.07881614 -30.46786488 69.87553858 -28.19335938 71.63110352 C-23.36040439 74.04758101 -16.53868717 72.99593817 -11.50585938 71.63110352 C-10.36117187 71.13610352 -10.36117187 71.13610352 -9.19335938 70.63110352 C-9.19335938 71.29110352 -9.19335938 71.95110352 -9.19335938 72.63110352 C-5.89335937 72.63110352 -2.59335938 72.63110352 0.80664062 72.63110352 C0.47664063 71.97110352 0.14664063 71.31110352 -0.19335938 70.63110352 C-0.33531686 68.70827473 -0.41951508 66.78103429 -0.47460938 64.85375977 C-0.53068359 63.12416016 -0.53068359 63.12416016 -0.58789062 61.35961914 C-0.64009766 59.54494141 -0.64009766 59.54494141 -0.69335938 57.69360352 C-0.76217219 55.30936695 -0.83490624 52.92523939 -0.91210938 50.54125977 C-0.94240234 49.48044189 -0.97269531 48.41962402 -1.00390625 47.32666016 C-1.0878921 44.53261049 -1.0878921 44.53261049 -2.19335938 41.63110352 C-8.19724455 38.02877241 -14.31915789 37.93372076 -21.19335938 38.63110352 C-23.20133689 39.27334236 -25.2026633 39.93714849 -27.19335938 40.63110352 C-27.29277034 36.61107722 -27.36508 32.59153389 -27.41308594 28.57055664 C-27.43311257 27.20486984 -27.4603427 25.83926783 -27.49511719 24.47387695 C-27.54402369 22.5032325 -27.56427285 20.53194369 -27.58398438 18.56079102 C-27.61540527 16.78551025 -27.61540527 16.78551025 -27.64746094 14.97436523 C-27.00226138 10.22417025 -25.24070838 7.53116561 -21.73574448 4.27834988 C-15.10368875 -0.60886482 -7.86797293 -0.06709817 0 0 Z " fill="#030314" transform="translate(192.193359375,203.368896484375)"/>
<path d="M0 0 C0.33 0 0.66 0 1 0 C1 7.59 1 15.18 1 23 C3.31 23 5.62 23 8 23 C8 20.36 8 17.72 8 15 C9.32 15 10.64 15 12 15 C12 18.3 12 21.6 12 25 C10.35 25.33 8.7 25.66 7 26 C6.67 27.98 6.34 29.96 6 32 C7.98 32 9.96 32 12 32 C12.01401855 33.02154175 12.01401855 33.02154175 12.02832031 34.0637207 C12.08198131 37.14738647 12.16563551 40.22952794 12.25 43.3125 C12.26417969 44.38435547 12.27835937 45.45621094 12.29296875 46.56054688 C12.32519531 47.58857422 12.35742188 48.61660156 12.390625 49.67578125 C12.41157227 50.62364502 12.43251953 51.57150879 12.45410156 52.5480957 C12.79281535 55.13061196 12.79281535 55.13061196 14.86328125 56.80078125 C17.55666624 58.31242511 19.67843009 58.50466846 22.75 58.6875 C24.22726562 58.78611328 24.22726562 58.78611328 25.734375 58.88671875 C26.48203125 58.92410156 27.2296875 58.96148437 28 59 C27.505 55.535 27.505 55.535 27 52 C25.35 51.67 23.7 51.34 22 51 C22 44.73 22 38.46 22 32 C23.98 32 25.96 32 28 32 C28 29.69 28 27.38 28 25 C26.35 25 24.7 25 23 25 C23 24.67 23 24.34 23 24 C24.98 24 26.96 24 29 24 C29.495 26.475 29.495 26.475 30 29 C30.68707031 28.65066406 31.37414062 28.30132812 32.08203125 27.94140625 C33.43361328 27.25884766 33.43361328 27.25884766 34.8125 26.5625 C36.15248047 25.88380859 36.15248047 25.88380859 37.51953125 25.19140625 C42.9982696 22.55988626 47.97690702 22.01523714 53.74609375 23.89453125 C56.19228927 24.87647924 58.60458227 25.90046399 61 27 C61 27.66 61 28.32 61 29 C61.66 29 62.32 29 63 29 C62.98839844 27.78441406 62.97679687 26.56882813 62.96484375 25.31640625 C62.95546722 23.73177236 62.94636687 22.14713682 62.9375 20.5625 C62.92912109 19.76005859 62.92074219 18.95761719 62.91210938 18.13085938 C62.9034857 16.08704779 62.9477185 14.04316098 63 12 C64 11 64 11 67.37890625 10.90234375 C68.77347077 10.90901631 70.16801743 10.92097468 71.5625 10.9375 C72.27341797 10.94201172 72.98433594 10.94652344 73.71679688 10.95117188 C75.47790013 10.96299136 77.23896036 10.98092737 79 11 C79 15.62 79 20.24 79 25 C80.65 24.67 82.3 24.34 84 24 C82.3545622 25.68762851 80.68711423 27.3540349 79 29 C78.67 29 78.34 29 78 29 C78 23.39 78 17.78 78 12 C74.7 12 71.4 12 68 12 C68 27.51 68 43.02 68 59 C71.3 59 74.6 59 78 59 C77.95359375 57.38609375 77.9071875 55.7721875 77.859375 54.109375 C77.82185689 51.98960183 77.78545678 49.86980866 77.75 47.75 C77.71648437 46.68652344 77.68296875 45.62304688 77.6484375 44.52734375 C77.62910156 42.99013672 77.62910156 42.99013672 77.609375 41.421875 C77.5779541 40.00793457 77.5779541 40.00793457 77.54589844 38.56542969 C78.13789408 35.22097256 79.34647474 34.05430364 82 32 C85.14522722 31.68547728 87.15916359 31.57958179 90 33 C91.01973129 36.05919388 91.11533602 38.12418025 91.09765625 41.32421875 C91.09282227 42.86625977 91.09282227 42.86625977 91.08789062 44.43945312 C91.07532227 46.04723633 91.07532227 46.04723633 91.0625 47.6875 C91.05798828 48.77095703 91.05347656 49.85441406 91.04882812 50.97070312 C91.03703743 53.64719085 91.02058063 56.32356777 91 59 C93.97 59 96.94 59 100 59 C99.97718868 54.43639449 99.89985829 49.87529047 99.8125 45.3125 C99.80669922 44.01892578 99.80089844 42.72535156 99.79492188 41.39257812 C99.75141602 39.52182617 99.75141602 39.52182617 99.70703125 37.61328125 C99.6913208 36.46641846 99.67561035 35.31955566 99.65942383 34.13793945 C98.8090358 30.09127622 97.15167846 28.59022676 94 26 C91.6025129 25.00484354 91.6025129 25.00484354 89.1875 24.6875 C88.00220703 24.47673828 88.00220703 24.47673828 86.79296875 24.26171875 C86.20128906 24.17535156 85.60960937 24.08898437 85 24 C85 23.67 85 23.34 85 23 C90.24009642 22.68559422 93.59229224 23.06152816 98 26 C102.80976258 30.9402263 102.42074354 35.80449854 102.3515625 42.48046875 C102.30128906 44.40826172 102.30128906 44.40826172 102.25 46.375 C102.23195313 47.68339844 102.21390625 48.99179687 102.1953125 50.33984375 C102.14829348 53.56064689 102.08258181 56.77994474 102 60 C99.08327116 60.02700675 96.16679323 60.04684237 93.25 60.0625 C92.425 60.07087891 91.6 60.07925781 90.75 60.08789062 C89.55117188 60.09272461 89.55117188 60.09272461 88.328125 60.09765625 C87.5949707 60.10289307 86.86181641 60.10812988 86.10644531 60.11352539 C84 60 84 60 81.79199219 59.43139648 C81.20063477 59.28903564 80.60927734 59.1466748 80 59 C79.67 59.33 79.34 59.66 79 60 C76.30345146 60.07319621 73.63308542 60.09242537 70.9375 60.0625 C69.79958008 60.05573242 69.79958008 60.05573242 68.63867188 60.04882812 C66.75908129 60.0370068 64.87953101 60.01907078 63 60 C62.67 58.35 62.34 56.7 62 55 C61.0925 55.804375 60.185 56.60875 59.25 57.4375 C54.50298578 61.64508079 49.23881642 61.32327172 43.12890625 61.30078125 C38.57148245 60.86267684 34.95156379 59.235228 31 57 C30.67 57.99 30.34 58.98 30 60 C23.80387247 62.06537584 16.96146758 61.63413684 11 59 C9.30792999 58.0436126 7.63183107 57.05589069 6 56 C6 57.65 6 59.3 6 61 C4.35 61 2.7 61 1 61 C1 66.28 1 71.56 1 77 C0.67 77 0.34 77 0 77 C0 71.39 0 65.78 0 60 C-1.65 60 -3.3 60 -5 60 C-5 59.01 -5 58.02 -5 57 C-5.94875 57.495 -6.8975 57.99 -7.875 58.5 C-13.05195886 60.6841936 -18.65478509 61.31158921 -23.97265625 59.2265625 C-26.59592352 57.47771765 -27.8662904 55.64661127 -28.5 52.58203125 C-28.69270339 48.50515026 -28.62282521 45.8897503 -26.25 42.5 C-22.20234954 39.80156636 -19.27243439 38.74771485 -14.375 38.4375 C-10.54278845 38.25661545 -10.54278845 38.25661545 -7 37 C-7 35.68 -7 34.36 -7 33 C-9.28705831 31.85647084 -10.59264762 31.89665561 -13.125 31.9375 C-14.40375 31.958125 -15.6825 31.97875 -17 32 C-17.33 33.32 -17.66 34.64 -18 36 C-20.97 36 -23.94 36 -27 36 C-26.68556351 32.5411986 -26.39397491 30.4890723 -24.1875 27.75 C-20.13715243 24.50972195 -17.33232439 23.73962396 -12.125 23.8125 C-10.61292969 23.82216797 -10.61292969 23.82216797 -9.0703125 23.83203125 C-6 24 -6 24 0 25 C0 16.75 0 8.5 0 0 Z " fill="#074544" transform="translate(347,217)"/>
<path d="M0 0 C2.81256281 -0.02684312 5.62487241 -0.04676188 8.4375 -0.0625 C9.23994141 -0.07087891 10.04238281 -0.07925781 10.86914062 -0.08789062 C12.91295221 -0.0965143 14.95683902 -0.0522815 17 0 C18 1 18 1 18.09765625 3.50390625 C18.08605469 4.51324219 18.07445312 5.52257812 18.0625 6.5625 C18.05347656 7.57441406 18.04445313 8.58632812 18.03515625 9.62890625 C18.02355469 10.41136719 18.01195312 11.19382813 18 12 C18.6290625 11.95359375 19.258125 11.9071875 19.90625 11.859375 C26.15633463 11.59581721 30.90989508 12.16482878 36 16 C40 20.9 40 20.9 40 25 C43.3 25 46.6 25 50 25 C50.66 23.68 51.32 22.36 52 21 C53 20 53 20 55.9375 19.8125 C59 20 59 20 61 22 C61.125 24.625 61.125 24.625 61 27 C60.05898437 27.09796875 59.11796875 27.1959375 58.1484375 27.296875 C48.07707088 28.4163193 48.07707088 28.4163193 40 34 C39.76153097 36.2622358 39.76153097 36.2622358 39.75 38.875 C39.72421875 39.75929688 39.6984375 40.64359375 39.671875 41.5546875 C40.0624093 44.4650979 40.76251721 45.18611832 43 47 C43.66 47.66 44.32 48.32 45 49 C44.98252073 51.75589777 44.86136729 54.38786676 44.625 57.125 C44.56828125 57.87910156 44.5115625 58.63320313 44.453125 59.41015625 C44.3115535 61.27418096 44.15700041 63.13721137 44 65 C43.67 65 43.34 65 43 65 C43 59.72 43 54.44 43 49 C28.81 49 14.62 49 0 49 C-0.495 40.09 -0.495 40.09 -1 31 C-2.93272435 36.54858587 -2.93272435 36.54858587 -4.85913086 42.09936523 C-5.10026611 42.78716064 -5.34140137 43.47495605 -5.58984375 44.18359375 C-5.83597412 44.89056396 -6.08210449 45.59753418 -6.33569336 46.32592773 C-7 48 -7 48 -8 49 C-10.86267567 49.07325168 -13.700719 49.09238205 -16.5625 49.0625 C-17.36880859 49.05798828 -18.17511719 49.05347656 -19.00585938 49.04882812 C-21.00393756 49.03700518 -23.00197783 49.01906914 -25 49 C-25 47.68 -25 46.36 -25 45 C-25.46921875 45.65484375 -25.9384375 46.3096875 -26.421875 46.984375 C-30.22778452 49.95990426 -33.56641305 49.44027072 -38.25 49.25 C-39.51070312 49.22292969 -39.51070312 49.22292969 -40.796875 49.1953125 C-42.86507395 49.14830798 -44.93268441 49.07656724 -47 49 C-48.34569019 45.10832482 -49.67436 41.21104602 -51 37.3125 C-51.57234375 35.65831055 -51.57234375 35.65831055 -52.15625 33.97070312 C-52.5171875 32.90400391 -52.878125 31.83730469 -53.25 30.73828125 C-53.58515625 29.75899658 -53.9203125 28.77971191 -54.265625 27.77075195 C-54.98813738 25.04475696 -55.14322738 22.80412361 -55 20 C-52.70892218 22.29107782 -52.25136022 23.80414409 -51.2734375 26.8671875 C-50.9640625 27.83527344 -50.6546875 28.80335938 -50.3359375 29.80078125 C-50.01882812 30.81527344 -49.70171875 31.82976562 -49.375 32.875 C-49.05015625 33.88175781 -48.7253125 34.88851562 -48.390625 35.92578125 C-47.0461209 40.17961144 -46 43.49950558 -46 48 C-42.37 48 -38.74 48 -35 48 C-34.80664062 46.99839844 -34.61328125 45.99679687 -34.4140625 44.96484375 C-34.15119951 43.62236492 -33.88816974 42.27991873 -33.625 40.9375 C-33.49867187 40.28072266 -33.37234375 39.62394531 -33.2421875 38.94726562 C-32.37615493 34.55215035 -31.28373447 30.29213829 -30 26 C-29.34 26 -28.68 26 -28 26 C-27.35118552 28.54093855 -26.70587101 31.08268273 -26.0625 33.625 C-25.88009766 34.33785156 -25.69769531 35.05070312 -25.50976562 35.78515625 C-24.48683201 39.83969313 -23.62042633 43.85947059 -23 48 C-19.37 48 -15.74 48 -12 48 C-11.62875 46.2675 -11.2575 44.535 -10.875 42.75 C-8.72356355 33.36474824 -5.8335422 24.1975496 -3 15 C-5.97 14.67 -8.94 14.34 -12 14 C-12 13.67 -12 13.34 -12 13 C-8.04 13 -4.08 13 0 13 C0 8.71 0 4.42 0 0 Z " fill="#34343B" transform="translate(121,228)"/>
<path d="M0 0 C2.91672884 -0.02700675 5.83320677 -0.04684237 8.75 -0.0625 C9.9875 -0.07506836 9.9875 -0.07506836 11.25 -0.08789062 C12.04921875 -0.09111328 12.8484375 -0.09433594 13.671875 -0.09765625 C14.4050293 -0.10289307 15.13818359 -0.10812988 15.89355469 -0.11352539 C18 0 18 0 20.20800781 0.56860352 C21.09504395 0.78214478 21.09504395 0.78214478 22 1 C22.33 0.67 22.66 0.34 23 0 C25.34539987 -0.10383281 27.65440898 -0.14038813 30 -0.125 C30.70318359 -0.12306641 31.40636719 -0.12113281 32.13085938 -0.11914062 C40.10412764 -0.05580487 48.04791052 0.44886509 56 1 C54.03114957 8.37455381 51.96065911 15.72030674 49.875 23.0625 C49.60929199 24.00311279 49.34358398 24.94372559 49.06982422 25.9128418 C48.8173291 26.79883057 48.56483398 27.68481934 48.3046875 28.59765625 C48.07765137 29.39695557 47.85061523 30.19625488 47.61669922 31.01977539 C47 33 47 33 46 35 C42.37 35 38.74 35 35 35 C34.15583837 32.46148538 33.32452701 29.91989146 32.5 27.375 C32.26152344 26.66214844 32.02304688 25.94929688 31.77734375 25.21484375 C30.42618192 21.00693976 29.71749956 17.47763202 30 13 C29.34 13 28.68 13 28 13 C27.87753906 13.99128906 27.75507812 14.98257813 27.62890625 16.00390625 C27.04696755 20.07747712 26.03735788 23.97723435 24.9375 27.9375 C24.75123047 28.62134766 24.56496094 29.30519531 24.37304688 30.00976562 C23.91910943 31.67420293 23.46009084 33.33725312 23 35 C19.37 35 15.74 35 12 35 C10.66212755 30.70973483 9.33047065 26.41756578 8 22.125 C7.6184375 20.90167969 7.236875 19.67835938 6.84375 18.41796875 C6.4828125 17.25136719 6.121875 16.08476562 5.75 14.8828125 C5.41484375 13.80402832 5.0796875 12.72524414 4.734375 11.61376953 C4 9 4 9 4 7 C3.34 7 2.68 7 2 7 C1.34 4.69 0.68 2.38 0 0 Z " fill="#F7F6F8" transform="translate(63,241)"/>
<path d="M0 0 C3.3 0 6.6 0 10 0 C10.81391255 2.58289592 11.62617929 5.16628997 12.4375 7.75 C12.66759766 8.47960937 12.89769531 9.20921875 13.13476562 9.9609375 C13.35712891 10.66992188 13.57949219 11.37890625 13.80859375 12.109375 C14.01282959 12.75874023 14.21706543 13.40810547 14.42749023 14.07714844 C15.01039016 16.03489677 15.50457678 18.01830712 16 20 C17.98 13.4 19.96 6.8 22 0 C25.63 0 29.26 0 33 0 C33.64779076 2.39531933 34.29329009 4.79121748 34.9375 7.1875 C35.21110352 8.19780273 35.21110352 8.19780273 35.49023438 9.22851562 C36.4488358 12.80148458 37.32883282 16.36156738 38 20 C40.24538034 16.15655618 41.1026736 12.0361981 42.125 7.75 C42.30675781 7.00492188 42.48851562 6.25984375 42.67578125 5.4921875 C43.12147499 3.6624974 43.56131959 1.83138425 44 0 C47.3 0 50.6 0 54 0 C52.52691648 7.11373498 50.57976546 13.99832673 48.4375 20.9375 C48.12103516 21.97712891 47.80457031 23.01675781 47.47851562 24.08789062 C45.13928571 31.72142857 45.13928571 31.72142857 44 34 C40.7 34 37.4 34 34 34 C31.77003623 29.0864122 30.13066818 24.28901118 28.8125 19.0625 C28.63525391 18.37865234 28.45800781 17.69480469 28.27539062 16.99023438 C27.84532579 15.3280919 27.42194563 13.66422212 27 12 C26.73445313 13.08539063 26.46890625 14.17078125 26.1953125 15.2890625 C25.83866918 16.73440647 25.4818912 18.17971722 25.125 19.625 C24.86396484 20.69427734 24.86396484 20.69427734 24.59765625 21.78515625 C23.57145662 25.92796216 22.41209271 29.96726678 21 34 C17.37 34 13.74 34 10 34 C8.7047844 29.83442822 7.4144702 25.66735353 6.125 21.5 C5.76019531 20.32695312 5.39539063 19.15390625 5.01953125 17.9453125 C3.18066094 11.99405949 1.42595993 6.06408223 0 0 Z " fill="#24F4E1" transform="translate(263,242)"/>
<path d="M0 0 C4.80132174 1.60044058 7.18211757 3.82535936 10 8 C11.69444616 13.08333849 11.8184046 17.25644238 9.5625 22.0625 C4.57540052 27.77941891 -1.70379912 31.85372137 -8 36 C-8.66 36.66 -9.32 37.32 -10 38 C-3.07 38.33 3.86 38.66 11 39 C11 41.64 11 44.28 11 47 C-0.88 47 -12.76 47 -25 47 C-24.00926748 39.07413986 -23.44728705 36.25615417 -18 31 C-15.29487921 29.14912788 -12.51824568 27.47348373 -9.70703125 25.7890625 C-5.82779944 23.22529891 -2.18800442 20.16373976 0 16 C-0.26089371 12.63848488 -0.59123928 11.40876072 -3 9 C-7.65977375 8.50657172 -7.65977375 8.50657172 -11.875 10.1875 C-13.26229035 12.4225789 -13.64987213 14.40905378 -14 17 C-16.97 17 -19.94 17 -23 17 C-23.96253177 14.43324861 -24.19998029 12.61921609 -23.3515625 9.9921875 C-21.3204368 5.58870699 -19.57042965 3.0446659 -15 1 C-10.60423075 -1.19788463 -4.7976208 -0.32139969 0 0 Z " fill="#F20404" transform="translate(249,229)"/>
<path d="M0 0 C0.33 0 0.66 0 1 0 C1 8.91 1 17.82 1 27 C2.98 26.01 4.96 25.02 7 24 C14.58265875 22.8777665 20.61189135 23.78143768 27 28 C28.1007076 31.3021228 28.20627072 33.94083279 28.31640625 37.41796875 C28.35830078 38.67158203 28.40019531 39.92519531 28.44335938 41.21679688 C28.48267578 42.52712891 28.52199219 43.83746094 28.5625 45.1875 C28.60570992 46.52279978 28.649325 47.85808652 28.69335938 49.19335938 C28.79956502 52.46213297 28.90160997 55.73098333 29 59 C25.7 59 22.4 59 19 59 C19 58.34 19 57.68 19 57 C18.236875 57.495 17.47375 57.99 16.6875 58.5 C11.7128323 60.52359364 7.3074297 60.61394925 2 60 C-1.11937969 58.62747293 -2.4897715 58.020457 -4 55 C-5.17397726 46.60383354 -5.17397726 46.60383354 -2.73046875 43.265625 C1.9061647 39.42996716 5.24886061 38.81143614 11.125 38.4375 C12.40632813 38.35371094 13.68765625 38.26992187 15.0078125 38.18359375 C16.48894531 38.09271484 16.48894531 38.09271484 18 38 C17.34 36.02 16.68 34.04 16 32 C13.12586875 31.66602213 13.12586875 31.66602213 10 32 C9.54625 32.66 9.0925 33.32 8.625 34 C7 36 7 36 4.51953125 36.390625 C3.62621094 36.34421875 2.73289063 36.2978125 1.8125 36.25 C0.91144531 36.21390625 0.01039063 36.1778125 -0.91796875 36.140625 C-1.60503906 36.09421875 -2.29210937 36.0478125 -3 36 C-3.66 34.02 -4.32 32.04 -5 30 C-3.68 29.34 -2.36 28.68 -1 28 C-0.67 18.76 -0.34 9.52 0 0 Z " fill="#F2F2F3" transform="translate(164,217)"/>
<path d="M0 0 C5.02248423 2.2720762 5.02248423 2.2720762 6.5793457 5.49682617 C7.58487766 8.50813394 7.8074951 10.96046962 7.88671875 14.12890625 C7.92087891 15.2271875 7.95503906 16.32546875 7.99023438 17.45703125 C8.01666016 18.59398437 8.04308594 19.7309375 8.0703125 20.90234375 C8.13020383 23.16547146 8.19383169 25.42850428 8.26171875 27.69140625 C8.28564697 28.69123535 8.3095752 29.69106445 8.33422852 30.72119141 C8.40848974 33.39808496 8.40848974 33.39808496 9.5078125 36.27734375 C7.8578125 36.27734375 6.2078125 36.27734375 4.5078125 36.27734375 C4.5078125 41.55734375 4.5078125 46.83734375 4.5078125 52.27734375 C4.1778125 52.27734375 3.8478125 52.27734375 3.5078125 52.27734375 C3.5078125 46.66734375 3.5078125 41.05734375 3.5078125 35.27734375 C1.8578125 35.27734375 0.2078125 35.27734375 -1.4921875 35.27734375 C-1.4921875 34.28734375 -1.4921875 33.29734375 -1.4921875 32.27734375 C-2.4409375 32.77234375 -3.3896875 33.26734375 -4.3671875 33.77734375 C-9.54414636 35.96153735 -15.14697259 36.58893296 -20.46484375 34.50390625 C-23.08811102 32.7550614 -24.3584779 30.92395502 -24.9921875 27.859375 C-25.18489089 23.78249401 -25.11501271 21.16709405 -22.7421875 17.77734375 C-18.69453704 15.07891011 -15.76462189 14.0250586 -10.8671875 13.71484375 C-7.03497595 13.5339592 -7.03497595 13.5339592 -3.4921875 12.27734375 C-3.4921875 10.95734375 -3.4921875 9.63734375 -3.4921875 8.27734375 C-5.77924581 7.13381459 -7.08483512 7.17399936 -9.6171875 7.21484375 C-10.8959375 7.23546875 -12.1746875 7.25609375 -13.4921875 7.27734375 C-13.8221875 8.59734375 -14.1521875 9.91734375 -14.4921875 11.27734375 C-17.4621875 11.27734375 -20.4321875 11.27734375 -23.4921875 11.27734375 C-23.17775101 7.81854235 -22.88616241 5.76641605 -20.6796875 3.02734375 C-14.64364317 -1.80149172 -7.35923149 -2.13394643 0 0 Z " fill="#1BFBE6" transform="translate(343.4921875,241.72265625)"/>
<path d="M0 0 C3.3 0 6.6 0 10 0 C10.33 5.28 10.66 10.56 11 16 C12.32 14.35 13.64 12.7 15 11 C26.85417709 12.57778889 26.85417709 12.57778889 31 17 C32.40912096 19.81824192 32.11183553 22.17251282 32.09765625 25.3203125 C32.09443359 26.57714844 32.09121094 27.83398438 32.08789062 29.12890625 C32.07532227 31.10697266 32.07532227 31.10697266 32.0625 33.125 C32.05748489 34.46484211 32.05292201 35.804686 32.04882812 37.14453125 C32.03701086 40.42973206 32.02053617 43.71484397 32 47 C29.03 47 26.06 47 23 47 C22.505 34.13 22.505 34.13 22 21 C14.76544397 20.31983067 14.76544397 20.31983067 12.03198242 22.16723633 C10.64463589 24.63111388 10.56627992 26.50066703 10.48828125 29.32421875 C10.45283203 30.35224609 10.41738281 31.38027344 10.38085938 32.43945312 C10.34702148 34.04723633 10.34702148 34.04723633 10.3125 35.6875 C10.27833984 36.77095703 10.24417969 37.85441406 10.20898438 38.97070312 C10.1264625 41.64676977 10.06155614 44.32336903 10 47 C6.7 47 3.4 47 0 47 C0 31.49 0 15.98 0 0 Z " fill="#3DDDCC" transform="translate(415,229)"/>
<path d="M0 0 C2.97 0 5.94 0 9 0 C9.33 5.28 9.66 10.56 10 16 C10.99 15.01 11.98 14.02 13 13 C17.77688661 11.83165931 22.39483583 11.36462251 27 13.1875 C30.09778404 15.99486679 31.85884283 17.74648382 32.34057617 22.02441406 C32.3170105 23.75256348 32.3170105 23.75256348 32.29296875 25.515625 C32.2784668 27.39121094 32.2784668 27.39121094 32.26367188 29.3046875 C32.23853516 30.60664063 32.21339844 31.90859375 32.1875 33.25 C32.16719727 35.22613281 32.16719727 35.22613281 32.14648438 37.2421875 C32.11112551 40.49520321 32.06177033 43.747396 32 47 C28.7 47 25.4 47 22 47 C21.98018066 46.28344238 21.96036133 45.56688477 21.93994141 44.82861328 C21.84490481 41.5936937 21.73513981 38.35943906 21.625 35.125 C21.5940625 33.99707031 21.563125 32.86914062 21.53125 31.70703125 C21.49257812 30.63066406 21.45390625 29.55429687 21.4140625 28.4453125 C21.36693115 26.95281982 21.36693115 26.95281982 21.31884766 25.43017578 C21.22752917 22.82145483 21.22752917 22.82145483 19 21 C16.04253508 20.41654524 16.04253508 20.41654524 13 21 C8.9698468 25.52675975 9.44728194 31.0784913 9.3125 36.8125 C9.27833984 37.79154297 9.24417969 38.77058594 9.20898438 39.77929688 C9.12681099 42.18580324 9.06172097 44.59288225 9 47 C6.03 47 3.06 47 0 47 C0 31.49 0 15.98 0 0 Z " fill="#FAFAFA" transform="translate(123,229)"/>
<path d="M0 0 C0.804375 0.721875 1.60875 1.44375 2.4375 2.1875 C3.3346875 2.8990625 3.3346875 2.8990625 4.25 3.625 C5.83371959 5.70884157 6.09130469 7.62565472 6.4375 10.1875 C3.40526294 10.41634808 0.46146426 10.55667337 -2.5625 10.1875 C-4.1875 8.1875 -4.1875 8.1875 -5.5625 6.1875 C-10.16245791 5.56655211 -10.16245791 5.56655211 -14.265625 7.375 C-16.05096644 9.87017598 -15.89498575 11.58540022 -15.8125 14.625 C-15.79703125 15.57246094 -15.7815625 16.51992188 -15.765625 17.49609375 C-15.61988717 20.43632329 -15.61988717 20.43632329 -14.5625 24.1875 C-11.2625 24.1875 -7.9625 24.1875 -4.5625 24.1875 C-4.2325 22.5375 -3.9025 20.8875 -3.5625 19.1875 C-0.5925 19.1875 2.3775 19.1875 5.4375 19.1875 C5.92950541 21.89352977 5.76842501 23.6347722 4.34765625 26.0078125 C0.89964754 30.37955829 -1.88231923 32.417306 -7.5625 33.1875 C-13.58007062 33.25062137 -17.935872 32.276148 -22.5625 28.1875 C-26.87886245 22.84884118 -27.23813834 18.08165014 -27.01171875 11.2890625 C-26.16927484 5.47253673 -23.55390628 2.69319743 -19 -0.75 C-12.55093219 -2.74334823 -6.08213188 -3.09441797 0 0 Z " fill="#21F9E8" transform="translate(404.5625,243.8125)"/>
<path d="M0 0 C4.62 0 9.24 0 14 0 C14 3.63 14 7.26 14 11 C15.65 11 17.3 11 19 11 C19 13.31 19 15.62 19 18 C17.02 18 15.04 18 13 18 C13 24.27 13 30.54 13 37 C14.65 37 16.3 37 18 37 C19 38 19 38 19.0625 41.5625 C19.041875 42.696875 19.02125 43.83125 19 45 C17.27225692 45.10892951 15.54249052 45.18601092 13.8125 45.25 C12.84957031 45.29640625 11.88664062 45.3428125 10.89453125 45.390625 C6.89499579 44.85087662 5.53415877 44.19524367 3 41 C2.38308108 37.06747993 2.53118811 33.21791731 2.6875 29.25 C2.72133789 27.63158203 2.72133789 27.63158203 2.75585938 25.98046875 C2.8147435 23.3189065 2.89692999 20.66015772 3 18 C1.02 18 -0.96 18 -3 18 C-3.04254356 16.00045254 -3.04080783 13.99958364 -3 12 C-2.67 11.67 -2.34 11.34 -2 11 C-0.35 11 1.3 11 3 11 C3 7.7 3 4.4 3 1 C2.01 0.67 1.02 0.34 0 0 Z " fill="#13FBE9" transform="translate(356,231)"/>
<path d="M0 0 C3.63 0 7.26 0 11 0 C11 3.3 11 6.6 11 10 C12.98 10 14.96 10 17 10 C17 12.31 17 14.62 17 17 C15.02 17 13.04 17 11 17 C11.33 23.27 11.66 29.54 12 36 C13.65 36.33 15.3 36.66 17 37 C17 39.31 17 41.62 17 44 C15.08529156 44.13547465 13.16781519 44.23220869 11.25 44.3125 C10.18265625 44.37050781 9.1153125 44.42851562 8.015625 44.48828125 C5 44 5 44 2.625 42.1875 C0.18536392 37.40205999 0.574182 32.97218337 0.75 27.6875 C0.76804688 26.66076172 0.78609375 25.63402344 0.8046875 24.57617188 C0.85168937 22.04982115 0.91737728 19.52539531 1 17 C-0.98 17 -2.96 17 -5 17 C-5 14.69 -5 12.38 -5 10 C-3.35 10 -1.7 10 0 10 C0 6.7 0 3.4 0 0 Z " fill="#F2F2F4" transform="translate(200,232)"/>
<path d="M0 0 C1.32 0.33 2.64 0.66 4 1 C3.67 11.56 3.34 22.12 3 33 C-2.94 33.495 -2.94 33.495 -9 34 C-9.495 36.475 -9.495 36.475 -10 39 C-12.79870027 40.39935013 -14.90498792 40.25265405 -18 40 C-20.03667615 38.45493534 -20.86073078 37.27853844 -22 35 C-22.91302455 25.57040222 -22.91302455 25.57040222 -20.4375 21.3125 C-17.04833828 19.48756676 -14.78703318 19.44915881 -11 20 C-10.54625 20.639375 -10.0925 21.27875 -9.625 21.9375 C-8.19699993 24.196101 -8.19699993 24.196101 -5.82421875 24.48828125 C-3.54764344 24.72549827 -1.28667055 24.90412283 1 25 C0.505 24.071875 0.01 23.14375 -0.5 22.1875 C-2 19 -2 19 -2 16 C-1.34 16.33 -0.68 16.66 0 17 C0 11.39 0 5.78 0 0 Z " fill="#010816" transform="translate(410,229)"/>
<path d="M0 0 C0.33 0 0.66 0 1 0 C1 7.59 1 15.18 1 23 C3.31 23 5.62 23 8 23 C8 20.36 8 17.72 8 15 C9.32 15 10.64 15 12 15 C12 18.3 12 21.6 12 25 C10.35 25.33 8.7 25.66 7 26 C6.67 27.98 6.34 29.96 6 32 C7.98 32 9.96 32 12 32 C11.99887207 32.67579102 11.99774414 33.35158203 11.99658203 34.04785156 C12.00870382 37.1162459 12.06635545 40.18215693 12.125 43.25 C12.12242187 44.31347656 12.11984375 45.37695312 12.1171875 46.47265625 C12.02963819 51.93663205 12.02963819 51.93663205 14.39355469 56.59179688 C16.20509278 57.82966017 16.20509278 57.82966017 19 59 C19 59.33 19 59.66 19 60 C13.28341664 60.45732667 10.51350747 59.52273754 6 56 C5.67 57.32 5.34 58.64 5 60 C3.7026984 57.40539679 3.82301117 55.41435797 3.75390625 52.51171875 C3.72103516 51.41279297 3.68816406 50.31386719 3.65429688 49.18164062 C3.59340924 46.86402397 3.5360806 44.54631091 3.48242188 42.22851562 C3.43118164 40.57432617 3.43118164 40.57432617 3.37890625 38.88671875 C3.3538501 37.87826904 3.32879395 36.86981934 3.30297852 35.83081055 C2.98382875 32.84890765 2.37171595 30.66326097 1 28 C-1.52372901 26.63921965 -1.52372901 26.63921965 -4 26 C-2.68 25.67 -1.36 25.34 0 25 C0 16.75 0 8.5 0 0 Z " fill="#000C13" transform="translate(347,217)"/>
<path d="M0 0 C2.64 0 5.28 0 8 0 C8.19590444 3.47874757 8.38031592 6.95800904 8.5625 10.4375 C8.61857422 11.43072266 8.67464844 12.42394531 8.73242188 13.44726562 C8.78076172 14.39150391 8.82910156 15.33574219 8.87890625 16.30859375 C8.9260376 17.18314209 8.97316895 18.05769043 9.02172852 18.95874023 C9 21 9 21 8 22 C7.84285346 23.63256758 7.74914586 25.27135338 7.68359375 26.91015625 C7.64169922 27.89951172 7.59980469 28.88886719 7.55664062 29.90820312 C7.51732422 30.94912109 7.47800781 31.99003906 7.4375 33.0625 C7.37272461 34.62967773 7.37272461 34.62967773 7.30664062 36.22851562 C7.20018775 38.81886884 7.0981724 41.40932186 7 44 C4.69 44 2.38 44 0 44 C0 29.48 0 14.96 0 0 Z " fill="#12FBE2" transform="translate(416,230)"/>
<path d="M0 0 C3 0.4375 3 0.4375 4.66918945 1.6184082 C6.516351 4.14330285 6.34227397 5.87424015 6.29296875 8.98046875 C6.28330078 10.05361328 6.27363281 11.12675781 6.26367188 12.23242188 C6.23853516 13.35197266 6.21339844 14.47152344 6.1875 15.625 C6.17396484 16.75615234 6.16042969 17.88730469 6.14648438 19.05273438 C6.11110305 21.84785882 6.05729579 24.64273889 6 27.4375 C2.04 27.4375 -1.92 27.4375 -6 27.4375 C-6.08087991 23.68706845 -6.14044597 19.93837814 -6.1875 16.1875 C-6.21263672 15.12402344 -6.23777344 14.06054688 -6.26367188 12.96484375 C-6.27333984 11.94003906 -6.28300781 10.91523438 -6.29296875 9.859375 C-6.3086792 8.91674805 -6.32438965 7.97412109 -6.34057617 7.00292969 C-5.76632268 2.67729838 -4.35328623 0.63485424 0 0 Z " fill="#050513" transform="translate(139,248.5625)"/>
<path d="M0 0 C2.91672884 -0.02700675 5.83320677 -0.04684237 8.75 -0.0625 C9.9875 -0.07506836 9.9875 -0.07506836 11.25 -0.08789062 C12.04921875 -0.09111328 12.8484375 -0.09433594 13.671875 -0.09765625 C14.4050293 -0.10289307 15.13818359 -0.10812988 15.89355469 -0.11352539 C18 0 18 0 20.20800781 0.56860352 C21.09504395 0.78214478 21.09504395 0.78214478 22 1 C22.33 0.67 22.66 0.34 23 0 C25.5751945 -0.12772014 28.11173199 -0.18521854 30.6875 -0.1875 C31.39583984 -0.19974609 32.10417969 -0.21199219 32.83398438 -0.22460938 C37.27954217 -0.23692394 40.81008865 0.33063374 45 2 C44.39700836 9.23589973 42.8849413 15.99370876 41 23 C40.34 23 39.68 23 39 23 C38.35118552 20.45906145 37.70587101 17.91731727 37.0625 15.375 C36.78889648 14.30572266 36.78889648 14.30572266 36.50976562 13.21484375 C35.48683201 9.16030687 34.62042633 5.14052941 34 1 C30.7 1.33 27.4 1.66 24 2 C22.35 8.93 20.7 15.86 19 23 C18.34 23 17.68 23 17 23 C16.16285091 19.70929159 15.33093104 16.41728353 14.5 13.125 C14.26152344 12.18785156 14.02304688 11.25070313 13.77734375 10.28515625 C13.55175781 9.38925781 13.32617188 8.49335938 13.09375 7.5703125 C12.88427734 6.74289551 12.67480469 5.91547852 12.45898438 5.06298828 C12 3 12 3 12 1 C8.7 1 5.4 1 2 1 C2.33 2.98 2.66 4.96 3 7 C0.64046906 4.64046906 0.50858587 3.22104383 0 0 Z " fill="#1B1B23" transform="translate(63,241)"/>
<path d="M0 0 C2.23413013 3.35119519 2.23847762 4.4177755 2.1953125 8.32421875 C2.18564453 9.86625977 2.18564453 9.86625977 2.17578125 11.43945312 C2.15902344 12.51130859 2.14226562 13.58316406 2.125 14.6875 C2.11597656 15.77095703 2.10695313 16.85441406 2.09765625 17.97070312 C2.0740734 20.6473571 2.04116126 23.32356797 2 26 C-1.56418452 26.33155205 -3.62502899 26.18851282 -6.8515625 24.56640625 C-9.9964859 20.8096523 -9.59343096 17.67895831 -9.375 12.9375 C-9.36082031 12.12216797 -9.34664063 11.30683594 -9.33203125 10.46679688 C-9.24693921 7.0148963 -9.10063003 4.3018901 -8 1 C-5.21136993 -0.39431504 -3.07921132 -0.25660094 0 0 Z " fill="#020514" transform="translate(435,251)"/>
<path d="M0 0 C1.41623216 -0.05447047 2.83308191 -0.09300508 4.25 -0.125 C5.03890625 -0.14820313 5.8278125 -0.17140625 6.640625 -0.1953125 C9.34567109 0.02861516 10.76439323 0.45724657 13 2 C15.66143278 5.69790103 16.36562323 8.20948518 16.29296875 12.73828125 C16.28330078 13.80498047 16.27363281 14.87167969 16.26367188 15.97070312 C16.23853516 17.07349609 16.21339844 18.17628906 16.1875 19.3125 C16.16719727 20.99569336 16.16719727 20.99569336 16.14648438 22.71289062 C16.1112138 25.47575229 16.06192235 28.23762829 16 31 C13.69 31 11.38 31 9 31 C8.67 22.75 8.34 14.5 8 6 C3.545 5.01 3.545 5.01 -1 4 C-0.67 2.68 -0.34 1.36 0 0 Z " fill="#0EFCE1" transform="translate(430,243)"/>
<path d="M0 0 C0.33 0.66 0.66 1.32 1 2 C-1.29629994 3.14814997 -3.07698086 3.30769809 -5.625 3.5625 C-6.44226563 3.64628906 -7.25953125 3.73007812 -8.1015625 3.81640625 C-9.04128906 3.90728516 -9.04128906 3.90728516 -10 4 C-8.02 4 -6.04 4 -4 4 C-4 4.33 -4 4.66 -4 5 C-1.525 5.495 -1.525 5.495 1 6 C1.25 13.625 1.25 13.625 -1 17 C-3.05859375 17.58203125 -3.05859375 17.58203125 -5.4375 17.8125 C-6.21996094 17.90144531 -7.00242187 17.99039062 -7.80859375 18.08203125 C-10 18 -10 18 -13 16 C-13.29296875 13.6171875 -13.29296875 13.6171875 -13.1875 10.875 C-13.14689453 9.50988281 -13.14689453 9.50988281 -13.10546875 8.1171875 C-13.07066406 7.41851562 -13.03585937 6.71984375 -13 6 C-14.65 6.33 -16.3 6.66 -18 7 C-18.06058594 7.69867188 -18.12117188 8.39734375 -18.18359375 9.1171875 C-18.30927734 10.48230469 -18.30927734 10.48230469 -18.4375 11.875 C-18.51871094 12.77992188 -18.59992188 13.68484375 -18.68359375 14.6171875 C-19 17 -19 17 -20 19 C-21.64965169 17.35034831 -21.24949498 15.4523645 -21.3125 13.1875 C-21.26447178 8.37781683 -21.26447178 8.37781683 -19.25 5.5 C-15.20234954 2.80156636 -12.27243439 1.74771485 -7.375 1.4375 C-3.54278845 1.25661545 -3.54278845 1.25661545 0 0 Z " fill="#34D7CB" transform="translate(340,254)"/>
<path d="M0 0 C1.670625 0.061875 1.670625 0.061875 3.375 0.125 C3.045 3.095 2.715 6.065 2.375 9.125 C8.645 9.125 14.915 9.125 21.375 9.125 C21.375 10.445 21.375 11.765 21.375 13.125 C11.475 13.125 1.575 13.125 -8.625 13.125 C-8.625 11.145 -8.625 9.165 -8.625 7.125 C-7.965 7.125 -7.305 7.125 -6.625 7.125 C-6.50125 6.34125 -6.3775 5.5575 -6.25 4.75 C-5.24817417 0.54233152 -4.32269173 0.14905834 0 0 Z " fill="#F70202" transform="translate(235.625,260.875)"/>
<path d="M0 0 C1.91015625 0.82421875 1.91015625 0.82421875 4.66015625 2.32421875 C4.00015625 2.98421875 3.34015625 3.64421875 2.66015625 4.32421875 C2.09683594 3.99808594 1.53351563 3.67195312 0.953125 3.3359375 C-1.58139774 2.21763871 -3.27521677 2.08668008 -6.02734375 2.13671875 C-6.81496094 2.14316406 -7.60257812 2.14960938 -8.4140625 2.15625 C-10.34683739 2.11688206 -10.34683739 2.11688206 -11.33984375 3.32421875 C-10.7365625 3.37578125 -10.13328125 3.42734375 -9.51171875 3.48046875 C-3.09269194 4.39155643 -3.09269194 4.39155643 -0.8515625 7.16796875 C0.5123539 9.90572093 1.66015625 12.23624504 1.66015625 15.32421875 C-2.06626897 18.17383803 -4.70653577 18.71854283 -9.33984375 18.32421875 C-11.61341632 17.8821352 -13.26869666 17.35979229 -15.33984375 16.32421875 C-13.52868419 14.51305919 -10.72706148 14.94222427 -8.27734375 14.76171875 C-7.17261719 14.67792969 -6.06789063 14.59414063 -4.9296875 14.5078125 C-4.07503906 14.44722656 -3.22039062 14.38664062 -2.33984375 14.32421875 C-2.68211947 11.35356366 -2.68211947 11.35356366 -3.33984375 8.32421875 C-5.62690206 7.18068959 -6.93249137 7.22087436 -9.46484375 7.26171875 C-10.74359375 7.28234375 -12.02234375 7.30296875 -13.33984375 7.32421875 C-13.66984375 8.64421875 -13.99984375 9.96421875 -14.33984375 11.32421875 C-17.30984375 11.32421875 -20.27984375 11.32421875 -23.33984375 11.32421875 C-23.02540726 7.86541735 -22.73381866 5.81329105 -20.52734375 3.07421875 C-14.59504391 -1.67162112 -7.25797567 -2.09621 0 0 Z " fill="#3AEADF" transform="translate(343.33984375,241.67578125)"/>
<path d="M0 0 C4.29 0 8.58 0 13 0 C13 4.62 13 9.24 13 14 C12.34 14 11.68 14 11 14 C10.83177734 15.50240234 10.83177734 15.50240234 10.66015625 17.03515625 C10.08827965 21.03829247 8.84634175 24.64446451 7.4375 28.4375 C6.98246094 29.67371094 6.52742188 30.90992188 6.05859375 32.18359375 C5.70925781 33.11300781 5.35992187 34.04242188 5 35 C3.35 35 1.7 35 0 35 C2.33135209 23.79314959 5.63254564 12.93060428 9 2 C6.03 1.67 3.06 1.34 0 1 C0 0.67 0 0.34 0 0 Z " fill="#111018" transform="translate(109,241)"/>
<path d="M0 0 C3.3 0 6.6 0 10 0 C8.52143235 7.16134532 6.5420279 14.08132273 4.375 21.0625 C4.05015625 22.11888672 3.7253125 23.17527344 3.390625 24.26367188 C2.59685528 26.84342348 1.79992286 29.42215108 1 32 C-0.15469014 28.05842614 0.17754443 25.03750918 1 21 C1.66 20.34 2.32 19.68 3 19 C2.6814823 16.89179203 2.6814823 16.89179203 2 15 C1.01 16.485 1.01 16.485 0 18 C-0.66 18 -1.32 18 -2 18 C-2 19.32 -2 20.64 -2 22 C-2.66 22 -3.32 22 -4 22 C-3.3622098 14.47407567 -1.80110167 7.32901118 0 0 Z " fill="#1FFCE8" transform="translate(307,242)"/>
<path d="M0 0 C0.66 0.33 1.32 0.66 2 1 C1.125 5.875 1.125 5.875 0 7 C-0.39666227 9.18019479 -0.74315237 11.3696463 -1.0625 13.5625 C-1.23910156 14.76003906 -1.41570312 15.95757812 -1.59765625 17.19140625 C-1.73042969 18.11824219 -1.86320312 19.04507812 -2 20 C-3.64574566 20.02688151 -5.29161413 20.04634123 -6.9375 20.0625 C-7.85402344 20.07410156 -8.77054687 20.08570313 -9.71484375 20.09765625 C-12 20 -12 20 -13 19 C-13.23527773 16.65012738 -13.41386417 14.29443961 -13.5625 11.9375 C-13.64628906 10.64714844 -13.73007812 9.35679687 -13.81640625 8.02734375 C-13.87699219 7.02832031 -13.93757813 6.02929688 -14 5 C-12 5 -12 5 -10.375 6.375 C-9 8 -9 8 -9 10 C-8.34 10 -7.68 10 -7 10 C-6.67 8.68 -6.34 7.36 -6 6 C-6 6.66 -6 7.32 -6 8 C-5.34 8 -4.68 8 -4 8 C-4 6.68 -4 5.36 -4 4 C-3.34 4 -2.68 4 -2 4 C-1.34 2.68 -0.68 1.36 0 0 Z " fill="#1DF9E4" transform="translate(309,256)"/>
<path d="M0 0 C0.66 0.33 1.32 0.66 2 1 C0 4 0 4 -2.5 4.875 C-5.2417205 5.7920524 -5.2417205 5.7920524 -6.3125 8.625 C-6.539375 9.40875 -6.76625 10.1925 -7 11 C-7.66 11 -8.32 11 -9 11 C-9 12.98 -9 14.96 -9 17 C0.9 17 10.8 17 21 17 C21 15.68 21 14.36 21 13 C14.73 13 8.46 13 2 13 C2 12.34 2 11.68 2 11 C9.26 11 16.52 11 24 11 C24 13.64 24 16.28 24 19 C12.12 19 0.24 19 -12 19 C-11.00248372 11.01986978 -10.1959373 8.44574198 -5 3 C-2.25 0.9375 -2.25 0.9375 0 0 Z " fill="#D50F14" transform="translate(236,257)"/>
<path d="M0 0 C0.33 3.3 0.66 6.6 1 10 C4.10540926 11.21081851 4.10540926 11.21081851 8 11 C12 11 12 11 15 12 C15 12.66 15 13.32 15 14 C9.44338869 16.89910155 4.27499918 18.07211041 -2 17 C-4.61134818 15.55126944 -5.76024824 14.74819084 -6.6796875 11.87890625 C-6.74414062 11.11449219 -6.80859375 10.35007812 -6.875 9.5625 C-6.95492188 8.80066406 -7.03484375 8.03882813 -7.1171875 7.25390625 C-6.98120406 4.6384915 -6.458667 3.16893296 -5 1 C-2 0 -2 0 0 0 Z " fill="#19FBE3" transform="translate(327,260)"/>
<path d="M0 0 C0.804375 0.721875 1.60875 1.44375 2.4375 2.1875 C3.3346875 2.8990625 3.3346875 2.8990625 4.25 3.625 C5.83371959 5.70884157 6.09130469 7.62565472 6.4375 10.1875 C3.4675 10.1875 0.4975 10.1875 -2.5625 10.1875 C-4.5625 4.4375 -4.5625 4.4375 -4.5625 2.1875 C-3.5725 2.1875 -2.5825 2.1875 -1.5625 2.1875 C-5.09661321 0.06703208 -8.50643835 -0.34449289 -12.5625 -0.8125 C-12.5625 0.1775 -12.5625 1.1675 -12.5625 2.1875 C-13.67625 2.496875 -14.79 2.80625 -15.9375 3.125 C-19.3570155 4.01076483 -19.3570155 4.01076483 -21.5625 5.1875 C-21.7275 6.0125 -21.8925 6.8375 -22.0625 7.6875 C-22.2275 8.5125 -22.3925 9.3375 -22.5625 10.1875 C-23.5525 10.6825 -23.5525 10.6825 -24.5625 11.1875 C-24.418125 12.156875 -24.27375 13.12625 -24.125 14.125 C-23.50202558 18.46802169 -23.02742141 22.82515234 -22.5625 27.1875 C-27.26766385 21.05032976 -27.3682387 15.86948603 -26.5625 8.1875 C-24.94935736 4.0781582 -22.46879931 1.8727507 -19 -0.75 C-12.55093219 -2.74334823 -6.08213188 -3.09441797 0 0 Z " fill="#31ECD9" transform="translate(404.5625,243.8125)"/>
<path d="M0 0 C0.79857422 -0.02835938 1.59714844 -0.05671875 2.41992188 -0.0859375 C6.81597798 -0.10050604 8.48845667 0.00774032 11.94140625 2.96875 C12.64136719 3.8040625 13.34132813 4.639375 14.0625 5.5 C15.0525 5.83 16.0425 6.16 17.0625 6.5 C18.82714854 9.932604 19.44779807 13.18135631 19.8125 17 C19.95945312 18.37671875 19.95945312 18.37671875 20.109375 19.78125 C20.05630852 22.85910566 19.46610993 24.77075847 18.0625 27.5 C11.96611446 33.19879518 11.96611446 33.19879518 8.0625 34.5 C6.71958906 34.20763193 5.38378118 33.87829212 4.0625 33.5 C4.67738281 33.05269531 5.29226562 32.60539062 5.92578125 32.14453125 C12.13893595 27.77014555 12.13893595 27.77014555 16.0625 21.5 C16.59897806 15.86698035 16.22851282 12.36209112 13.0625 7.5 C8.90953158 3.73637237 5.22516213 3.34407533 -0.25 3.3125 C-1.91482422 3.29123047 -1.91482422 3.29123047 -3.61328125 3.26953125 C-7.0336836 3.50666843 -9.74723443 4.27891499 -12.9375 5.5 C-12.9375 3.5 -12.9375 3.5 -11.49609375 1.90625 C-7.71287406 -0.17307685 -4.25067016 -0.01365677 0 0 Z " fill="#330005" transform="translate(242.9375,226.5)"/>
<path d="M0 0 C2.97 0 5.94 0 9 0 C9.49200541 2.70602977 9.33092501 4.4472722 7.91015625 6.8203125 C4.46214754 11.19205829 1.68018077 13.229806 -4 14 C-10.19179513 14.0649489 -14.16200012 12.84558965 -19 9 C-18.34 8.67 -17.68 8.34 -17 8 C-15.6696875 8.7115625 -15.6696875 8.7115625 -14.3125 9.4375 C-8.83440717 12.02150605 -3.8045611 11.13259729 2 10 C0.21342243 7.78629949 0.21342243 7.78629949 -2.1640625 7.8046875 C-2.97617187 7.82789063 -3.78828125 7.85109375 -4.625 7.875 C-5.85089844 7.90207031 -5.85089844 7.90207031 -7.1015625 7.9296875 C-8.04128906 7.96449219 -8.04128906 7.96449219 -9 8 C-9 7.01 -9 6.02 -9 5 C-6.36 5 -3.72 5 -1 5 C-0.67 3.35 -0.34 1.7 0 0 Z " fill="#33E8D7" transform="translate(401,263)"/>
<path d="M0 0 C0 0.66 0 1.32 0 2 C-0.99 2.33 -1.98 2.66 -3 3 C-3 3.66 -3 4.32 -3 5 C2.94 5.33 8.88 5.66 15 6 C15 15 15 15 14 17 C2.12 17 -9.76 17 -22 17 C-22.33 16.34 -22.66 15.68 -23 15 C-11.12 15 0.76 15 13 15 C13 12.36 13 9.72 13 7 C5.74 7 -1.52 7 -9 7 C-3.16666667 0 -3.16666667 0 0 0 Z " fill="#3B0003" transform="translate(247,261)"/>
<path d="M0 0 C1.32 0.33 2.64 0.66 4 1 C3.67 11.56 3.34 22.12 3 33 C-4 32 -4 32 -7 31 C-7.33 29.35 -7.66 27.7 -8 26 C-7.2575 26.185625 -6.515 26.37125 -5.75 26.5625 C-3.05009037 26.99203108 -1.55368923 26.85122974 1 26 C1 24.02 1 22.04 1 20 C-0.32 19.34 -1.64 18.68 -3 18 C-2.67 17.34 -2.34 16.68 -2 16 C-1.34 16.33 -0.68 16.66 0 17 C0 11.39 0 5.78 0 0 Z " fill="#020612" transform="translate(410,229)"/>
<path d="M0 0 C3.63 0 7.26 0 11 0 C13.16286319 7.96899594 15.29830289 15.91693875 17 24 C15.68 24 14.36 24 13 24 C12.67 22.35 12.34 20.7 12 19 C11.34 19 10.68 19 10 19 C10.33 22.63 10.66 26.26 11 30 C8.93421237 26.90131855 8.25308642 24.65023694 7.375 21.0625 C7.11460937 20.02222656 6.85421875 18.98195313 6.5859375 17.91015625 C6 15 6 15 6 11 C6.66 11.33 7.32 11.66 8 12 C8.625 14.0625 8.625 14.0625 9 16 C9.66 16 10.32 16 11 16 C10.855625 15.32453125 10.71125 14.6490625 10.5625 13.953125 C10.376875 13.06109375 10.19125 12.1690625 10 11.25 C9.814375 10.36828125 9.62875 9.4865625 9.4375 8.578125 C9 6 9 6 9 2 C4.545 2.495 4.545 2.495 0 3 C0 2.01 0 1.02 0 0 Z " fill="#3DE6D8" transform="translate(285,242)"/>
<path d="M0 0 C0.66 0 1.32 0 2 0 C2 5.61 2 11.22 2 17 C2.66 17 3.32 17 4 17 C4.45375 17.763125 4.9075 18.52625 5.375 19.3125 C7.00525469 22.00869044 8.39735892 23.29482136 11 25 C6.86001651 25.32470459 4.66000999 25.4304413 1.125 23.125 C-2.71350044 19.28649956 -2.1832678 15.65482316 -2.1875 10.5 C-2.19974609 9.71496094 -2.21199219 8.92992187 -2.22460938 8.12109375 C-2.22986254 6.07936274 -2.1222018 4.03807749 -2 2 C-1.34 1.34 -0.68 0.68 0 0 Z " fill="#030A10" transform="translate(355,252)"/>
<path d="M0 0 C0.495 1.485 0.495 1.485 1 3 C-0.07543783 3.98783194 -1.16073217 4.96493943 -2.25 5.9375 C-2.85328125 6.48277344 -3.4565625 7.02804687 -4.078125 7.58984375 C-9.07238251 11.25432944 -16.10466201 10.56671788 -22 10 C-25.19598512 8.97351951 -28.08124666 7.65101199 -31 6 C-31.33 6.99 -31.66 7.98 -32 9 C-35.01490557 10.00496852 -37.04181692 10.10335303 -40.1875 10.0625 C-41.53908203 10.04896484 -41.53908203 10.04896484 -42.91796875 10.03515625 C-43.60503906 10.02355469 -44.29210937 10.01195312 -45 10 C-43 8 -43 8 -40.8359375 7.8046875 C-39.61777344 7.83949219 -39.61777344 7.83949219 -38.375 7.875 C-37.14910156 7.90207031 -37.14910156 7.90207031 -35.8984375 7.9296875 C-34.95871094 7.96449219 -34.95871094 7.96449219 -34 8 C-34 5.69 -34 3.38 -34 1 C-33.38125 1.185625 -32.7625 1.37125 -32.125 1.5625 C-29.95839822 2.23686176 -29.95839822 2.23686176 -28 1 C-27.29875 1.78375 -26.5975 2.5675 -25.875 3.375 C-22.30421827 6.63527897 -19.65910553 8.04632588 -14.7578125 7.9609375 C-9.20301784 7.46920158 -5.49703817 6.74654453 -1.75 2.375 C-1.1725 1.59125 -0.595 0.8075 0 0 Z " fill="#1A4945" transform="translate(409,268)"/>
<path d="M0 0 C0.99 0.66 1.98 1.32 3 2 C2.625 4.4375 2.625 4.4375 2 7 C-0.49057864 8.24528932 -2.47267769 8.25158635 -5.25 8.4375 C-9.44741093 8.7794704 -13.06610317 9.40517696 -17 11 C-17 10.34 -17 9.68 -17 9 C-15.35 8.34 -13.7 7.68 -12 7 C-14.97 6.505 -14.97 6.505 -18 6 C-18 5.67 -18 5.34 -18 5 C-15.03 5 -12.06 5 -9 5 C-8.67 3.68 -8.34 2.36 -8 1 C-5.22899606 -0.38550197 -3.0665294 -0.1877467 0 0 Z " fill="#012427" transform="translate(338,248)"/>
<path d="M0 0 C2.64297382 3.96446073 3.14080239 5.83977801 3.28125 10.55859375 C3.31863281 11.66654297 3.35601562 12.77449219 3.39453125 13.91601562 C3.42933594 15.07810547 3.46414063 16.24019531 3.5 17.4375 C3.56882945 19.72799105 3.64156636 22.01836899 3.71875 24.30859375 C3.74904297 25.32751709 3.77933594 26.34644043 3.81054688 27.39624023 C3.90065452 30.11287773 3.90065452 30.11287773 5 33 C3.35 33 1.7 33 0 33 C0 38.28 0 43.56 0 49 C-0.33 49 -0.66 49 -1 49 C-1 43.39 -1 37.78 -1 32 C-2.65 32 -4.3 32 -6 32 C-6 31.34 -6 30.68 -6 30 C-3.69 30 -1.38 30 1 30 C0.67 20.1 0.34 10.2 0 0 Z " fill="#42ACA7" transform="translate(348,245)"/>
<path d="M0 0 C0.3125 2.75 0.3125 2.75 0 6 C-2.125 8.4375 -2.125 8.4375 -5 10 C-10.30612245 9.69387755 -10.30612245 9.69387755 -12 8 C-12.375 5.625 -12.375 5.625 -12 3 C-8.21669117 -0.32472595 -4.88424492 -0.28730852 0 0 Z " fill="#0E0E17" transform="translate(182,261)"/>
<path d="M0 0 C3.25 -0.3125 3.25 -0.3125 7 0 C9.5 2.1875 9.5 2.1875 11 5 C10.58020275 10.23067374 8.10750006 12.45672377 4.4609375 15.9453125 C1.0341927 18.80637245 -2.64229227 21.09803488 -6.484375 23.359375 C-9.013313 25.00868239 -10.94877608 26.79541354 -13 29 C-12.875 26.75 -12.875 26.75 -12 24 C-9.0625 21.875 -9.0625 21.875 -6 20 C-5.34 19.01 -4.68 18.02 -4 17 C-2.34183216 16.31246699 -0.67540664 15.64438717 1 15 C1.33 14.34 1.66 13.68 2 13 C2.99 13 3.98 13 5 13 C5.33 12.01 5.66 11.02 6 10 C6.66 10 7.32 10 8 10 C8 8.02 8 6.04 8 4 C7.34 4 6.68 4 6 4 C6 3.34 6 2.68 6 2 C3.69 2 1.38 2 -1 2 C-0.67 1.34 -0.34 0.68 0 0 Z " fill="#300001" transform="translate(239,237)"/>
<path d="M0 0 C0.99 0 1.98 0 3 0 C3 0.99 3 1.98 3 3 C3.99 3 4.98 3 6 3 C6.33 7.62 6.66 12.24 7 17 C4.69 16.34 2.38 15.68 0 15 C0 10.05 0 5.1 0 0 Z " fill="#000511" transform="translate(370,251)"/>
<path d="M0 0 C0.35555556 5.33333333 0.35555556 5.33333333 -1 7.875 C-4.29426767 9.72802556 -7.26502789 9.24096594 -11 9 C-12 8 -12 8 -12.25 5.5625 C-12.1675 4.716875 -12.085 3.87125 -12 3 C-7.87960164 0.25306776 -4.92304458 0 0 0 Z " fill="#01252A" transform="translate(340,261)"/>
<path d="M0 0 C4.62 0 9.24 0 14 0 C14 3.63 14 7.26 14 11 C15.65 11 17.3 11 19 11 C19 13.31 19 15.62 19 18 C17.02 18 15.04 18 13 18 C13 23.61 13 29.22 13 35 C12.67 35 12.34 35 12 35 C12 28.73 12 22.46 12 16 C13.65 16 15.3 16 17 16 C17 15.01 17 14.02 17 13 C16.0409375 12.8453125 16.0409375 12.8453125 15.0625 12.6875 C14.0415625 12.3471875 14.0415625 12.3471875 13 12 C11.8422494 8.52674819 11.93133348 5.63932552 12 2 C11.38511719 2.02320313 10.77023437 2.04640625 10.13671875 2.0703125 C8.92435547 2.09738281 8.92435547 2.09738281 7.6875 2.125 C6.88699219 2.14820313 6.08648437 2.17140625 5.26171875 2.1953125 C3 2 3 2 0 0 Z " fill="#2EB7AE" transform="translate(356,231)"/>
<path d="M0 0 C0.33 0 0.66 0 1 0 C1 3.3 1 6.6 1 10 C-0.32 10.33 -1.64 10.66 -3 11 C-3.33 11.99 -3.66 12.98 -4 14 C-3.195625 13.979375 -2.39125 13.95875 -1.5625 13.9375 C1 14 1 14 2 15 C2.08737645 16.85369611 2.10698153 18.71067541 2.09765625 20.56640625 C2.09443359 21.69111328 2.09121094 22.81582031 2.08789062 23.97460938 C2.07951172 25.15861328 2.07113281 26.34261719 2.0625 27.5625 C2.05798828 28.75037109 2.05347656 29.93824219 2.04882812 31.16210938 C2.03699675 34.10812226 2.02051287 37.05403681 2 40 C1.34 39.67 0.68 39.34 0 39 C0 31.41 0 23.82 0 16 C-1.98 16 -3.96 16 -6 16 C-6.04254356 14.00045254 -6.04080783 11.99958364 -6 10 C-5 9 -5 9 -2.4375 8.9375 C-1.633125 8.958125 -0.82875 8.97875 0 9 C0 6.03 0 3.06 0 0 Z " fill="#37F2E4" transform="translate(359,233)"/>
<path d="M0 0 C3 0 3 0 5 1.9375 C5.99 2.9584375 5.99 2.9584375 7 4 C10.01490557 5.00496852 12.04181692 5.10335303 15.1875 5.0625 C16.08855469 5.05347656 16.98960937 5.04445313 17.91796875 5.03515625 C18.94857422 5.01775391 18.94857422 5.01775391 20 5 C20.33 5.99 20.66 6.98 21 8 C15.23616983 10.24929958 10.64037748 10.84691353 4.6875 8.9375 C1.15420869 6.39024347 0.79033496 4.1887753 0 0 Z " fill="#0BFCE7" transform="translate(382,265)"/>
<path d="M0 0 C2.64 0 5.28 0 8 0 C8 1.98 8 3.96 8 6 C6.35 6 4.7 6 3 6 C2.34 8.64 1.68 11.28 1 14 C0.01 14 -0.98 14 -2 14 C-2.1799928 8.78020872 -1.97094808 4.92737019 0 0 Z " fill="#17FCE8" transform="translate(286,244)"/>
<path d="M0 0 C0.33 0 0.66 0 1 0 C1 7.59 1 15.18 1 23 C3.31 23 5.62 23 8 23 C8 20.36 8 17.72 8 15 C9.32 15 10.64 15 12 15 C12 18.3 12 21.6 12 25 C7.05 25.495 7.05 25.495 2 26 C2 25.34 2 24.68 2 24 C1.34 24 0.68 24 0 24 C0 16.08 0 8.16 0 0 Z " fill="#394C4D" transform="translate(347,217)"/>
<path d="M0 0 C0.90492188 0.02320313 1.80984375 0.04640625 2.7421875 0.0703125 C4.10730469 0.09738281 4.10730469 0.09738281 5.5 0.125 C6.19867188 0.14820313 6.89734375 0.17140625 7.6171875 0.1953125 C9.8272649 4.22545364 9.89839112 7.60537943 9.30078125 12.046875 C8.12634059 15.73797421 5.74598244 17.02431193 2.6171875 19.1953125 C1.9571875 20.1853125 1.2971875 21.1753125 0.6171875 22.1953125 C-0.7028125 21.8653125 -2.0228125 21.5353125 -3.3828125 21.1953125 C-2.67253906 20.60363281 -1.96226562 20.01195312 -1.23046875 19.40234375 C-0.31136719 18.61214844 0.60773438 17.82195312 1.5546875 17.0078125 C2.47121094 16.23050781 3.38773438 15.45320312 4.33203125 14.65234375 C6.77800976 12.02239421 7.43418466 10.73730287 7.6171875 7.1953125 C6.76501421 4.75329132 6.76501421 4.75329132 4.6171875 3.1953125 C0.75732997 2.70405791 -1.47246901 2.63510112 -4.8203125 4.6953125 C-5.3359375 5.1903125 -5.8515625 5.6853125 -6.3828125 6.1953125 C-3.63053977 0.29758523 -3.63053977 0.29758523 0 0 Z " fill="#D50E0F" transform="translate(241.3828125,234.8046875)"/>
<path d="M0 0 C3.63 0 7.26 0 11 0 C11.33 0.99 11.66 1.98 12 3 C13.32 3 14.64 3 16 3 C15.01 5.97 14.02 8.94 13 12 C11.35 12 9.7 12 8 12 C7.67 13.65 7.34 15.3 7 17 C5.50171128 13.11764181 6.56889418 10.56550712 7.9375 6.75 C8.31777344 5.67234375 8.69804687 4.5946875 9.08984375 3.484375 C9.39019531 2.66453125 9.69054687 1.8446875 10 1 C6.7 1 3.4 1 0 1 C0 0.67 0 0.34 0 0 Z " fill="#032D34" transform="translate(307,241)"/>
<path d="M0 0 C1.65 0 3.3 0 5 0 C5.13496251 2.10241603 5.23197307 4.2072961 5.3125 6.3125 C5.39951172 8.07013672 5.39951172 8.07013672 5.48828125 9.86328125 C5.32714844 10.89839844 5.16601562 11.93351563 5 13 C2.525 14.485 2.525 14.485 0 16 C0 10.72 0 5.44 0 0 Z " fill="#020210" transform="translate(133,229)"/>
<path d="M0 0 C0.99 0.33 1.98 0.66 3 1 C3 1.99 3 2.98 3 4 C4.98 4 6.96 4 9 4 C9 10.93 9 17.86 9 25 C8.67 25 8.34 25 8 25 C8 18.4 8 11.8 8 5 C6.02 5.66 4.04 6.32 2 7 C1.67 14.26 1.34 21.52 1 29 C0.67 29 0.34 29 0 29 C-0.16729064 25.03092526 -0.32788226 21.06164279 -0.48217773 17.09204102 C-0.53565802 15.74072921 -0.59099194 14.38948948 -0.64819336 13.03833008 C-0.72993571 11.09997011 -0.80453323 9.16131296 -0.87890625 7.22265625 C-0.9260376 6.05484619 -0.97316895 4.88703613 -1.02172852 3.68383789 C-1 1 -1 1 0 0 Z " fill="#3F3D48" transform="translate(192,245)"/>
<path d="M0 0 C1.258125 -0.020625 2.51625 -0.04125 3.8125 -0.0625 C4.52019531 -0.07410156 5.22789062 -0.08570313 5.95703125 -0.09765625 C8 0 8 0 11 1 C11 1.66 11 2.32 11 3 C5.54418499 5.84651218 0.16197847 7.31083964 -6 6 C-7.32 4.68 -8.64 3.36 -10 2 C-6.04 2 -2.08 2 2 2 C1.34 1.34 0.68 0.68 0 0 Z " fill="#3AF1E1" transform="translate(331,271)"/>
<path d="M0 0 C0.33 0.99 0.66 1.98 1 3 C3.00016466 4.20882096 3.00016466 4.20882096 5 5 C3.865625 5.28875 2.73125 5.5775 1.5625 5.875 C0.386875 6.24625 -0.78875 6.6175 -2 7 C-2.33 7.66 -2.66 8.32 -3 9 C-3.66 9 -4.32 9 -5 9 C-5 16.26 -5 23.52 -5 31 C-7.64 31 -10.28 31 -13 31 C-13 30.67 -13 30.34 -13 30 C-10.69 30 -8.38 30 -6 30 C-6.00523682 29.35450195 -6.01047363 28.70900391 -6.01586914 28.04394531 C-6.03668657 25.11264015 -6.04967534 22.18135057 -6.0625 19.25 C-6.07087891 18.23421875 -6.07925781 17.2184375 -6.08789062 16.171875 C-6.09111328 15.1921875 -6.09433594 14.2125 -6.09765625 13.203125 C-6.10289307 12.30239258 -6.10812988 11.40166016 -6.11352539 10.47363281 C-6.00729929 8.15904605 -5.61029731 6.22398013 -5 4 C-5 3.34 -5 2.68 -5 2 C-2 0 -2 0 0 0 Z " fill="#39EEE0" transform="translate(429,244)"/>
<path d="M0 0 C0.66 0.33 1.32 0.66 2 1 C1.67 2.32 1.34 3.64 1 5 C0.67 4.34 0.34 3.68 0 3 C-2.64 3 -5.28 3 -8 3 C-8 3.62044189 -8 4.24088379 -8 4.88012695 C-8 12.25341797 -8 19.62670898 -8 27 C-9 28 -9 28 -11.50390625 28.09765625 C-12.51324219 28.08605469 -13.52257812 28.07445312 -14.5625 28.0625 C-15.57441406 28.05347656 -16.58632813 28.04445313 -17.62890625 28.03515625 C-18.41136719 28.02355469 -19.19382812 28.01195312 -20 28 C-20 27.67 -20 27.34 -20 27 C-16.7 27 -13.4 27 -10 27 C-10.04640625 25.38609375 -10.0928125 23.7721875 -10.140625 22.109375 C-10.17814311 19.98960183 -10.21454322 17.86980866 -10.25 15.75 C-10.28351563 14.68652344 -10.31703125 13.62304688 -10.3515625 12.52734375 C-10.36445313 11.50253906 -10.37734375 10.47773438 -10.390625 9.421875 C-10.41157227 8.47924805 -10.43251953 7.53662109 -10.45410156 6.56542969 C-9.39949975 0.60749646 -5.50617201 -0.59849696 0 0 Z " fill="#003739" transform="translate(435,249)"/>
<path d="M0 0 C5.32739707 0.26200313 5.32739707 0.26200313 8 1 C9.99392553 3.43009674 11 4.83909715 11 8 C8.03 8 5.06 8 2 8 C0 2.25 0 2.25 0 0 Z " fill="#22EAD9" transform="translate(400,246)"/>
<path d="M0 0 C3 0.25 3 0.25 5 2.25 C5 3.57 5 4.89 5 6.25 C0.9472484 7.23248524 -2.83861737 7.33159574 -7 7.25 C-4.46606335 0.37217195 -4.46606335 0.37217195 0 0 Z " fill="#100E1D" transform="translate(177,247.75)"/>
<path d="M0 0 C0.33 0 0.66 0 1 0 C1.33 5.94 1.66 11.88 2 18 C3.65 18 5.3 18 7 18 C8 19 8 19 8.0625 22.5625 C8.041875 23.696875 8.02125 24.83125 8 26 C6.22992286 26.08114106 4.45877902 26.13925505 2.6875 26.1875 C1.70136719 26.22230469 0.71523438 26.25710938 -0.30078125 26.29296875 C-3 26 -3 26 -6 23 C-0.06 23.99 -0.06 23.99 6 25 C6 23.35 6 21.7 6 20 C5.195625 20.020625 4.39125 20.04125 3.5625 20.0625 C1 20 1 20 0 19 C-0.08651611 17.58429877 -0.10704904 16.164405 -0.09765625 14.74609375 C-0.09443359 13.89208984 -0.09121094 13.03808594 -0.08789062 12.15820312 C-0.07951172 11.26037109 -0.07113281 10.36253906 -0.0625 9.4375 C-0.05798828 8.53580078 -0.05347656 7.63410156 -0.04882812 6.70507812 C-0.03700225 4.46998686 -0.0205222 2.23502563 0 0 Z " fill="#3AE6D9" transform="translate(367,250)"/>
<path d="M0 0 C0.66 0 1.32 0 2 0 C1.44606641 6.09326949 0.07044316 11.23876685 -2 17 C-5.63 17 -9.26 17 -13 17 C-13.99 13.37 -14.98 9.74 -16 6 C-15.34 5.67 -14.68 5.34 -14 5 C-12.57741188 8.82320557 -11.75957724 11.91281305 -12 16 C-10.700625 15.855625 -9.40125 15.71125 -8.0625 15.5625 C-7.33160156 15.48128906 -6.60070312 15.40007812 -5.84765625 15.31640625 C-3.98859771 15.18113386 -3.98859771 15.18113386 -3 14 C-2.62831518 11.839582 -2.30208609 9.67124378 -2 7.5 C-1.11111111 1.11111111 -1.11111111 1.11111111 0 0 Z " fill="#46E0D0" transform="translate(286,259)"/>
<path d="M0 0 C3.3 0 6.6 0 10 0 C9.34 2.97 8.68 5.94 8 9 C7.67 9 7.34 9 7 9 C7.33 6.36 7.66 3.72 8 1 C6.02 1.66 4.04 2.32 2 3 C1.90203125 3.83144531 1.8040625 4.66289062 1.703125 5.51953125 C1.55359375 6.60621094 1.4040625 7.69289062 1.25 8.8125 C1.11078125 9.89144531 0.9715625 10.97039062 0.828125 12.08203125 C0 15 0 15 -4 18 C-2.68 12.06 -1.36 6.12 0 0 Z " fill="#3FE1E1" transform="translate(307,242)"/>
<path d="M0 0 C1.07765625 0.01804688 2.1553125 0.03609375 3.265625 0.0546875 C4.49539063 0.08949219 4.49539063 0.08949219 5.75 0.125 C5.75 0.455 5.75 0.785 5.75 1.125 C5.1209375 1.13917969 4.491875 1.15335938 3.84375 1.16796875 C-2.51112054 1.52208051 -7.43235476 2.77276696 -12.25 7.125 C-12.58 8.115 -12.91 9.105 -13.25 10.125 C-10.61 9.465 -7.97 8.805 -5.25 8.125 C-5.58 9.445 -5.91 10.765 -6.25 12.125 C-9.22 12.125 -12.19 12.125 -15.25 12.125 C-14.93556351 8.6661986 -14.64397491 6.6140723 -12.4375 3.875 C-8.24152833 0.51822267 -5.39758241 -0.11733875 0 0 Z " fill="#40C6BC" transform="translate(335.25,240.875)"/>
<path d="M0 0 C0.66 0 1.32 0 2 0 C2.67154933 1.28913487 3.33708859 2.58140204 4 3.875 C4.37125 4.59429687 4.7425 5.31359375 5.125 6.0546875 C6 8 6 8 6 10 C2.27357478 12.84961928 -0.36669202 13.39432408 -5 13 C-7.27357257 12.55791645 -8.92885291 12.03557354 -11 11 C-9.18884044 9.18884044 -6.38721773 9.61800552 -3.9375 9.4375 C-2.83277344 9.35371094 -1.72804688 9.26992188 -0.58984375 9.18359375 C0.26480469 9.12300781 1.11945313 9.06242187 2 9 C1.34 6.03 0.68 3.06 0 0 Z " fill="#33F5ED" transform="translate(339,247)"/>
<path d="M0 0 C0.33 0.66 0.66 1.32 1 2 C-1.37050597 3.18525298 -3.10981668 3.20698833 -5.75 3.375 C-10.0936907 3.78300563 -13.31474723 4.51245438 -17 7 C-19.84511628 10.49173362 -19.14286798 14.71396065 -19 19 C-19.66 18.67 -20.32 18.34 -21 18 C-21.62562066 8.89374379 -21.62562066 8.89374379 -19.25 5.5 C-15.20234954 2.80156636 -12.27243439 1.74771485 -7.375 1.4375 C-3.54278845 1.25661545 -3.54278845 1.25661545 0 0 Z " fill="#4DD4D3" transform="translate(340,254)"/>
<path d="M0 0 C11.85417709 1.57778889 11.85417709 1.57778889 16 6 C17.26237731 8.52475462 17.09856404 10.31200466 17.0625 13.125 C17.05347656 14.03507813 17.04445313 14.94515625 17.03515625 15.8828125 C17.02355469 16.58148438 17.01195312 17.28015625 17 18 C16.67 18 16.34 18 16 18 C15.87882812 17.31292969 15.75765625 16.62585938 15.6328125 15.91796875 C15.46523438 15.01691406 15.29765625 14.11585938 15.125 13.1875 C14.96257812 12.29417969 14.80015625 11.40085938 14.6328125 10.48046875 C14.08811551 7.77272154 14.08811551 7.77272154 12 5 C8.85069107 3.95023036 6.61185544 3.89868405 3.3125 3.9375 C2.31863281 3.94652344 1.32476562 3.95554688 0.30078125 3.96484375 C-0.45847656 3.97644531 -1.21773438 3.98804688 -2 4 C-1.34 2.68 -0.68 1.36 0 0 Z " fill="#2FDAC2" transform="translate(430,240)"/>
<path d="M0 0 C-0.66 0.66 -1.32 1.32 -2 2 C-2.70253906 1.51144531 -3.40507812 1.02289063 -4.12890625 0.51953125 C-9.79007635 -2.47665265 -16.60969034 -1.56719212 -22.6875 -0.125 C-25.14344714 0.77967787 -25.14344714 0.77967787 -26 3 C-26.33 2.01 -26.66 1.02 -27 0 C-16.71738446 -5.33172658 -10.34154095 -4.74693683 0 0 Z " fill="#258475" transform="translate(408,244)"/>
<path d="M0 0 C1.69630108 3.39260215 0.0455388 6.95731777 -0.8125 10.5 C-0.99103516 11.28503906 -1.16957031 12.07007813 -1.35351562 12.87890625 C-2.74774149 18.74774149 -2.74774149 18.74774149 -5 21 C-6.29243536 16.8803623 -7.26252625 13.33168317 -7 9 C-6.690625 9.639375 -6.38125 10.27875 -6.0625 10.9375 C-5.1654837 12.93610821 -5.1654837 12.93610821 -4 14 C-4.0825 13.175 -4.165 12.35 -4.25 11.5 C-3.92764011 6.98696153 -2.20705349 3.88204944 0 0 Z " fill="#00403D" transform="translate(306,243)"/>
<path d="M0 0 C1.65 0 3.3 0 5 0 C5 6.6 5 13.2 5 20 C4.34 20 3.68 20 3 20 C3 14.06 3 8.12 3 2 C2.01 1.67 1.02 1.34 0 1 C0 0.67 0 0.34 0 0 Z " fill="#064946" transform="translate(354,249)"/>
<path d="M0 0 C0.66 0.33 1.32 0.66 2 1 C0.39612733 2.1254191 -1.20810916 3.25031972 -2.8125 4.375 C-3.70582031 5.00148438 -4.59914062 5.62796875 -5.51953125 6.2734375 C-7.33267878 7.53550239 -9.16188211 8.77458808 -11 10 C-11 7.69 -11 5.38 -11 3 C-9.125 1.9375 -9.125 1.9375 -7 1 C-6.34 1.33 -5.68 1.66 -5 2 C-4.175 1.67 -3.35 1.34 -2.5 1 C-1.675 0.67 -0.85 0.34 0 0 Z " fill="#DF0C0E" transform="translate(249,257)"/>
<path d="M0 0 C3.3 0 6.6 0 10 0 C11.60355101 3.50776784 12.22036864 6.14354879 12 10 C11.67 9.01 11.34 8.02 11 7 C10.34 7 9.68 7 9 7 C8.67 5.68 8.34 4.36 8 3 C6.35 2.67 4.7 2.34 3 2 C3 3.98 3 5.96 3 8 C0.4345406 5.4345406 0.45953913 3.52313332 0 0 Z " fill="#46DFD3" transform="translate(263,242)"/>
<path d="M0 0 C0.66 0.33 1.32 0.66 2 1 C1.67 1.66 1.34 2.32 1 3 C0.90248453 5.10231877 0.87023313 7.20792623 0.875 9.3125 C0.87242187 10.44300781 0.86984375 11.57351563 0.8671875 12.73828125 C0.98458949 15.62153596 1.33787012 18.1990855 2 21 C0 22 0 22 -2.1640625 21.44140625 C-2.97617187 21.15136719 -3.78828125 20.86132812 -4.625 20.5625 C-5.85089844 20.13130859 -5.85089844 20.13130859 -7.1015625 19.69140625 C-7.72804688 19.46324219 -8.35453125 19.23507812 -9 19 C-9 18.67 -9 18.34 -9 18 C-3.25 17.875 -3.25 17.875 -1 19 C-1.01160156 17.71222656 -1.02320313 16.42445313 -1.03515625 15.09765625 C-1.0445327 13.41927228 -1.05363305 11.74088674 -1.0625 10.0625 C-1.07087891 9.21236328 -1.07925781 8.36222656 -1.08789062 7.48632812 C-1.09111328 6.67744141 -1.09433594 5.86855469 -1.09765625 5.03515625 C-1.10289307 4.2862915 -1.10812988 3.53742676 -1.11352539 2.76586914 C-1 1 -1 1 0 0 Z " fill="#023135" transform="translate(378,249)"/>
<path d="M0 0 C3.6875 -0.3125 3.6875 -0.3125 7 0 C7 0.66 7 1.32 7 2 C5.2984375 2.433125 5.2984375 2.433125 3.5625 2.875 C2.386875 3.24625 1.21125 3.6175 0 4 C-1.29060033 6.58120066 -1.13272333 8.49419829 -1.125 11.375 C-1.12886719 12.80972656 -1.12886719 12.80972656 -1.1328125 14.2734375 C-1.01551878 16.68140854 -0.68675951 18.69990068 0 21 C-0.66 21 -1.32 21 -2 21 C-3.46230215 18.07539571 -3.20908727 15.44347176 -3.25 12.1875 C-3.27578125 10.96417969 -3.3015625 9.74085938 -3.328125 8.48046875 C-2.97725299 4.75871921 -2.37607034 2.86860428 0 0 Z " fill="#3BCBBE" transform="translate(390,247)"/>
<path d="M0 0 C1.32 0.66 2.64 1.32 4 2 C0.375 7.875 0.375 7.875 -3 9 C-4 8 -4 8 -4.3125 5.625 C-4 3 -4 3 -2 1.1875 C-1.34 0.795625 -0.68 0.40375 0 0 Z " fill="#13FCE1" transform="translate(386,246)"/>
<path d="M0 0 C1.4370809 -0.05422947 2.87475462 -0.09289723 4.3125 -0.125 C5.11300781 -0.14820313 5.91351563 -0.17140625 6.73828125 -0.1953125 C9 0 9 0 12 2 C11.071875 2.185625 11.071875 2.185625 10.125 2.375 C7.80879168 2.87197356 7.80879168 2.87197356 6 5 C2.375 4.625 2.375 4.625 -1 4 C-0.67 2.68 -0.34 1.36 0 0 Z " fill="#1AF7E0" transform="translate(430,243)"/>
<path d="M0 0 C4.95 0 9.9 0 15 0 C15 4.62 15 9.24 15 14 C16.65 13.67 18.3 13.34 20 13 C18.3545622 14.68762851 16.68711423 16.3540349 15 18 C14.67 18 14.34 18 14 18 C14 12.39 14 6.78 14 1 C9.38 1 4.76 1 0 1 C0 0.67 0 0.34 0 0 Z " fill="#166158" transform="translate(411,228)"/>
<path d="M0 0 C4.62 0 9.24 0 14 0 C14 3.63 14 7.26 14 11 C12 9 12 9 11.875 5.375 C11.91625 4.26125 11.9575 3.1475 12 2 C11.38511719 2.02320313 10.77023437 2.04640625 10.13671875 2.0703125 C8.92435547 2.09738281 8.92435547 2.09738281 7.6875 2.125 C6.88699219 2.14820313 6.08648437 2.17140625 5.26171875 2.1953125 C3 2 3 2 0 0 Z " fill="#1C8378" transform="translate(356,231)"/>
<path d="M0 0 C0 0.66 0 1.32 0 2 C-0.99 2.33 -1.98 2.66 -3 3 C-3 3.66 -3 4.32 -3 5 C2.28 5.33 7.56 5.66 13 6 C13 6.33 13 6.66 13 7 C5.74 7 -1.52 7 -9 7 C-3.16666667 0 -3.16666667 0 0 0 Z " fill="#650002" transform="translate(247,261)"/>
<path d="M0 0 C1.4540625 0.0309375 1.4540625 0.0309375 2.9375 0.0625 C2.9375 1.7125 2.9375 3.3625 2.9375 5.0625 C-2.8125 6.1875 -2.8125 6.1875 -5.0625 5.0625 C-3.9375 0.08035714 -3.9375 0.08035714 0 0 Z " fill="#00040C" transform="translate(336.0625,262.9375)"/>
<path d="M0 0 C3.25 -0.3125 3.25 -0.3125 7 0 C9.5 2.1875 9.5 2.1875 11 5 C10.875 7.75 10.875 7.75 10 10 C9.01 10.495 9.01 10.495 8 11 C8 8.69 8 6.38 8 4 C7.34 4 6.68 4 6 4 C6 3.34 6 2.68 6 2 C3.69 2 1.38 2 -1 2 C-0.67 1.34 -0.34 0.68 0 0 Z " fill="#420001" transform="translate(239,237)"/>
<path d="M0 0 C0.99 0.33 1.98 0.66 3 1 C3 3.64 3 6.28 3 9 C1.02 9.99 1.02 9.99 -1 11 C-1.0270043 9.54176788 -1.04639787 8.08339325 -1.0625 6.625 C-1.07410156 5.81289063 -1.08570313 5.00078125 -1.09765625 4.1640625 C-1 2 -1 2 0 0 Z " fill="#0EFDE7" transform="translate(272,253)"/>
<path d="M0 0 C0.66 0.33 1.32 0.66 2 1 C5.37416015 1.27642664 8.74801561 1.44705009 12.12890625 1.62109375 C13.07636719 1.74613281 14.02382813 1.87117188 15 2 C15.33 2.66 15.66 3.32 16 4 C10.72 4 5.44 4 0 4 C0 2.68 0 1.36 0 0 Z " fill="#170002" transform="translate(244,263)"/>
<path d="M0 0 C1.14176746 3.42530237 0.83108216 4.31673674 -0.21484375 7.66796875 C-0.48876953 8.56064453 -0.76269531 9.45332031 -1.04492188 10.37304688 C-1.33947266 11.30181641 -1.63402344 12.23058594 -1.9375 13.1875 C-2.22818359 14.12787109 -2.51886719 15.06824219 -2.81835938 16.03710938 C-3.53781887 18.36060971 -4.26529186 20.68128518 -5 23 C-6.15469014 19.05842614 -5.82245557 16.03750918 -5 12 C-4.34 11.34 -3.68 10.68 -3 10 C-2.35987856 7.83552102 -2.35987856 7.83552102 -1.9375 5.4375 C-1.09722222 1.09722222 -1.09722222 1.09722222 0 0 Z " fill="#40DFD2" transform="translate(313,251)"/>
<path d="M0 0 C2.125 0.375 2.125 0.375 4 1 C4 2.32 4 3.64 4 5 C3 6 3 6 -0.0625 6.0625 C-1.5165625 6.0315625 -1.5165625 6.0315625 -3 6 C-2.42655063 3.13275314 -2.1385485 2.1385485 0 0 Z " fill="#24FAEA" transform="translate(325,245)"/>
<path d="M0 0 C0.33 0 0.66 0 1 0 C1.02505615 0.59014893 1.0501123 1.18029785 1.07592773 1.78833008 C1.19200052 4.46326814 1.31467572 7.1378638 1.4375 9.8125 C1.47681641 10.74126953 1.51613281 11.67003906 1.55664062 12.62695312 C1.59853516 13.51962891 1.64042969 14.41230469 1.68359375 15.33203125 C1.72025146 16.15421143 1.75690918 16.9763916 1.79467773 17.82348633 C1.93427772 20.17905178 1.93427772 20.17905178 3 23 C2.0625 25.1875 2.0625 25.1875 1 27 C-0.3308911 24.33821779 -0.11268993 22.31260604 -0.09765625 19.3359375 C-0.09443359 18.21445312 -0.09121094 17.09296875 -0.08789062 15.9375 C-0.07951172 14.761875 -0.07113281 13.58625 -0.0625 12.375 C-0.05798828 11.19164062 -0.05347656 10.00828125 -0.04882812 8.7890625 C-0.03701467 5.85932493 -0.02054258 2.92968728 0 0 Z " fill="#012728" transform="translate(351,250)"/>
<path d="M0 0 C0.33 0 0.66 0 1 0 C1.125 2.875 1.125 2.875 1 6 C-1 8 -1 8 -3.56640625 8.23046875 C-4.55511719 8.21628906 -5.54382813 8.20210937 -6.5625 8.1875 C-7.55378906 8.18105469 -8.54507813 8.17460937 -9.56640625 8.16796875 C-12 8 -12 8 -13 7 C-13.04063832 5.33382885 -13.042721 3.66611905 -13 2 C-12.76539063 2.64453125 -12.53078125 3.2890625 -12.2890625 3.953125 C-11.18838927 6.2077908 -11.18838927 6.2077908 -8.8359375 6.609375 C-8.02382812 6.65578125 -7.21171875 6.7021875 -6.375 6.75 C-5.14910156 6.83507812 -5.14910156 6.83507812 -3.8984375 6.921875 C-3.27195313 6.94765625 -2.64546875 6.9734375 -2 7 C-2.04125 6.21625 -2.0825 5.4325 -2.125 4.625 C-2 2 -2 2 0 0 Z " fill="#3B0004" transform="translate(237,239)"/>
<path d="M0 0 C-0.49831724 3.68754757 -1.10067643 5.60490662 -4 8 C-4.3403125 6.824375 -4.3403125 6.824375 -4.6875 5.625 C-5.78125 2.78125 -5.78125 2.78125 -8.625 1.6875 C-9.40875 1.460625 -10.1925 1.23375 -11 1 C-7.2297564 -1.56376565 -4.32597804 -0.83191885 0 0 Z " fill="#022226" transform="translate(354,242)"/>
<path d="M0 0 C1.77706209 2.66559313 2.87548273 5.0280615 4 8 C4.99 6.68 5.98 5.36 7 4 C6.49202991 8.3177458 5.80317221 12.03302114 4 16 C3.67 16 3.34 16 3 16 C2.49411853 14.08487728 1.99551609 12.16783078 1.5 10.25 C1.2215625 9.18265625 0.943125 8.1153125 0.65625 7.015625 C0 4 0 4 0 0 Z " fill="#01383A" transform="translate(275,248)"/>
<path d="M0 0 C0.66 0 1.32 0 2 0 C2.66 2.97 3.32 5.94 4 9 C2.35 9 0.7 9 -1 9 C-1.09765625 2.84765625 -1.09765625 2.84765625 -1 1 C-0.67 0.67 -0.34 0.34 0 0 Z " fill="#050C16" transform="translate(411,268)"/>
<path d="M0 0 C2.17186421 2.17186421 2.6793248 3.49976531 3.625 6.375 C3.88539063 7.14585937 4.14578125 7.91671875 4.4140625 8.7109375 C5 11 5 11 5 15 C4.34 15 3.68 15 3 15 C3 13.35 3 11.7 3 10 C2.01 10.33 1.02 10.66 0 11 C-1.34484451 8.31031097 -0.62094799 6.8977573 0 4 C0 2.68 0 1.36 0 0 Z " fill="#031F26" transform="translate(262,242)"/>
<path d="M0 0 C0.33 0 0.66 0 1 0 C1 3.3 1 6.6 1 10 C-0.32 10.33 -1.64 10.66 -3 11 C-3 11.99 -3 12.98 -3 14 C-2.34 14.66 -1.68 15.32 -1 16 C-2.65 16 -4.3 16 -6 16 C-6.04254356 14.00045254 -6.04080783 11.99958364 -6 10 C-5 9 -5 9 -2.4375 8.9375 C-1.633125 8.958125 -0.82875 8.97875 0 9 C0 6.03 0 3.06 0 0 Z " fill="#41CEC9" transform="translate(359,233)"/>
<path d="M0 0 C1.65 0 3.3 0 5 0 C5 2.31 5 4.62 5 7 C4.01 7.495 4.01 7.495 3 8 C3 7.34 3 6.68 3 6 C2.01 5.67 1.02 5.34 0 5 C0 3.35 0 1.7 0 0 Z " fill="#19FCEB" transform="translate(266,244)"/>
<path d="M0 0 C5.13669226 0.06257322 8.51787744 0.4104731 12.75 3.3125 C10.15097021 4.27510363 9.09494266 4.46101698 6.5 3.34375 C3.30032632 2.14387237 0.84202814 2.11267521 -2.5625 2.1875 C-3.63113281 2.20554688 -4.69976562 2.22359375 -5.80078125 2.2421875 C-7.01314453 2.27699219 -7.01314453 2.27699219 -8.25 2.3125 C-5.50090732 -0.43659268 -3.83354488 0.01312858 0 0 Z " fill="#C71716" transform="translate(242.25,228.6875)"/>
<path d="M0 0 C1 2 1 2 0.0625 5.125 C-0.288125 6.07375 -0.63875 7.0225 -1 8 C2.96 8.99 2.96 8.99 7 10 C7 10.33 7 10.66 7 11 C4.03 11 1.06 11 -2 11 C-3.14947895 7.44706507 -3.0868937 6.20023331 -1.5625 2.6875 C-1.046875 1.800625 -0.53125 0.91375 0 0 Z " fill="#B40D13" transform="translate(228,235)"/>
<path d="M0 0 C1.26070312 0.02030273 1.26070312 0.02030273 2.546875 0.04101562 C4.61485938 0.07626536 6.68251271 0.1300698 8.75 0.1875 C8.75 0.5175 8.75 0.8475 8.75 1.1875 C3.47 1.1875 -1.81 1.1875 -7.25 1.1875 C-7.25 1.8475 -7.25 2.5075 -7.25 3.1875 C-9.23 3.8475 -11.21 4.5075 -13.25 5.1875 C-13.25 3.1875 -13.25 3.1875 -11.828125 1.57421875 C-7.95018848 -0.51164104 -4.3262501 -0.13181543 0 0 Z " fill="#240005" transform="translate(243.25,226.8125)"/>
<path d="M0 0 C0.33 0 0.66 0 1 0 C1.5304408 2.26860837 2.04905434 4.53998489 2.5625 6.8125 C2.85253906 8.07707031 3.14257812 9.34164063 3.44140625 10.64453125 C4 14 4 14 3 17 C-0.61601216 11.42531458 -0.30720059 6.39432346 0 0 Z " fill="#40EDE4" transform="translate(378,254)"/>
<path d="M0 0 C0.66 0.66 1.32 1.32 2 2 C1.625 4.625 1.625 4.625 1 7 C-2.7016431 7.94693195 -4.39112465 8.30443767 -7.875 6.5625 C-8.57625 6.046875 -9.2775 5.53125 -10 5 C-9.67 4.34 -9.34 3.68 -9 3 C-8.67 3.33 -8.34 3.66 -8 4 C-6.48530552 4.23192865 -4.96245438 4.41215238 -3.4375 4.5625 C-2.61121094 4.64628906 -1.78492188 4.73007813 -0.93359375 4.81640625 C-0.29550781 4.87699219 0.34257812 4.93757812 1 5 C0.67 3.35 0.34 1.7 0 0 Z " fill="#002029" transform="translate(410,249)"/>
<path d="M0 0 C2.64 0 5.28 0 8 0 C8 0.33 8 0.66 8 1 C11.63 1 15.26 1 19 1 C15.2311658 2.8844171 13.31987525 3.33429462 9.25 3.625 C8.26515625 3.69976562 7.2803125 3.77453125 6.265625 3.8515625 C5.51796875 3.90054687 4.7703125 3.94953125 4 4 C3.67 3.34 3.34 2.68 3 2 C2.01 1.34 1.02 0.68 0 0 Z " fill="#282731" transform="translate(163,253)"/>
<path d="M0 0 C0.66 0.33 1.32 0.66 2 1 C0 4 0 4 -2.5 4.875 C-5.2417205 5.7920524 -5.2417205 5.7920524 -6.3125 8.625 C-6.539375 9.40875 -6.76625 10.1925 -7 11 C-7.99 11 -8.98 11 -10 11 C-8.2620468 5.31215317 -4.78816742 3.19211161 0 0 Z " fill="#BD1114" transform="translate(236,257)"/>
<path d="M0 0 C0 1.98 0 3.96 0 6 C-0.99 6.33 -1.98 6.66 -3 7 C-3 5.02 -3 3.04 -3 1 C-5.31 1 -7.62 1 -10 1 C-10 0.67 -10 0.34 -10 0 C-3.375 -1.125 -3.375 -1.125 0 0 Z " fill="#021B24" transform="translate(413,262)"/>
<path d="M0 0 C0.66 0.33 1.32 0.66 2 1 C1.8125 3.375 1.8125 3.375 1 6 C-1.5625 7.3125 -1.5625 7.3125 -4 8 C-4 6.68 -4 5.36 -4 4 C-3.34 4 -2.68 4 -2 4 C-1.34 2.68 -0.68 1.36 0 0 Z " fill="#0DFCE1" transform="translate(309,256)"/>
<path d="M0 0 C0 0.99 0 1.98 0 3 C-2.97 2.505 -2.97 2.505 -6 2 C-7.98 4.97 -7.98 4.97 -10 8 C-10.75 6.25 -10.75 6.25 -11 4 C-8.00042166 -0.49936751 -5.13756651 -0.39519742 0 0 Z " fill="#002A2A" transform="translate(399,249)"/>
<path d="M0 0 C3.63 0 7.26 0 11 0 C11.33 1.32 11.66 2.64 12 4 C12.66 4.33 13.32 4.66 14 5 C13.01 5.99 12.02 6.98 11 8 C10 7 10 7 9.9375 3.9375 C9.9684375 2.4834375 9.9684375 2.4834375 10 1 C6.7 1 3.4 1 0 1 C0 0.67 0 0.34 0 0 Z " fill="#021C26" transform="translate(307,241)"/>
<path d="M0 0 C0.33 0.99 0.66 1.98 1 3 C-3.105466 6.97185616 -6.02968261 9.70876501 -12 10 C-12 9.34 -12 8.68 -12 8 C-10.14375 7.4121875 -10.14375 7.4121875 -8.25 6.8125 C-4.29461634 5.35377695 -2.32850657 3.58978096 0 0 Z " fill="#196F63" transform="translate(409,268)"/>
<path d="M0 0 C3.3 0 6.6 0 10 0 C9.34 2.97 8.68 5.94 8 9 C7.67 9 7.34 9 7 9 C7.33 6.36 7.66 3.72 8 1 C5.36 1.66 2.72 2.32 0 3 C0 2.01 0 1.02 0 0 Z " fill="#4ACFC1" transform="translate(307,242)"/>
<path d="M0 0 C1.2065625 0.0309375 1.2065625 0.0309375 2.4375 0.0625 C1.95810632 4.77653788 1.46915952 8.72829301 -0.5625 13.0625 C-0.8925 13.0625 -1.2225 13.0625 -1.5625 13.0625 C-1.5625 11.0825 -1.5625 9.1025 -1.5625 7.0625 C-0.9025 7.0625 -0.2425 7.0625 0.4375 7.0625 C0.4375 5.4125 0.4375 3.7625 0.4375 2.0625 C-0.8825 1.7325 -2.2025 1.4025 -3.5625 1.0625 C-2.5625 0.0625 -2.5625 0.0625 0 0 Z " fill="#32F8DE" transform="translate(312.5625,242.9375)"/>
<path d="M0 0 C0.99 0.33 1.98 0.66 3 1 C3 2.32 3 3.64 3 5 C1.02 5.33 -0.96 5.66 -3 6 C-3 3 -3 3 -1.5 1.3125 C-0.7575 0.6628125 -0.7575 0.6628125 0 0 Z " fill="#04020C" transform="translate(179,249)"/>
<path d="M0 0 C0.99 0 1.98 0 3 0 C2.65120368 3.25543229 1.97866739 4.01873107 -0.5625 6.25 C-1.366875 6.8275 -2.17125 7.405 -3 8 C-1.125 1.125 -1.125 1.125 0 0 Z " fill="#D50B0A" transform="translate(231,231)"/>
<path d="M0 0 C0.66 0 1.32 0 2 0 C1.67 2.64 1.34 5.28 1 8 C0.01 8.33 -0.98 8.66 -2 9 C-1.125 1.125 -1.125 1.125 0 0 Z " fill="#30E6D2" transform="translate(286,259)"/>
<path d="M0 0 C0 3.58912412 -0.66436554 4.10857029 -3 6.6875 C-3.556875 7.31011719 -4.11375 7.93273437 -4.6875 8.57421875 C-5.120625 9.04472656 -5.55375 9.51523437 -6 10 C-7.32 9.67 -8.64 9.34 -10 9 C-6.7 6.03 -3.4 3.06 0 0 Z " fill="#BB1413" transform="translate(248,247)"/>
<path d="M0 0 C0 3 0 3 -1.375 4.6875 C-3 6 -3 6 -5 6 C-5.33 6.99 -5.66 7.98 -6 9 C-7.32 8.67 -8.64 8.34 -10 8 C-9.36191406 7.50628906 -8.72382813 7.01257813 -8.06640625 6.50390625 C-7.24011719 5.86324219 -6.41382813 5.22257812 -5.5625 4.5625 C-4.73878906 3.92441406 -3.91507813 3.28632813 -3.06640625 2.62890625 C-1.12498733 1.16417803 -1.12498733 1.16417803 0 0 Z " fill="#480001" transform="translate(257,252)"/>
<path d="M0 0 C1.98 0 3.96 0 6 0 C6.25 2.25 6.25 2.25 6 5 C4 7.3125 4 7.3125 2 9 C2.52268466 6.23723823 3.10869587 3.6739124 4 1 C2.68 0.67 1.36 0.34 0 0 Z " fill="#37F0DA" transform="translate(403,264)"/>
<path d="M0 0 C1.50433594 0.29197266 1.50433594 0.29197266 3.0390625 0.58984375 C4.19535156 0.82380859 4.19535156 0.82380859 5.375 1.0625 C5.375 1.3925 5.375 1.7225 5.375 2.0625 C3.77120659 2.11666188 2.16688594 2.15536638 0.5625 2.1875 C-0.33082031 2.21070313 -1.22414063 2.23390625 -2.14453125 2.2578125 C-4.625 2.0625 -4.625 2.0625 -7.625 0.0625 C-4.81015955 -1.34492022 -3.05563887 -0.60402164 0 0 Z " fill="#1A4643" transform="translate(391.625,275.9375)"/>
<path d="M0 0 C2.31 0.66 4.62 1.32 7 2 C5.6875 3.5 5.6875 3.5 4 5 C3.01 5 2.02 5 1 5 C0.67 3.35 0.34 1.7 0 0 Z " fill="#D4E0E2" transform="translate(376,241)"/>
<path d="M0 0 C0.33 0 0.66 0 1 0 C1 1.98 1 3.96 1 6 C-1.31 6 -3.62 6 -6 6 C-4 4 -2 2 0 0 Z " fill="#CDE5E7" transform="translate(409,271)"/>
<path d="M0 0 C0.99 0.99 1.98 1.98 3 3 C1 5 1 5 -1.6015625 5.1953125 C-2.59929687 5.17210937 -3.59703125 5.14890625 -4.625 5.125 C-6.12933594 5.09792969 -6.12933594 5.09792969 -7.6640625 5.0703125 C-8.43492187 5.04710937 -9.20578125 5.02390625 -10 5 C-10 4.67 -10 4.34 -10 4 C-6.7 4 -3.4 4 0 4 C0 2.68 0 1.36 0 0 Z " fill="#1A5355" transform="translate(425,272)"/>
<path d="M0 0 C3.375 -0.125 3.375 -0.125 7 0 C7.66 0.66 8.32 1.32 9 2 C6 3 6 3 2 3 C1.01 3.33 0.02 3.66 -1 4 C-0.67 2.68 -0.34 1.36 0 0 Z " fill="#022024" transform="translate(330,249)"/>
<path d="M0 0 C0.66 0 1.32 0 2 0 C1.85904936 1.6254308 1.71207913 3.25034051 1.5625 4.875 C1.48128906 5.77992188 1.40007812 6.68484375 1.31640625 7.6171875 C1 10 1 10 0 12 C-1 11 -1 11 -1.1328125 8.75 C-1.13023437 7.8425 -1.12765625 6.935 -1.125 6 C-1.12757813 5.0925 -1.13015625 4.185 -1.1328125 3.25 C-1 1 -1 1 0 0 Z " fill="#46E5D6" transform="translate(320,261)"/>
<path d="M0 0 C1 2 1 2 0.44140625 4.1640625 C0.15136719 4.97617188 -0.13867188 5.78828125 -0.4375 6.625 C-0.72496094 7.44226563 -1.01242187 8.25953125 -1.30859375 9.1015625 C-1.53675781 9.72804687 -1.76492188 10.35453125 -2 11 C-2.66 10.67 -3.32 10.34 -4 10 C-3.52449439 8.51965236 -3.04448784 7.04074979 -2.5625 5.5625 C-2.29566406 4.73878906 -2.02882813 3.91507813 -1.75390625 3.06640625 C-1 1 -1 1 0 0 Z " fill="#01242F" transform="translate(306,243)"/>
<path d="M0 0 C0.53625 0.226875 1.0725 0.45375 1.625 0.6875 C-4.125 3.6875 -4.125 3.6875 -6.375 3.6875 C-6.705 4.3475 -7.035 5.0075 -7.375 5.6875 C-7.705 4.6975 -8.035 3.7075 -8.375 2.6875 C-2.95961538 -0.38942308 -2.95961538 -0.38942308 0 0 Z " fill="#14635A" transform="translate(389.375,241.3125)"/>
<path d="M0 0 C0 0.66 0 1.32 0 2 C-0.99 2.33 -1.98 2.66 -3 3 C-3 3.99 -3 4.98 -3 6 C-4.32 6 -5.64 6 -7 6 C-5.52522876 2.59668175 -4.14385429 0 0 0 Z " fill="#450000" transform="translate(247,261)"/>
<path d="M0 0 C0.33 1.32 0.66 2.64 1 4 C2.65 3.67 4.3 3.34 6 3 C4.3545622 4.68762851 2.68711423 6.3540349 1 8 C0.67 8 0.34 8 0 8 C0 5.36 0 2.72 0 0 Z " fill="#024D3C" transform="translate(425,238)"/>
</svg>
